%FSLAX25Y25*%
%MOIN*%
G70*
G01*
G75*
G04 Layer_Color=16711935*
%ADD10R,0.03937X0.03740*%
%ADD11O,0.06299X0.02362*%
%ADD12O,0.02362X0.06299*%
%ADD13R,0.03150X0.02362*%
%ADD14R,0.08661X0.03937*%
%ADD15R,0.04724X0.03937*%
%ADD16O,0.02362X0.00984*%
%ADD17R,0.04724X0.07874*%
%ADD18R,0.03150X0.03150*%
%ADD19R,0.06300X0.05000*%
%ADD20R,0.05906X0.07480*%
%ADD21O,0.00945X0.02362*%
%ADD22R,0.08465X0.06693*%
%ADD23R,0.03740X0.03937*%
%ADD24R,0.02362X0.05906*%
%ADD25C,0.04500*%
%ADD26C,0.03500*%
%ADD27C,0.02000*%
%ADD28C,0.01000*%
%ADD29C,0.06300*%
%ADD30C,0.04000*%
%ADD31C,0.06500*%
%ADD32C,0.06000*%
%ADD33C,0.02200*%
%ADD34R,0.01732X0.00787*%
%ADD35C,0.06000*%
%ADD36O,0.16929X0.06693*%
%ADD37O,0.05906X0.14961*%
%ADD38O,0.14961X0.05906*%
%ADD39C,0.05906*%
%ADD40R,0.05906X0.05906*%
%ADD41C,0.08700*%
%ADD42C,0.06496*%
%ADD43R,0.06496X0.06496*%
%ADD44R,0.05906X0.05906*%
%ADD45C,0.05000*%
%ADD46C,0.02000*%
%ADD47C,0.01969*%
%ADD48R,0.11024X0.03937*%
%ADD49R,0.07284X0.05118*%
%ADD50R,0.07717X0.12402*%
%ADD51R,0.08500X0.10799*%
%ADD52R,0.20866X0.06299*%
%ADD53R,0.12598X0.04134*%
%ADD54R,0.32677X0.41142*%
%ADD55R,0.20079X0.70079*%
%ADD56C,0.01500*%
%ADD57C,0.00799*%
%ADD58C,0.00984*%
%ADD59C,0.00700*%
%ADD60C,0.00701*%
%ADD61C,0.00787*%
%ADD62C,0.00669*%
%ADD63C,0.00800*%
%ADD64C,0.00600*%
%ADD65R,0.00886X0.03937*%
%ADD66R,0.04000X0.02000*%
%ADD67R,0.02000X0.04000*%
%ADD68R,0.10350X0.01000*%
%ADD69R,0.01000X0.11000*%
%ADD70R,0.04433X0.07043*%
%ADD71R,0.02362X0.02756*%
%ADD72R,0.03839X0.06102*%
%ADD73R,0.00000X0.03150*%
%ADD74R,0.00000X0.00000*%
%ADD75R,0.04337X0.04140*%
%ADD76O,0.06699X0.02762*%
%ADD77O,0.02762X0.06699*%
%ADD78R,0.03550X0.02762*%
%ADD79R,0.09061X0.04337*%
%ADD80R,0.05124X0.04337*%
%ADD81O,0.02762X0.01384*%
%ADD82R,0.05124X0.08274*%
%ADD83R,0.03550X0.03550*%
%ADD84R,0.06700X0.05400*%
%ADD85R,0.06306X0.07880*%
%ADD86O,0.01345X0.02762*%
%ADD87R,0.08865X0.07093*%
%ADD88R,0.04140X0.04337*%
%ADD89R,0.02762X0.06306*%
%ADD90R,0.02132X0.01187*%
%ADD91O,0.17329X0.07093*%
%ADD92O,0.06306X0.15361*%
%ADD93O,0.15361X0.06306*%
%ADD94C,0.06306*%
%ADD95R,0.06306X0.06306*%
%ADD96C,0.09100*%
%ADD97R,0.06306X0.06306*%
%ADD98C,0.05400*%
%ADD99C,0.02369*%
%ADD100C,0.02362*%
%ADD101R,0.11424X0.04337*%
%ADD102R,0.07684X0.05518*%
%ADD103R,0.08117X0.12802*%
%ADD104R,0.08900X0.11199*%
%ADD105R,0.21266X0.06699*%
%ADD106R,0.12998X0.04534*%
%ADD107R,0.33077X0.41542*%
%ADD108R,0.20479X0.70479*%
%ADD109C,0.00500*%
%ADD110R,0.02000X0.16400*%
%ADD111C,0.00400*%
%ADD112C,0.00394*%
%ADD113C,0.00197*%
%ADD114C,0.00276*%
%ADD115C,0.00236*%
%ADD116C,0.00300*%
%ADD117R,0.00787X0.03740*%
%ADD118R,0.04000X0.04000*%
D59*
X184999Y-314666D02*
Y-313333D01*
Y-313999D01*
X181667D01*
X181000Y-313333D01*
Y-312666D01*
X181667Y-312000D01*
X181000Y-318665D02*
Y-315999D01*
X183666Y-318665D01*
X184332D01*
X184999Y-317998D01*
Y-316665D01*
X184332Y-315999D01*
Y-319997D02*
X184999Y-320664D01*
Y-321997D01*
X184332Y-322663D01*
X181667D01*
X181000Y-321997D01*
Y-320664D01*
X181667Y-319997D01*
X184332D01*
X181000Y-323996D02*
Y-325329D01*
Y-324663D01*
X184999D01*
X184332Y-323996D01*
D64*
X48651Y-112999D02*
Y-111000D01*
X49651D01*
X49984Y-111333D01*
Y-112000D01*
X49651Y-112333D01*
X48651D01*
X49318D02*
X49984Y-112999D01*
X51984D02*
X50651D01*
X51984Y-111667D01*
Y-111333D01*
X51650Y-111000D01*
X50984D01*
X50651Y-111333D01*
X59498Y-103000D02*
Y-105000D01*
X58499D01*
X58165Y-104667D01*
Y-104000D01*
X58499Y-103667D01*
X59498D01*
X58832D02*
X58165Y-103000D01*
X57499D02*
X56832D01*
X57166D01*
Y-105000D01*
X57499Y-104667D01*
X58165Y-97667D02*
X58499Y-98000D01*
X59165D01*
X59498Y-97667D01*
Y-96334D01*
X59165Y-96000D01*
X58499D01*
X58165Y-96334D01*
X56166Y-98000D02*
X56832Y-97667D01*
X57499Y-97000D01*
Y-96334D01*
X57166Y-96000D01*
X56499D01*
X56166Y-96334D01*
Y-96667D01*
X56499Y-97000D01*
X57499D01*
X58665Y-90667D02*
X58999Y-91000D01*
X59665D01*
X59998Y-90667D01*
Y-89334D01*
X59665Y-89000D01*
X58999D01*
X58665Y-89334D01*
X57999Y-90667D02*
X57666Y-91000D01*
X56999D01*
X56666Y-90667D01*
Y-90333D01*
X56999Y-90000D01*
X56666Y-89667D01*
Y-89334D01*
X56999Y-89000D01*
X57666D01*
X57999Y-89334D01*
Y-89667D01*
X57666Y-90000D01*
X57999Y-90333D01*
Y-90667D01*
X57666Y-90000D02*
X56999D01*
X179399Y-183300D02*
Y-185300D01*
X178399D01*
X178066Y-184967D01*
Y-184300D01*
X178399Y-183967D01*
X179399D01*
X178732D02*
X178066Y-183300D01*
X177399Y-185300D02*
X176066D01*
Y-184967D01*
X177399Y-183634D01*
Y-183300D01*
X170240Y-199667D02*
X169907Y-200000D01*
X169240D01*
X168907Y-199667D01*
Y-198334D01*
X169240Y-198001D01*
X169907D01*
X170240Y-198334D01*
X170907Y-198001D02*
X171573D01*
X171240D01*
Y-200000D01*
X170907Y-199667D01*
X172573D02*
X172906Y-200000D01*
X173573D01*
X173906Y-199667D01*
Y-198334D01*
X173573Y-198001D01*
X172906D01*
X172573Y-198334D01*
Y-199667D01*
X175572Y-198001D02*
Y-200000D01*
X174572Y-199000D01*
X175905D01*
X170335Y-208667D02*
X170001Y-209000D01*
X169335D01*
X169002Y-208667D01*
Y-207334D01*
X169335Y-207000D01*
X170001D01*
X170335Y-207334D01*
X171001Y-207000D02*
X171668D01*
X171334D01*
Y-209000D01*
X171001Y-208667D01*
X172667D02*
X173001Y-209000D01*
X173667D01*
X174000Y-208667D01*
Y-207334D01*
X173667Y-207000D01*
X173001D01*
X172667Y-207334D01*
Y-208667D01*
X174667D02*
X175000Y-209000D01*
X175666D01*
X175999Y-208667D01*
Y-208333D01*
X175666Y-208000D01*
X175333D01*
X175666D01*
X175999Y-207667D01*
Y-207334D01*
X175666Y-207000D01*
X175000D01*
X174667Y-207334D01*
X82667Y-287165D02*
X83000Y-287498D01*
Y-288165D01*
X82667Y-288498D01*
X81334D01*
X81001Y-288165D01*
Y-287498D01*
X81334Y-287165D01*
X81001Y-286499D02*
Y-285832D01*
Y-286166D01*
X83000D01*
X82667Y-286499D01*
Y-284833D02*
X83000Y-284500D01*
Y-283833D01*
X82667Y-283500D01*
X81334D01*
X81001Y-283833D01*
Y-284500D01*
X81334Y-284833D01*
X82667D01*
X81001Y-281501D02*
Y-282833D01*
X82333Y-281501D01*
X82667D01*
X83000Y-281834D01*
Y-282500D01*
X82667Y-282833D01*
X92591Y-284974D02*
X92924Y-285307D01*
Y-285974D01*
X92591Y-286307D01*
X91258D01*
X90925Y-285974D01*
Y-285307D01*
X91258Y-284974D01*
X90925Y-284308D02*
Y-283641D01*
Y-283975D01*
X92924D01*
X92591Y-284308D01*
Y-282642D02*
X92924Y-282308D01*
Y-281642D01*
X92591Y-281309D01*
X91258D01*
X90925Y-281642D01*
Y-282308D01*
X91258Y-282642D01*
X92591D01*
X90925Y-280642D02*
Y-279976D01*
Y-280309D01*
X92924D01*
X92591Y-280642D01*
X106000Y-328498D02*
X108000D01*
Y-327499D01*
X107667Y-327165D01*
X107000D01*
X106667Y-327499D01*
Y-328498D01*
Y-327832D02*
X106000Y-327165D01*
Y-326499D02*
Y-325832D01*
Y-326166D01*
X108000D01*
X107667Y-326499D01*
Y-324833D02*
X108000Y-324500D01*
Y-323833D01*
X107667Y-323500D01*
X106334D01*
X106000Y-323833D01*
Y-324500D01*
X106334Y-324833D01*
X107667D01*
X106000Y-321500D02*
Y-322833D01*
X107333Y-321500D01*
X107667D01*
X108000Y-321834D01*
Y-322500D01*
X107667Y-322833D01*
X134501Y-333498D02*
X136500D01*
Y-332499D01*
X136167Y-332165D01*
X135500D01*
X135167Y-332499D01*
Y-333498D01*
Y-332832D02*
X134501Y-332165D01*
Y-331499D02*
Y-330832D01*
Y-331166D01*
X136500D01*
X136167Y-331499D01*
Y-329833D02*
X136500Y-329500D01*
Y-328833D01*
X136167Y-328500D01*
X134834D01*
X134501Y-328833D01*
Y-329500D01*
X134834Y-329833D01*
X136167D01*
X134501Y-327833D02*
Y-327167D01*
Y-327500D01*
X136500D01*
X136167Y-327833D01*
X131833Y-312499D02*
X130500D01*
Y-311500D01*
X131167D01*
X130500D01*
Y-310500D01*
X132499D02*
X133166D01*
X132833D01*
Y-312499D01*
X132499Y-312166D01*
X134166D02*
X134499Y-312499D01*
X135165D01*
X135498Y-312166D01*
Y-310833D01*
X135165Y-310500D01*
X134499D01*
X134166Y-310833D01*
Y-312166D01*
X136165Y-310500D02*
X136831D01*
X136498D01*
Y-312499D01*
X136165Y-312166D01*
X105900Y-273499D02*
Y-271500D01*
X106900D01*
X107233Y-271833D01*
Y-273166D01*
X106900Y-273499D01*
X105900D01*
X107899Y-271500D02*
X108566D01*
X108233D01*
Y-273499D01*
X107899Y-273166D01*
X109565D02*
X109899Y-273499D01*
X110565D01*
X110898Y-273166D01*
Y-271833D01*
X110565Y-271500D01*
X109899D01*
X109565Y-271833D01*
Y-273166D01*
X111565Y-271500D02*
X112231D01*
X111898D01*
Y-273499D01*
X111565Y-273166D01*
X173969Y-230618D02*
X175969D01*
Y-231951D01*
Y-232617D02*
Y-233284D01*
Y-232951D01*
X173969D01*
X174302Y-232617D01*
Y-234284D02*
X173969Y-234617D01*
Y-235283D01*
X174302Y-235616D01*
X175635D01*
X175969Y-235283D01*
Y-234617D01*
X175635Y-234284D01*
X174302D01*
X175969Y-237616D02*
Y-236283D01*
X174636Y-237616D01*
X174302D01*
X173969Y-237283D01*
Y-236616D01*
X174302Y-236283D01*
X101547Y-264288D02*
Y-266287D01*
X102547D01*
X102880Y-265954D01*
Y-264621D01*
X102547Y-264288D01*
X101547D01*
X103547Y-264621D02*
X103880Y-264288D01*
X104546D01*
X104879Y-264621D01*
Y-264954D01*
X104546Y-265288D01*
X104213D01*
X104546D01*
X104879Y-265621D01*
Y-265954D01*
X104546Y-266287D01*
X103880D01*
X103547Y-265954D01*
X101547Y-270288D02*
Y-272287D01*
X102547D01*
X102880Y-271954D01*
Y-270621D01*
X102547Y-270288D01*
X101547D01*
X104546Y-272287D02*
Y-270288D01*
X103547Y-271288D01*
X104879D01*
X101941Y-248379D02*
Y-250378D01*
X102941D01*
X103274Y-250045D01*
Y-248712D01*
X102941Y-248379D01*
X101941D01*
X103940Y-248712D02*
X104273Y-248379D01*
X104940D01*
X105273Y-248712D01*
Y-249045D01*
X104940Y-249378D01*
X105273Y-249711D01*
Y-250045D01*
X104940Y-250378D01*
X104273D01*
X103940Y-250045D01*
Y-249711D01*
X104273Y-249378D01*
X103940Y-249045D01*
Y-248712D01*
X104273Y-249378D02*
X104940D01*
X101988Y-242879D02*
Y-244878D01*
X102988D01*
X103321Y-244545D01*
Y-243212D01*
X102988Y-242879D01*
X101988D01*
X103988D02*
X105320D01*
Y-243212D01*
X103988Y-244545D01*
Y-244878D01*
X109050Y-237400D02*
X107051D01*
Y-236400D01*
X107384Y-236067D01*
X108051D01*
X108384Y-236400D01*
Y-237400D01*
Y-236734D02*
X109050Y-236067D01*
Y-234401D02*
X107051D01*
X108051Y-235401D01*
Y-234068D01*
X116685Y-226833D02*
X116352Y-226500D01*
X115685D01*
X115352Y-226833D01*
Y-228166D01*
X115685Y-228500D01*
X116352D01*
X116685Y-228166D01*
X117351Y-228500D02*
X118018D01*
X117685D01*
Y-226500D01*
X117351Y-226833D01*
X119018D02*
X119351Y-226500D01*
X120017D01*
X120351Y-226833D01*
Y-228166D01*
X120017Y-228500D01*
X119351D01*
X119018Y-228166D01*
Y-226833D01*
X116835Y-234833D02*
X116501Y-234500D01*
X115835D01*
X115502Y-234833D01*
Y-236166D01*
X115835Y-236500D01*
X116501D01*
X116835Y-236166D01*
X117501D02*
X117834Y-236500D01*
X118501D01*
X118834Y-236166D01*
Y-234833D01*
X118501Y-234500D01*
X117834D01*
X117501Y-234833D01*
Y-235167D01*
X117834Y-235500D01*
X118834D01*
X101547Y-282288D02*
Y-284287D01*
X102547D01*
X102880Y-283954D01*
Y-282621D01*
X102547Y-282288D01*
X101547D01*
X103547Y-284287D02*
X104213D01*
X103880D01*
Y-282288D01*
X103547Y-282621D01*
X101547Y-276288D02*
Y-278287D01*
X102547D01*
X102880Y-277954D01*
Y-276621D01*
X102547Y-276288D01*
X101547D01*
X104879Y-278287D02*
X103547D01*
X104879Y-276955D01*
Y-276621D01*
X104546Y-276288D01*
X103880D01*
X103547Y-276621D01*
X81500Y-263001D02*
Y-264667D01*
X81833Y-265000D01*
X82500D01*
X82833Y-264667D01*
Y-263001D01*
X84832Y-265000D02*
X83499D01*
X84832Y-263667D01*
Y-263334D01*
X84499Y-263001D01*
X83833D01*
X83499Y-263334D01*
X101941Y-259379D02*
Y-261378D01*
X102941D01*
X103274Y-261045D01*
Y-259712D01*
X102941Y-259379D01*
X101941D01*
X105273D02*
X103940D01*
Y-260378D01*
X104607Y-260045D01*
X104940D01*
X105273Y-260378D01*
Y-261045D01*
X104940Y-261378D01*
X104273D01*
X103940Y-261045D01*
X101941Y-253879D02*
Y-255878D01*
X102941D01*
X103274Y-255545D01*
Y-254212D01*
X102941Y-253879D01*
X101941D01*
X105273D02*
X104607Y-254212D01*
X103940Y-254878D01*
Y-255545D01*
X104273Y-255878D01*
X104940D01*
X105273Y-255545D01*
Y-255211D01*
X104940Y-254878D01*
X103940D01*
X72000Y-313001D02*
Y-314667D01*
X71667Y-315000D01*
X71000D01*
X70667Y-314667D01*
Y-313001D01*
X70001Y-315000D02*
X69334D01*
X69667D01*
Y-313001D01*
X70001Y-313334D01*
X68335D02*
X68001Y-313001D01*
X67335D01*
X67002Y-313334D01*
Y-314667D01*
X67335Y-315000D01*
X68001D01*
X68335Y-314667D01*
Y-313334D01*
X66335Y-315000D02*
X65669D01*
X66002D01*
Y-313001D01*
X66335Y-313334D01*
X86500Y-204499D02*
Y-202500D01*
X87833D01*
X88499D02*
X89166D01*
X88833D01*
Y-204499D01*
X88499Y-204166D01*
X90166D02*
X90499Y-204499D01*
X91165D01*
X91498Y-204166D01*
Y-202833D01*
X91165Y-202500D01*
X90499D01*
X90166Y-202833D01*
Y-204166D01*
X92165Y-202500D02*
X92831D01*
X92498D01*
Y-204499D01*
X92165Y-204166D01*
X167531Y-273913D02*
X165532D01*
Y-275246D01*
Y-275913D02*
Y-276579D01*
Y-276246D01*
X167531D01*
X167198Y-275913D01*
X149023Y-275488D02*
X147357D01*
X147024Y-275821D01*
Y-276488D01*
X147357Y-276821D01*
X149023D01*
X147024Y-277487D02*
Y-278154D01*
Y-277821D01*
X149023D01*
X148690Y-277487D01*
X48651Y-120000D02*
Y-118000D01*
X49651D01*
X49984Y-118333D01*
Y-119000D01*
X49651Y-119333D01*
X48651D01*
X49318D02*
X49984Y-120000D01*
X50651Y-118333D02*
X50984Y-118000D01*
X51650D01*
X51984Y-118333D01*
Y-118667D01*
X51650Y-119000D01*
X51317D01*
X51650D01*
X51984Y-119333D01*
Y-119666D01*
X51650Y-120000D01*
X50984D01*
X50651Y-119666D01*
X170601Y-179700D02*
Y-177700D01*
X171601D01*
X171934Y-178033D01*
Y-178700D01*
X171601Y-179033D01*
X170601D01*
X171268D02*
X171934Y-179700D01*
X172601Y-178033D02*
X172934Y-177700D01*
X173600D01*
X173934Y-178033D01*
Y-178367D01*
X173600Y-178700D01*
X173934Y-179033D01*
Y-179366D01*
X173600Y-179700D01*
X172934D01*
X172601Y-179366D01*
Y-179033D01*
X172934Y-178700D01*
X172601Y-178367D01*
Y-178033D01*
X172934Y-178700D02*
X173600D01*
X157815Y-260667D02*
X158148Y-261000D01*
X158815D01*
X159148Y-260667D01*
Y-259334D01*
X158815Y-259000D01*
X158148D01*
X157815Y-259334D01*
X157149Y-259000D02*
X156482D01*
X156815D01*
Y-261000D01*
X157149Y-260667D01*
X157815Y-267667D02*
X158148Y-268000D01*
X158815D01*
X159148Y-267667D01*
Y-266334D01*
X158815Y-266001D01*
X158148D01*
X157815Y-266334D01*
X155816Y-266001D02*
X157149D01*
X155816Y-267333D01*
Y-267667D01*
X156149Y-268000D01*
X156815D01*
X157149Y-267667D01*
X166333Y-307516D02*
X166000Y-307849D01*
Y-308515D01*
X166333Y-308849D01*
X167666D01*
X167999Y-308515D01*
Y-307849D01*
X167666Y-307516D01*
X167999Y-305850D02*
X166000D01*
X167000Y-306849D01*
Y-305516D01*
X159333Y-307516D02*
X159000Y-307849D01*
Y-308515D01*
X159333Y-308849D01*
X160666D01*
X161000Y-308515D01*
Y-307849D01*
X160666Y-307516D01*
X159333Y-306849D02*
X159000Y-306516D01*
Y-305850D01*
X159333Y-305516D01*
X159667D01*
X160000Y-305850D01*
Y-306183D01*
Y-305850D01*
X160333Y-305516D01*
X160666D01*
X161000Y-305850D01*
Y-306516D01*
X160666Y-306849D01*
X152333Y-307516D02*
X152000Y-307849D01*
Y-308515D01*
X152333Y-308849D01*
X153666D01*
X153999Y-308515D01*
Y-307849D01*
X153666Y-307516D01*
X152000Y-305516D02*
Y-306849D01*
X153000D01*
X152667Y-306183D01*
Y-305850D01*
X153000Y-305516D01*
X153666D01*
X153999Y-305850D01*
Y-306516D01*
X153666Y-306849D01*
X144002Y-294000D02*
Y-292000D01*
X145001D01*
X145335Y-292333D01*
Y-293000D01*
X145001Y-293333D01*
X144002D01*
X144668D02*
X145335Y-294000D01*
X147334Y-292000D02*
X146001D01*
Y-293000D01*
X146668Y-292667D01*
X147001D01*
X147334Y-293000D01*
Y-293666D01*
X147001Y-294000D01*
X146334D01*
X146001Y-293666D01*
X127000Y-277502D02*
X129000D01*
Y-278502D01*
X128667Y-278835D01*
X128000D01*
X127667Y-278502D01*
Y-277502D01*
Y-278168D02*
X127000Y-278835D01*
X129000Y-280834D02*
X128667Y-280168D01*
X128000Y-279501D01*
X127334D01*
X127000Y-279834D01*
Y-280501D01*
X127334Y-280834D01*
X127667D01*
X128000Y-280501D01*
Y-279501D01*
X172490Y-197144D02*
Y-198477D01*
X172823Y-198810D01*
X173490D01*
X173823Y-198477D01*
Y-197144D01*
X173490Y-196811D01*
X172823D01*
X173156Y-197477D02*
X172490Y-196811D01*
X172823D02*
X172490Y-197144D01*
X171824Y-196811D02*
X171157D01*
X171490D01*
Y-198810D01*
X171824Y-198477D01*
X174167Y-73999D02*
X174834D01*
X174500D01*
Y-72333D01*
X174834Y-72000D01*
X175167D01*
X175500Y-72333D01*
X173501Y-73666D02*
X173167Y-73999D01*
X172501D01*
X172168Y-73666D01*
Y-73333D01*
X172501Y-73000D01*
X172834D01*
X172501D01*
X172168Y-72666D01*
Y-72333D01*
X172501Y-72000D01*
X173167D01*
X173501Y-72333D01*
X45001Y-283000D02*
X46334D01*
X47000Y-282334D01*
X46334Y-281667D01*
X45001D01*
Y-281001D02*
X47000D01*
Y-280001D01*
X46667Y-279668D01*
X46334D01*
X46000Y-280001D01*
Y-281001D01*
Y-280001D01*
X45667Y-279668D01*
X45334D01*
X45001Y-280001D01*
Y-281001D01*
X47000Y-279001D02*
X45667D01*
X45001Y-278335D01*
X45667Y-277668D01*
X47000D01*
X46000D01*
Y-279001D01*
X45001Y-277002D02*
Y-275669D01*
Y-276336D01*
X47000D01*
Y-275003D02*
Y-274336D01*
Y-274669D01*
X45001D01*
X45334Y-275003D01*
X10500Y-166500D02*
X12499D01*
Y-167500D01*
X12166Y-167833D01*
X11500D01*
X11167Y-167500D01*
Y-166500D01*
X10500Y-168499D02*
Y-169166D01*
Y-168833D01*
X12499D01*
X12166Y-168499D01*
X27000Y-30000D02*
Y-29334D01*
Y-29667D01*
X25001D01*
X25334Y-30000D01*
X135833Y-287165D02*
X135500Y-287498D01*
Y-288165D01*
X135833Y-288498D01*
X137166D01*
X137499Y-288165D01*
Y-287498D01*
X137166Y-287165D01*
X135500Y-286499D02*
Y-285166D01*
X135833D01*
X137166Y-286499D01*
X137499D01*
X63833Y-74001D02*
X63166D01*
X63500D01*
Y-75667D01*
X63166Y-76000D01*
X62833D01*
X62500Y-75667D01*
X65832Y-74001D02*
X65166Y-74334D01*
X64499Y-75000D01*
Y-75667D01*
X64833Y-76000D01*
X65499D01*
X65832Y-75667D01*
Y-75334D01*
X65499Y-75000D01*
X64499D01*
X16999Y-52333D02*
Y-51666D01*
Y-52000D01*
X15333D01*
X15000Y-51666D01*
Y-51333D01*
X15333Y-51000D01*
X15000Y-52999D02*
Y-53666D01*
Y-53333D01*
X16999D01*
X16666Y-52999D01*
X200500Y-166500D02*
X202499D01*
Y-167500D01*
X202166Y-167833D01*
X201500D01*
X201167Y-167500D01*
Y-166500D01*
X202166Y-168499D02*
X202499Y-168833D01*
Y-169499D01*
X202166Y-169832D01*
X201833D01*
X201500Y-169499D01*
Y-169166D01*
Y-169499D01*
X201167Y-169832D01*
X200833D01*
X200500Y-169499D01*
Y-168833D01*
X200833Y-168499D01*
X200500Y-280500D02*
X202499D01*
Y-281500D01*
X202166Y-281833D01*
X201500D01*
X201167Y-281500D01*
Y-280500D01*
X200500Y-283499D02*
X202499D01*
X201500Y-282499D01*
Y-283832D01*
X10500Y-280500D02*
X12499D01*
Y-281500D01*
X12166Y-281833D01*
X11500D01*
X11167Y-281500D01*
Y-280500D01*
X10500Y-283832D02*
Y-282499D01*
X11833Y-283832D01*
X12166D01*
X12499Y-283499D01*
Y-282833D01*
X12166Y-282499D01*
X173501Y-102667D02*
Y-103333D01*
Y-103000D01*
X175167D01*
X175500Y-103333D01*
Y-103667D01*
X175167Y-104000D01*
X175500Y-101001D02*
X173501D01*
X174500Y-102001D01*
Y-100668D01*
X17834Y-324167D02*
X17501Y-324500D01*
Y-325167D01*
X17834Y-325500D01*
X19167D01*
X19500Y-325167D01*
Y-324500D01*
X19167Y-324167D01*
X18500D01*
Y-324834D01*
X19500Y-323501D02*
X17501D01*
X19500Y-322168D01*
X17501D01*
Y-321501D02*
X19500D01*
Y-320502D01*
X19167Y-320168D01*
X17834D01*
X17501Y-320502D01*
Y-321501D01*
X19500Y-319502D02*
Y-318835D01*
Y-319169D01*
X17501D01*
X17834Y-319502D01*
D109*
X52571Y-277500D02*
G03*
X52571Y-277500I-7071J0D01*
G01*
X32571Y-24500D02*
G03*
X32571Y-24500I-7071J0D01*
G01*
X25071Y-320000D02*
G03*
X25071Y-320000I-7071J0D01*
G01*
X177095Y-307682D02*
Y-306107D01*
X188906D01*
X200717Y-323627D02*
X202292D01*
X188906Y-307682D02*
Y-306107D01*
X202292Y-323627D02*
Y-313784D01*
X200717D02*
X202292D01*
X177095Y-306107D02*
Y-304138D01*
X188906Y-306107D02*
Y-304138D01*
X121736Y-319980D02*
X151264D01*
X121736D02*
Y-305118D01*
X151264Y-319980D02*
Y-305118D01*
X121736D02*
X151264D01*
X127500Y-266550D02*
Y-265650D01*
X100800D02*
X127500D01*
X100800Y-281350D02*
X127500D01*
Y-280450D01*
Y-266550D01*
X103350Y-238400D02*
Y-223600D01*
X111350D01*
Y-238400D02*
Y-223600D01*
X103350Y-238400D02*
X111350D01*
X173529Y-195039D02*
Y-192933D01*
X169789Y-202264D02*
Y-200157D01*
X174710D02*
Y-195039D01*
X164474Y-192933D02*
X166049D01*
X169789Y-200157D02*
X174710D01*
X173529Y-195039D02*
X174710D01*
X166049D02*
X171954D01*
Y-192933D01*
X168214Y-202264D02*
Y-200157D01*
X163293D02*
X168214D01*
X171954Y-192933D02*
X173529D01*
X168214Y-202264D02*
X169789D01*
X166049Y-195039D02*
Y-192933D01*
X163293Y-200157D02*
Y-195039D01*
X164474D01*
Y-192933D01*
X2500Y-272500D02*
Y-72500D01*
Y-272500D02*
X22500D01*
Y-72500D01*
X2500D02*
X22500D01*
X192500Y-272500D02*
Y-72500D01*
Y-272500D02*
X212500D01*
Y-72500D01*
X192500D02*
X212500D01*
X192500Y-272500D02*
X212500D01*
Y-302500D02*
Y-272500D01*
X192500Y-302500D02*
X212500D01*
X192500D02*
Y-272500D01*
X2500D02*
X22500D01*
Y-302500D02*
Y-272500D01*
X2500Y-302500D02*
X22500D01*
X2500D02*
Y-272500D01*
D110*
X100500Y-273500D02*
D03*
D111*
X165000Y-361894D02*
Y-303894D01*
X201000Y-361894D02*
Y-303894D01*
X165000D02*
X201000D01*
X165000Y-361894D02*
X201000D01*
X65000Y-255000D02*
X121000D01*
X143000Y-233000D01*
Y-177000D01*
X137000Y-171000D02*
X143000Y-177000D01*
X121000Y-155000D02*
X137000Y-171000D01*
X65000Y-155000D02*
X121000D01*
X43000Y-177000D02*
X65000Y-155000D01*
X43000Y-233000D02*
Y-177000D01*
Y-233000D02*
X65000Y-255000D01*
X177500Y-79000D02*
Y-69000D01*
X157500Y-79000D02*
X177500D01*
X157500D02*
Y-69000D01*
X177500D01*
X60500Y-79000D02*
Y-69000D01*
X80500D01*
Y-79000D02*
Y-69000D01*
X60500Y-79000D02*
X80500D01*
X12000Y-49000D02*
X22000D01*
Y-69000D02*
Y-49000D01*
X12000Y-69000D02*
X22000D01*
X12000D02*
Y-49000D01*
X168500Y-106000D02*
X178500D01*
X168500D02*
Y-86000D01*
X178500D01*
Y-106000D02*
Y-86000D01*
D112*
X83342Y-237260D02*
G03*
X83342Y-237260I-787J0D01*
G01*
X82842Y-257760D02*
G03*
X82842Y-257760I-787J0D01*
G01*
X153815Y-276571D02*
G03*
X153815Y-276571I-750J0D01*
G01*
X48047Y-114354D02*
Y-108646D01*
X60252Y-114354D02*
Y-108646D01*
X48047D02*
X60252D01*
X48047Y-114354D02*
X60252D01*
X60102Y-107354D02*
Y-101646D01*
X47898Y-107354D02*
Y-101646D01*
Y-107354D02*
X60102D01*
X47898Y-101646D02*
X60102D01*
Y-100354D02*
Y-94646D01*
X47898Y-100354D02*
Y-94646D01*
Y-100354D02*
X60102D01*
X47898Y-94646D02*
X60102D01*
X60602Y-93354D02*
Y-87646D01*
X48398Y-93354D02*
Y-87646D01*
Y-93354D02*
X60602D01*
X48398Y-87646D02*
X60602D01*
X179921Y-186665D02*
Y-182335D01*
X170079Y-186665D02*
Y-182335D01*
Y-186665D02*
X179921D01*
X170079Y-182335D02*
X179921D01*
X168303Y-202354D02*
Y-196646D01*
X180508Y-202354D02*
Y-196646D01*
X168303Y-202354D02*
X180508D01*
X168303Y-196646D02*
X180508D01*
X168398Y-211354D02*
Y-205646D01*
X180602Y-211354D02*
Y-205646D01*
X168398Y-211354D02*
X180602D01*
X168398Y-205646D02*
X180602D01*
X79646Y-289102D02*
X85354D01*
X79646Y-276898D02*
X85354D01*
Y-289102D02*
Y-276898D01*
X79646Y-289102D02*
Y-276898D01*
X88957Y-287193D02*
Y-273807D01*
X96043Y-287193D02*
Y-273807D01*
X88957Y-287193D02*
X96043D01*
X88957Y-273807D02*
X96043D01*
X104646Y-329102D02*
X110354D01*
X104646Y-316898D02*
X110354D01*
Y-329102D02*
Y-316898D01*
X104646Y-329102D02*
Y-316898D01*
X133146Y-334102D02*
X138854D01*
X133146Y-321898D02*
X138854D01*
Y-334102D02*
Y-321898D01*
X133146Y-334102D02*
Y-321898D01*
X163665Y-249614D02*
X184335D01*
Y-226386D01*
X163665Y-249614D02*
Y-226386D01*
X184335D01*
X80882Y-246118D02*
Y-235882D01*
X91118D01*
Y-246118D02*
Y-235882D01*
X80882Y-246118D02*
X91118D01*
X114748Y-229854D02*
Y-224146D01*
X126953Y-229854D02*
Y-224146D01*
X114748D02*
X126953D01*
X114748Y-229854D02*
X126953D01*
X114898Y-237854D02*
Y-232146D01*
X127102Y-237854D02*
Y-232146D01*
X114898D02*
X127102D01*
X114898Y-237854D02*
X127102D01*
X80382Y-266618D02*
Y-256382D01*
X90618D01*
Y-266618D02*
Y-256382D01*
X80382Y-266618D02*
X90618D01*
X159232Y-289268D02*
Y-272732D01*
X175768Y-289268D02*
Y-272732D01*
X159232Y-289268D02*
X175768D01*
X159232Y-272732D02*
X175768D01*
X142299Y-287201D02*
X154701D01*
Y-274799D01*
X142299D02*
X154701D01*
X142299Y-287102D02*
Y-274799D01*
Y-287102D02*
X142398Y-287201D01*
X48047Y-121354D02*
Y-115646D01*
X60252Y-121354D02*
Y-115646D01*
X48047D02*
X60252D01*
X48047Y-121354D02*
X60252D01*
X170079Y-180665D02*
Y-176335D01*
X179921Y-180665D02*
Y-176335D01*
X170079D02*
X179921D01*
X170079Y-180665D02*
X179921D01*
X159752Y-263354D02*
Y-257646D01*
X147547Y-263354D02*
Y-257646D01*
Y-263354D02*
X159752D01*
X147547Y-257646D02*
X159752D01*
Y-270354D02*
Y-264646D01*
X147547Y-270354D02*
Y-264646D01*
Y-270354D02*
X159752D01*
X147547Y-264646D02*
X159752D01*
X163646Y-309453D02*
X169354D01*
X163646Y-297248D02*
X169354D01*
X163646Y-309453D02*
Y-297248D01*
X169354Y-309453D02*
Y-297248D01*
X156646Y-309453D02*
X162354D01*
X156646Y-297248D02*
X162354D01*
X156646Y-309453D02*
Y-297248D01*
X162354Y-309453D02*
Y-297248D01*
X149646Y-309453D02*
X155354D01*
X149646Y-297248D02*
X155354D01*
X149646Y-309453D02*
Y-297248D01*
X155354Y-309453D02*
Y-297248D01*
X143398Y-295354D02*
Y-289646D01*
X155602Y-295354D02*
Y-289646D01*
X143398D02*
X155602D01*
X143398Y-295354D02*
X155602D01*
X125646Y-276898D02*
X131354D01*
X125646Y-289102D02*
X131354D01*
Y-276898D01*
X125646Y-289102D02*
Y-276898D01*
X133146Y-289102D02*
X138854D01*
X133146Y-276898D02*
X138854D01*
X133146Y-289102D02*
Y-276898D01*
X138854Y-289102D02*
Y-276898D01*
D113*
X107453Y-248016D02*
G03*
X107453Y-248016I-394J0D01*
G01*
X107500Y-242516D02*
G03*
X107500Y-242516I-394J0D01*
G01*
X107453Y-259016D02*
G03*
X107453Y-259016I-394J0D01*
G01*
Y-253516D02*
G03*
X107453Y-253516I-394J0D01*
G01*
D114*
X107256Y-264713D02*
Y-263728D01*
X106272D02*
X107256Y-264713D01*
X106272Y-263728D02*
X107256D01*
Y-264024D02*
X108043D01*
X107256Y-266976D02*
X108043D01*
X100957D02*
X101744D01*
X100957Y-264024D02*
X101744D01*
X100957Y-266976D02*
Y-264024D01*
X108043Y-266976D02*
Y-264024D01*
X101744Y-263728D02*
X107256D01*
X101744Y-267272D02*
X107256D01*
X101744Y-264024D02*
Y-263728D01*
Y-267272D02*
Y-266976D01*
X107256Y-267272D02*
Y-266976D01*
Y-264713D01*
Y-270713D02*
Y-269728D01*
X106272D02*
X107256Y-270713D01*
X106272Y-269728D02*
X107256D01*
Y-270024D02*
X108043D01*
X107256Y-272976D02*
X108043D01*
X100957D02*
X101744D01*
X100957Y-270024D02*
X101744D01*
X100957Y-272976D02*
Y-270024D01*
X108043Y-272976D02*
Y-270024D01*
X101744Y-269728D02*
X107256D01*
X101744Y-273272D02*
X107256D01*
X101744Y-270024D02*
Y-269728D01*
Y-273272D02*
Y-272976D01*
X107256Y-273272D02*
Y-272976D01*
Y-270713D01*
Y-282713D02*
Y-281728D01*
X106272D02*
X107256Y-282713D01*
X106272Y-281728D02*
X107256D01*
Y-282024D02*
X108043D01*
X107256Y-284976D02*
X108043D01*
X100957D02*
X101744D01*
X100957Y-282024D02*
X101744D01*
X100957Y-284976D02*
Y-282024D01*
X108043Y-284976D02*
Y-282024D01*
X101744Y-281728D02*
X107256D01*
X101744Y-285272D02*
X107256D01*
X101744Y-282024D02*
Y-281728D01*
Y-285272D02*
Y-284976D01*
X107256Y-285272D02*
Y-284976D01*
Y-282713D01*
Y-276713D02*
Y-275728D01*
X106272D02*
X107256Y-276713D01*
X106272Y-275728D02*
X107256D01*
Y-276024D02*
X108043D01*
X107256Y-278976D02*
X108043D01*
X100957D02*
X101744D01*
X100957Y-276024D02*
X101744D01*
X100957Y-278976D02*
Y-276024D01*
X108043Y-278976D02*
Y-276024D01*
X101744Y-275728D02*
X107256D01*
X101744Y-279272D02*
X107256D01*
X101744Y-276024D02*
Y-275728D01*
Y-279272D02*
Y-278976D01*
X107256Y-279272D02*
Y-278976D01*
Y-276713D01*
D115*
X101154Y-247228D02*
X107846D01*
Y-250772D02*
Y-247228D01*
X101154Y-250772D02*
X107846D01*
X101154D02*
Y-247228D01*
X107846D01*
Y-250772D02*
Y-247228D01*
X101154Y-250772D02*
X107846D01*
X101154D02*
Y-247228D01*
X101201Y-241728D02*
X107894D01*
Y-245272D02*
Y-241728D01*
X101201Y-245272D02*
X107894D01*
X101201D02*
Y-241728D01*
X107894D01*
Y-245272D02*
Y-241728D01*
X101201Y-245272D02*
X107894D01*
X101201D02*
Y-241728D01*
X101154Y-258228D02*
X107846D01*
Y-261772D02*
Y-258228D01*
X101154Y-261772D02*
X107846D01*
X101154D02*
Y-258228D01*
X107846D01*
Y-261772D02*
Y-258228D01*
X101154Y-261772D02*
X107846D01*
X101154D02*
Y-258228D01*
Y-252728D02*
X107846D01*
Y-256272D02*
Y-252728D01*
X101154Y-256272D02*
X107846D01*
X101154D02*
Y-252728D01*
X107846D01*
Y-256272D02*
Y-252728D01*
X101154Y-256272D02*
X107846D01*
X101154D02*
Y-252728D01*
D116*
X192500Y-302500D02*
Y-272500D01*
Y-302500D02*
X212500D01*
Y-272500D01*
X192500D02*
X212500D01*
X2500Y-302500D02*
Y-272500D01*
Y-302500D02*
X22500D01*
Y-272500D01*
X2500D02*
X22500D01*
X82000Y-242501D02*
Y-244167D01*
X82333Y-244500D01*
X83000D01*
X83333Y-244167D01*
Y-242501D01*
X83999Y-242834D02*
X84333Y-242501D01*
X84999D01*
X85332Y-242834D01*
Y-243167D01*
X84999Y-243500D01*
X84666D01*
X84999D01*
X85332Y-243834D01*
Y-244167D01*
X84999Y-244500D01*
X84333D01*
X83999Y-244167D01*
D117*
X109813Y-249000D02*
D03*
X109860Y-243500D02*
D03*
X109814Y-259997D02*
D03*
Y-254497D02*
D03*
D118*
X7500Y-77500D02*
D03*
X197500D02*
D03*
Y-277500D02*
D03*
X7500D02*
D03*
M02*
