%FSLAX25Y25*%
%MOIN*%
G70*
G01*
G75*
G04 Layer_Color=16711935*
%ADD10R,0.03937X0.03740*%
%ADD11R,0.03740X0.03937*%
%ADD12R,0.02362X0.05906*%
%ADD13R,0.02559X0.04331*%
%ADD14R,0.03150X0.02362*%
%ADD15R,0.08465X0.06693*%
%ADD16O,0.00945X0.02362*%
%ADD17R,0.05906X0.07480*%
%ADD18R,0.03150X0.03150*%
%ADD19R,0.04724X0.07874*%
%ADD20O,0.02362X0.00984*%
%ADD21R,0.06300X0.05000*%
%ADD22R,0.04724X0.03937*%
%ADD23R,0.08661X0.03937*%
%ADD24R,0.04331X0.02559*%
%ADD25O,0.02362X0.06299*%
%ADD26O,0.06299X0.02362*%
%ADD27C,0.01000*%
%ADD28C,0.02000*%
%ADD29C,0.01500*%
%ADD30C,0.06300*%
%ADD31C,0.03500*%
%ADD32C,0.02200*%
%ADD33C,0.06500*%
%ADD34C,0.04500*%
%ADD35C,0.06000*%
%ADD36C,0.04000*%
%ADD37R,0.01732X0.00787*%
%ADD38C,0.06000*%
%ADD39C,0.08700*%
%ADD40R,0.05906X0.05906*%
%ADD41C,0.05906*%
%ADD42R,0.06496X0.06496*%
%ADD43C,0.06496*%
%ADD44R,0.05906X0.05906*%
%ADD45R,0.06496X0.06496*%
%ADD46C,0.02000*%
%ADD47C,0.01969*%
%ADD48C,0.05000*%
%ADD49R,0.20079X0.70079*%
%ADD50R,0.32677X0.41142*%
%ADD51R,0.12598X0.04134*%
%ADD52R,0.20866X0.06299*%
%ADD53R,0.08500X0.10799*%
%ADD54R,0.07717X0.12402*%
%ADD55R,0.07284X0.05118*%
%ADD56R,0.11024X0.03937*%
%ADD57R,0.02500X0.04200*%
%ADD58C,0.00799*%
%ADD59C,0.00984*%
%ADD60C,0.00700*%
%ADD61C,0.00800*%
%ADD62C,0.00787*%
%ADD63C,0.00669*%
%ADD64C,0.00701*%
%ADD65C,0.00600*%
%ADD66R,0.02000X0.04000*%
%ADD67R,0.01000X0.11000*%
%ADD68R,0.10350X0.01000*%
%ADD69R,0.04000X0.02000*%
%ADD70R,0.00886X0.03937*%
%ADD71R,0.03839X0.06102*%
%ADD72R,0.04433X0.07043*%
%ADD73R,0.02362X0.02756*%
%ADD74R,0.00000X0.03150*%
%ADD75R,0.00000X0.00000*%
%ADD76R,0.04337X0.04140*%
%ADD77R,0.04140X0.04337*%
%ADD78R,0.02762X0.06306*%
%ADD79R,0.02959X0.04731*%
%ADD80R,0.03550X0.02762*%
%ADD81R,0.08865X0.07093*%
%ADD82O,0.01345X0.02762*%
%ADD83R,0.06306X0.07880*%
%ADD84R,0.03550X0.03550*%
%ADD85R,0.05124X0.08274*%
%ADD86O,0.02762X0.01384*%
%ADD87R,0.06700X0.05400*%
%ADD88R,0.05124X0.04337*%
%ADD89R,0.09061X0.04337*%
%ADD90R,0.04731X0.02959*%
%ADD91O,0.02762X0.06699*%
%ADD92O,0.06699X0.02762*%
%ADD93R,0.02132X0.01187*%
%ADD94C,0.09100*%
%ADD95R,0.06306X0.06306*%
%ADD96C,0.06306*%
%ADD97R,0.06306X0.06306*%
%ADD98C,0.02362*%
%ADD99C,0.02369*%
%ADD100C,0.05400*%
%ADD101R,0.20479X0.70479*%
%ADD102R,0.33077X0.41542*%
%ADD103R,0.12998X0.04534*%
%ADD104R,0.21266X0.06699*%
%ADD105R,0.08900X0.11199*%
%ADD106R,0.08117X0.12802*%
%ADD107R,0.07684X0.05518*%
%ADD108R,0.11424X0.04337*%
%ADD109R,0.02900X0.04600*%
%ADD110C,0.02400*%
D42*
X7500Y-277500D02*
D03*
X197500D02*
D03*
Y-77500D02*
D03*
X7500D02*
D03*
D43*
X17500Y-277500D02*
D03*
X7500Y-287500D02*
D03*
X17500D02*
D03*
X7500Y-297500D02*
D03*
X17500D02*
D03*
X207500Y-277500D02*
D03*
X197500Y-287500D02*
D03*
X207500D02*
D03*
X197500Y-297500D02*
D03*
X207500D02*
D03*
Y-267500D02*
D03*
X197500D02*
D03*
X207500Y-257500D02*
D03*
X197500D02*
D03*
X207500Y-247500D02*
D03*
X197500D02*
D03*
X207500Y-237500D02*
D03*
X197500D02*
D03*
X207500Y-227500D02*
D03*
X197500D02*
D03*
X207500Y-217500D02*
D03*
X197500D02*
D03*
X207500Y-207500D02*
D03*
X197500D02*
D03*
X207500Y-197500D02*
D03*
X197500D02*
D03*
X207500Y-187500D02*
D03*
X197500D02*
D03*
X207500Y-177500D02*
D03*
X197500D02*
D03*
X207500Y-137500D02*
D03*
X197500D02*
D03*
X207500Y-127500D02*
D03*
X197500D02*
D03*
X207500Y-117500D02*
D03*
X197500D02*
D03*
X207500Y-107500D02*
D03*
X197500D02*
D03*
X207500Y-97500D02*
D03*
X197500D02*
D03*
X207500Y-87500D02*
D03*
X197500D02*
D03*
X207500Y-77500D02*
D03*
X197500Y-147500D02*
D03*
X207500D02*
D03*
X197500Y-157500D02*
D03*
X207500D02*
D03*
X197500Y-167500D02*
D03*
X207500D02*
D03*
X17500Y-267500D02*
D03*
X7500D02*
D03*
X17500Y-257500D02*
D03*
X7500D02*
D03*
X17500Y-247500D02*
D03*
X7500D02*
D03*
X17500Y-237500D02*
D03*
X7500D02*
D03*
X17500Y-227500D02*
D03*
X7500D02*
D03*
X17500Y-217500D02*
D03*
X7500D02*
D03*
X17500Y-207500D02*
D03*
X7500D02*
D03*
X17500Y-197500D02*
D03*
X7500D02*
D03*
X17500Y-187500D02*
D03*
X7500D02*
D03*
X17500Y-177500D02*
D03*
X7500D02*
D03*
X17500Y-137500D02*
D03*
X7500D02*
D03*
X17500Y-127500D02*
D03*
X7500D02*
D03*
X17500Y-117500D02*
D03*
X7500D02*
D03*
X17500Y-107500D02*
D03*
X7500D02*
D03*
X17500Y-97500D02*
D03*
X7500D02*
D03*
X17500Y-87500D02*
D03*
X7500D02*
D03*
X17500Y-77500D02*
D03*
X7500Y-147500D02*
D03*
X17500D02*
D03*
X7500Y-157500D02*
D03*
X17500D02*
D03*
X7500Y-167500D02*
D03*
X17500D02*
D03*
X173500Y-320000D02*
D03*
D45*
X163500D02*
D03*
D76*
X171350Y-208500D02*
D03*
X177650D02*
D03*
X171256Y-199500D02*
D03*
X177555D02*
D03*
D77*
X136000Y-295650D02*
D03*
Y-289350D02*
D03*
Y-331150D02*
D03*
Y-324850D02*
D03*
X107500Y-326150D02*
D03*
Y-319850D02*
D03*
X82500Y-286150D02*
D03*
Y-279850D02*
D03*
D79*
X105760Y-296449D02*
D03*
X109500D02*
D03*
X113240D02*
D03*
Y-287000D02*
D03*
X109500D02*
D03*
X105760D02*
D03*
Y-312724D02*
D03*
X109500D02*
D03*
X113240D02*
D03*
Y-303276D02*
D03*
X109500D02*
D03*
X105760D02*
D03*
D94*
X18000Y-320000D02*
D03*
X12500Y-17000D02*
D03*
X45500Y-277500D02*
D03*
D95*
X173500Y-101000D02*
D03*
X17000Y-54000D02*
D03*
D96*
X173500Y-91000D02*
D03*
X17000Y-64000D02*
D03*
X75500Y-74000D02*
D03*
X162500D02*
D03*
D97*
X65500D02*
D03*
X172500D02*
D03*
D98*
X151748Y-281000D02*
D03*
X148500Y-278638D02*
D03*
X145252Y-281000D02*
D03*
D99*
X148500Y-283362D02*
D03*
X85500Y-259950D02*
D03*
Y-263050D02*
D03*
X86000Y-239450D02*
D03*
Y-242550D02*
D03*
D100*
X92000Y-226500D02*
D03*
X139000Y-138500D02*
D03*
D101*
X148129Y-205011D02*
D03*
X37893D02*
D03*
D102*
X52417Y-313000D02*
D03*
D103*
X89622Y-326386D02*
D03*
Y-319693D02*
D03*
Y-313000D02*
D03*
Y-306307D02*
D03*
Y-299614D02*
D03*
D104*
X174000Y-248236D02*
D03*
Y-227764D02*
D03*
D105*
X106299Y-273500D02*
D03*
X123701D02*
D03*
D106*
X126835Y-312500D02*
D03*
X146165D02*
D03*
D107*
X92500Y-286209D02*
D03*
Y-274791D02*
D03*
D108*
X37413Y-121646D02*
D03*
Y-111646D02*
D03*
Y-101646D02*
D03*
X133913Y-121646D02*
D03*
Y-111646D02*
D03*
Y-101646D02*
D03*
D109*
X127700Y-296500D02*
D03*
X124000D02*
D03*
X120300D02*
D03*
Y-287800D02*
D03*
X124000D02*
D03*
X127700D02*
D03*
D110*
X118000Y-300500D02*
D03*
M02*
