%FSLAX25Y25*%
%MOIN*%
G70*
G01*
G75*
G04 Layer_Physical_Order=1*
G04 Layer_Color=255*
%ADD10R,0.03937X0.03740*%
%ADD11R,0.03740X0.03937*%
%ADD12R,0.02362X0.05906*%
%ADD13R,0.02559X0.04331*%
%ADD14R,0.03150X0.02362*%
%ADD15R,0.08465X0.06693*%
%ADD16O,0.00945X0.02362*%
%ADD17R,0.05906X0.07480*%
%ADD18R,0.03150X0.03150*%
%ADD19R,0.04724X0.07874*%
%ADD20O,0.02362X0.00984*%
%ADD21R,0.06300X0.05000*%
%ADD22R,0.04724X0.03937*%
%ADD23R,0.08661X0.03937*%
%ADD24R,0.04331X0.02559*%
%ADD25O,0.02362X0.06299*%
%ADD26O,0.06299X0.02362*%
%ADD27C,0.01000*%
%ADD28C,0.02000*%
%ADD29C,0.01500*%
%ADD30C,0.06300*%
%ADD31C,0.03500*%
%ADD32C,0.02200*%
%ADD33C,0.06500*%
%ADD34C,0.04500*%
%ADD35C,0.06000*%
%ADD36C,0.04000*%
%ADD37R,0.01732X0.00787*%
%ADD38C,0.06000*%
%ADD39C,0.08700*%
%ADD40R,0.05906X0.05906*%
%ADD41C,0.05906*%
%ADD42R,0.06496X0.06496*%
%ADD43C,0.06496*%
%ADD44R,0.05906X0.05906*%
%ADD45R,0.06496X0.06496*%
%ADD46C,0.02000*%
%ADD47C,0.01969*%
%ADD48C,0.05000*%
D10*
X88850Y-286150D02*
D03*
X95150D02*
D03*
X110650Y-290000D02*
D03*
X104350D02*
D03*
X146350Y-292500D02*
D03*
X152650D02*
D03*
X156799Y-267500D02*
D03*
X150500D02*
D03*
X156799Y-260500D02*
D03*
X150500D02*
D03*
X51000Y-118500D02*
D03*
X57299D02*
D03*
X117850Y-235000D02*
D03*
X124150D02*
D03*
X117701Y-227000D02*
D03*
X124000D02*
D03*
X57650Y-90500D02*
D03*
X51350D02*
D03*
X57150Y-97500D02*
D03*
X50850D02*
D03*
X57150Y-104500D02*
D03*
X50850D02*
D03*
X51000Y-111500D02*
D03*
X57299D02*
D03*
D11*
X136000Y-286150D02*
D03*
Y-279850D02*
D03*
X128500Y-279850D02*
D03*
Y-286150D02*
D03*
X152500Y-306500D02*
D03*
Y-300201D02*
D03*
X159500Y-306500D02*
D03*
Y-300201D02*
D03*
X166500Y-306500D02*
D03*
Y-300201D02*
D03*
D12*
X172740Y-193760D02*
D03*
X165260D02*
D03*
X169000Y-201240D02*
D03*
D13*
X151740Y-250724D02*
D03*
X148000D02*
D03*
X144260D02*
D03*
Y-241276D02*
D03*
X148000D02*
D03*
X151740D02*
D03*
X184980Y-307276D02*
D03*
X181240D02*
D03*
X177500D02*
D03*
Y-297827D02*
D03*
X181240D02*
D03*
X184980D02*
D03*
X117260Y-314724D02*
D03*
X121000D02*
D03*
X124740D02*
D03*
Y-305276D02*
D03*
X117260D02*
D03*
D14*
X172638Y-178500D02*
D03*
X177362D02*
D03*
X177362Y-184500D02*
D03*
X172638D02*
D03*
D15*
X148500Y-281000D02*
D03*
D16*
X144563Y-275488D02*
D03*
X146531D02*
D03*
X150469D02*
D03*
X148500D02*
D03*
X152437D02*
D03*
Y-286512D02*
D03*
X148500D02*
D03*
X150469D02*
D03*
X146531D02*
D03*
X144563D02*
D03*
D17*
X167500Y-272929D02*
D03*
Y-289071D02*
D03*
D18*
X101547Y-254500D02*
D03*
X107453D02*
D03*
X101547Y-260000D02*
D03*
X107453D02*
D03*
X101547Y-277500D02*
D03*
X107453D02*
D03*
X101547Y-283500D02*
D03*
X107453D02*
D03*
X101594Y-243500D02*
D03*
X107500D02*
D03*
X101547Y-249000D02*
D03*
X107453D02*
D03*
X101547Y-271500D02*
D03*
X107453D02*
D03*
X101547Y-265500D02*
D03*
X107453D02*
D03*
D19*
X85500Y-261500D02*
D03*
X86000Y-241000D02*
D03*
D20*
X90028Y-257563D02*
D03*
Y-259531D02*
D03*
Y-261500D02*
D03*
Y-263469D02*
D03*
Y-265437D02*
D03*
X80972D02*
D03*
Y-263469D02*
D03*
Y-261500D02*
D03*
Y-259531D02*
D03*
Y-257563D02*
D03*
X90528Y-237063D02*
D03*
Y-239032D02*
D03*
Y-241000D02*
D03*
Y-242969D02*
D03*
Y-244937D02*
D03*
X81472D02*
D03*
Y-242969D02*
D03*
Y-241000D02*
D03*
Y-239032D02*
D03*
Y-237063D02*
D03*
D21*
X107350Y-235000D02*
D03*
Y-227000D02*
D03*
D22*
X68500Y-235000D02*
D03*
D23*
X62000Y-229095D02*
D03*
Y-240905D02*
D03*
D24*
X50791Y-265240D02*
D03*
Y-261500D02*
D03*
Y-257760D02*
D03*
X60240D02*
D03*
Y-261500D02*
D03*
Y-265240D02*
D03*
D25*
X138996Y-217244D02*
D03*
X135059D02*
D03*
X131122D02*
D03*
X127185D02*
D03*
X123248D02*
D03*
X119311D02*
D03*
X115374D02*
D03*
X111437D02*
D03*
X107500D02*
D03*
X103563D02*
D03*
X99626D02*
D03*
X95689D02*
D03*
X91752D02*
D03*
X87815D02*
D03*
X83878D02*
D03*
X79941D02*
D03*
X76004D02*
D03*
Y-122756D02*
D03*
X79941D02*
D03*
X83878D02*
D03*
X87815D02*
D03*
X91752D02*
D03*
X95689D02*
D03*
X99626D02*
D03*
X103563D02*
D03*
X107500D02*
D03*
X111437D02*
D03*
X115374D02*
D03*
X119311D02*
D03*
X123248D02*
D03*
X127185D02*
D03*
X131122D02*
D03*
X135059D02*
D03*
X138996D02*
D03*
D26*
X60256Y-201496D02*
D03*
Y-197559D02*
D03*
Y-193622D02*
D03*
Y-189685D02*
D03*
Y-185748D02*
D03*
Y-181811D02*
D03*
Y-177874D02*
D03*
Y-173937D02*
D03*
Y-170000D02*
D03*
Y-166063D02*
D03*
Y-162126D02*
D03*
Y-158189D02*
D03*
Y-154252D02*
D03*
Y-150315D02*
D03*
Y-146378D02*
D03*
Y-142441D02*
D03*
Y-138504D02*
D03*
X154744D02*
D03*
Y-142441D02*
D03*
Y-146378D02*
D03*
Y-150315D02*
D03*
Y-154252D02*
D03*
Y-158189D02*
D03*
Y-162126D02*
D03*
Y-166063D02*
D03*
Y-170000D02*
D03*
Y-173937D02*
D03*
Y-177874D02*
D03*
Y-181811D02*
D03*
Y-185748D02*
D03*
Y-189685D02*
D03*
Y-193622D02*
D03*
Y-197559D02*
D03*
Y-201496D02*
D03*
D27*
X129500Y-309965D02*
Y-304500D01*
X124740Y-314724D02*
X129500Y-309965D01*
X99500Y-290000D02*
X104350D01*
X215000Y-340000D02*
Y0D01*
X0D02*
X215000D01*
X0Y-340000D02*
Y0D01*
Y-340000D02*
X215000D01*
X99500Y-249000D02*
X101547D01*
X93500Y-243000D02*
X99500Y-249000D01*
X90559Y-243000D02*
X93500D01*
X78500Y-242969D02*
X81472D01*
X99000Y-254500D02*
X101547D01*
X94500Y-250000D02*
X99000Y-254500D01*
X81500Y-250000D02*
X94500D01*
X78500Y-247000D02*
X81500Y-250000D01*
X78500Y-247000D02*
Y-242969D01*
X76000Y-248500D02*
X80000Y-252500D01*
X76000Y-248500D02*
Y-241000D01*
X81472D01*
X93516Y-263469D02*
X101547Y-271500D01*
X90028Y-263469D02*
X93516D01*
X96547Y-272500D02*
X101547Y-277500D01*
X82000Y-272500D02*
X96547D01*
X78000Y-268500D02*
X82000Y-272500D01*
X78000Y-268500D02*
Y-263469D01*
X80972D01*
X93547Y-275500D02*
X101547Y-283500D01*
X80500Y-275500D02*
X93547D01*
X75000Y-270000D02*
X80500Y-275500D01*
X75000Y-270000D02*
Y-261500D01*
X80972D01*
X99094Y-241000D02*
X101594Y-243500D01*
X90528Y-241000D02*
X99094D01*
X136362Y-286512D02*
X144563D01*
X150469Y-290319D02*
Y-286512D01*
Y-290319D02*
X152650Y-292500D01*
X146350D02*
X148500Y-290350D01*
Y-286512D01*
X134850Y-292500D02*
X146350D01*
X128500Y-286150D02*
X134850Y-292500D01*
X128500Y-279850D02*
X132862Y-275488D01*
X144563D01*
X150469D02*
Y-267531D01*
X152437Y-286512D02*
X164941D01*
X167500Y-289071D01*
X164941Y-275488D02*
X167500Y-272929D01*
X152437Y-275488D02*
X164941D01*
X152650Y-300051D02*
Y-292500D01*
X166500Y-300201D02*
X170425D01*
X177500Y-307276D01*
X152650Y-300051D02*
X152799Y-300201D01*
X159500D01*
X166500D01*
X90528Y-239032D02*
X101031D01*
X102000Y-240000D01*
X112000D01*
X122724Y-250724D01*
X177500Y-297827D02*
Y-259000D01*
X155000Y-236500D02*
X177500Y-259000D01*
X144260Y-236500D02*
X155000D01*
X144260Y-241276D02*
Y-236500D01*
X135059Y-122756D02*
Y-118000D01*
X152059Y-101000D01*
X173500D01*
X131122Y-122756D02*
Y-118378D01*
X158500Y-91000D01*
X173500D01*
X127185Y-122756D02*
Y-119315D01*
X172500Y-74000D01*
X123248Y-122756D02*
Y-119252D01*
X162500Y-80000D01*
Y-74000D01*
X103563Y-122756D02*
Y-110563D01*
X75500Y-82500D02*
X103563Y-110563D01*
X75500Y-82500D02*
Y-74000D01*
X99626Y-122756D02*
Y-113626D01*
X65500Y-79500D02*
X99626Y-113626D01*
X65500Y-79500D02*
Y-74000D01*
X91752Y-122756D02*
Y-110752D01*
X71500Y-90500D02*
X91752Y-110752D01*
X57650Y-90500D02*
X71500D01*
X87815Y-122756D02*
Y-113315D01*
X79000Y-104500D02*
X87815Y-113315D01*
X83878Y-122756D02*
Y-114378D01*
X81000Y-111500D02*
X83878Y-114378D01*
X57299Y-111500D02*
X81000D01*
X79941Y-122756D02*
Y-119441D01*
X79000Y-118500D02*
X79941Y-119441D01*
X57299Y-118500D02*
X79000D01*
X68500Y-235000D02*
X72500Y-231000D01*
X103350D01*
X107350Y-235000D01*
X76500Y-235500D02*
X80032Y-239032D01*
X81472D01*
Y-237063D02*
X85035Y-233500D01*
X95000D01*
X96500Y-235000D01*
X48000Y-78500D02*
X57650Y-88150D01*
Y-90500D02*
Y-88150D01*
X51000Y-129500D02*
Y-118500D01*
X202500Y-132500D02*
X207500Y-127500D01*
X184000Y-132500D02*
X202500D01*
X177362Y-139138D02*
X184000Y-132500D01*
X177362Y-184500D02*
Y-178500D01*
Y-139138D01*
X76500Y-257563D02*
Y-251500D01*
Y-257563D02*
X80972D01*
X98000Y-265500D02*
X101547D01*
X94000Y-261500D02*
X98000Y-265500D01*
X90028Y-261500D02*
X94000D01*
X94500Y-252500D02*
X101774Y-259774D01*
X80000Y-252500D02*
X94500D01*
X90028Y-259531D02*
X93468D01*
X94500Y-258500D01*
X51000Y-257551D02*
Y-253000D01*
X37500Y-129500D02*
Y-125000D01*
X51000Y-111500D01*
X128500Y-250724D02*
Y-244000D01*
X122724Y-250724D02*
X128500D01*
X144260D01*
X45500Y-257760D02*
X50791D01*
X45500Y-277500D02*
Y-257760D01*
X128500Y-260500D02*
Y-250724D01*
Y-260500D02*
X134000Y-266000D01*
X146531Y-275488D02*
Y-273532D01*
X142000Y-269000D02*
X146531Y-273532D01*
X107500Y-243500D02*
X111500D01*
X115500Y-247500D01*
X107453Y-249000D02*
X112500D01*
X115500Y-252000D01*
Y-261000D02*
Y-252000D01*
Y-247500D01*
X107453Y-254500D02*
X109000D01*
X115500Y-261000D01*
X107453Y-260000D02*
X108453Y-261000D01*
X115500D01*
X107453Y-265500D02*
X111000D01*
X115500Y-261000D01*
X107453Y-271500D02*
X111500D01*
X115500Y-267500D01*
Y-261000D01*
X107453Y-283500D02*
X112000D01*
X115500Y-280000D01*
X107453Y-277500D02*
X111500D01*
X115500Y-273500D01*
Y-280000D02*
Y-273500D01*
Y-267500D01*
X81472Y-244937D02*
X83613D01*
X86000Y-242550D01*
X146531Y-286512D02*
Y-282968D01*
X70000Y-245000D02*
X76500Y-251500D01*
X70000Y-245000D02*
Y-243500D01*
X57150Y-104500D02*
X79000D01*
X57150D02*
Y-97500D01*
X43000Y-104500D02*
Y-94000D01*
Y-104500D02*
X50850D01*
X52000Y-235000D02*
X57906Y-240905D01*
X52000Y-235000D02*
X57906Y-229095D01*
Y-240905D02*
X62000D01*
X57906Y-229095D02*
X62000D01*
X80972Y-265437D02*
X83113D01*
X85500Y-263050D01*
X148500Y-278638D02*
Y-275488D01*
X74468Y-259531D02*
X80972D01*
X70500Y-263500D02*
X74468Y-259531D01*
X59031Y-263500D02*
X70500D01*
D28*
X88850Y-286150D02*
X96701Y-294000D01*
X116500D01*
X119000Y-286000D02*
Y-282000D01*
Y-286000D02*
X128000Y-295000D01*
Y-302016D02*
Y-295000D01*
X124740Y-305276D02*
X128000Y-302016D01*
X68000Y-292000D02*
X73000Y-297000D01*
X119000D01*
X121000Y-299000D01*
Y-314724D02*
Y-299000D01*
Y-319500D02*
Y-314724D01*
Y-319500D02*
X133000D01*
Y-301500D01*
X112000Y-305276D02*
X117260D01*
X112000Y-317500D02*
Y-305276D01*
Y-317500D02*
X119000Y-324500D01*
X127500D01*
X107500Y-226850D02*
Y-217244D01*
Y-226850D02*
X117551D01*
X107350Y-235000D02*
X117850D01*
X168244Y-201496D02*
X168500Y-201240D01*
X154744Y-201496D02*
X168244D01*
X60240Y-257760D02*
X65760D01*
X76004Y-222000D02*
Y-217244D01*
X70000Y-222000D02*
X76004D01*
X165000Y-178500D02*
X172638D01*
X165000Y-193760D02*
X165260D01*
X165000D02*
Y-178500D01*
Y-173500D01*
X136000Y-281000D02*
Y-279850D01*
Y-281000D02*
X145252D01*
X60256Y-154500D02*
Y-154252D01*
Y-154500D02*
X74000D01*
X95500Y-122756D02*
X95689D01*
X95500Y-134500D02*
Y-122756D01*
X139000Y-138500D02*
X154744D01*
X139000D02*
Y-122756D01*
X47850Y-87500D02*
X50850Y-90500D01*
X45000Y-87500D02*
X47850D01*
X50850Y-97500D02*
Y-90500D01*
X133000Y-301500D02*
X143500D01*
X147000Y-298000D01*
X173000Y-296000D02*
X174827Y-297827D01*
X177500D01*
X29000Y-97500D02*
X32000D01*
Y-300500D02*
Y-97500D01*
Y-300500D02*
X118000D01*
X65760Y-257760D02*
X67500Y-259500D01*
X68000Y-292000D02*
Y-268500D01*
D29*
X95150Y-286150D02*
X95500Y-286500D01*
X113000D01*
X116500Y-290000D01*
X110650D02*
X116500D01*
D30*
X52031Y-263500D02*
X59031D01*
X150000Y-250000D02*
Y-242000D01*
X7500Y-97500D02*
X17500D01*
X29000D01*
X36000Y-90500D01*
Y-40500D01*
X12500Y-17000D02*
X36000Y-40500D01*
X182980Y-329000D02*
Y-299000D01*
D31*
X150000Y-250000D02*
X150500Y-250500D01*
Y-267500D02*
Y-260500D01*
Y-250500D01*
D32*
X172740Y-193760D02*
Y-184602D01*
D33*
X90000Y-217244D02*
X93500D01*
X60000Y-180000D02*
X69500D01*
D34*
X7500Y-87500D02*
X17500D01*
X27500D01*
Y-64000D01*
X17000D02*
X27500D01*
X100500Y-217244D02*
X102500D01*
X17000Y-64000D02*
Y-54000D01*
D35*
X113500Y-217244D02*
X115374D01*
X117500D01*
X119311D01*
X123248D01*
X124744D01*
X117500Y-217500D02*
Y-217244D01*
Y-207500D01*
X82000Y-217500D02*
Y-205500D01*
X125000Y-217500D02*
Y-207500D01*
X92000Y-226500D02*
Y-217244D01*
D36*
X123248D02*
X124150Y-218146D01*
Y-235000D02*
Y-218146D01*
X156799Y-267500D02*
Y-260500D01*
Y-254701D01*
X166500Y-306500D02*
X168000D01*
X173000Y-311500D01*
X152500Y-306500D02*
X159500D01*
X166500D01*
X95319Y-209000D02*
X102500Y-217244D01*
X7500Y-107500D02*
X17500D01*
X26500D01*
Y-331000D02*
Y-107500D01*
Y-331000D02*
X180980D01*
X182980Y-329000D01*
D37*
X153539Y-278638D02*
D03*
X153539Y-280213D02*
D03*
Y-281787D02*
D03*
X153539Y-283363D02*
D03*
X143461D02*
D03*
X143460Y-281787D02*
D03*
Y-280213D02*
D03*
X143461Y-278638D02*
D03*
D38*
X53500Y-7800D02*
D03*
Y-70200D02*
D03*
D39*
X18000Y-320000D02*
D03*
X12500Y-17000D02*
D03*
X45500Y-277500D02*
D03*
D40*
X173500Y-101000D02*
D03*
X17000Y-54000D02*
D03*
D41*
X173500Y-91000D02*
D03*
X17000Y-64000D02*
D03*
X75500Y-74000D02*
D03*
X162500D02*
D03*
D42*
X7500Y-277500D02*
D03*
X197500D02*
D03*
Y-77500D02*
D03*
X7500D02*
D03*
D43*
X17500Y-277500D02*
D03*
X7500Y-287500D02*
D03*
X17500D02*
D03*
X7500Y-297500D02*
D03*
X17500D02*
D03*
X207500Y-277500D02*
D03*
X197500Y-287500D02*
D03*
X207500D02*
D03*
X197500Y-297500D02*
D03*
X207500D02*
D03*
Y-267500D02*
D03*
X197500D02*
D03*
X207500Y-257500D02*
D03*
X197500D02*
D03*
X207500Y-247500D02*
D03*
X197500D02*
D03*
X207500Y-237500D02*
D03*
X197500D02*
D03*
X207500Y-227500D02*
D03*
X197500D02*
D03*
X207500Y-217500D02*
D03*
X197500D02*
D03*
X207500Y-207500D02*
D03*
X197500D02*
D03*
X207500Y-197500D02*
D03*
X197500D02*
D03*
X207500Y-187500D02*
D03*
X197500D02*
D03*
X207500Y-177500D02*
D03*
X197500D02*
D03*
X207500Y-137500D02*
D03*
X197500D02*
D03*
X207500Y-127500D02*
D03*
X197500D02*
D03*
X207500Y-117500D02*
D03*
X197500D02*
D03*
X207500Y-107500D02*
D03*
X197500D02*
D03*
X207500Y-97500D02*
D03*
X197500D02*
D03*
X207500Y-87500D02*
D03*
X197500D02*
D03*
X207500Y-77500D02*
D03*
X197500Y-147500D02*
D03*
X207500D02*
D03*
X197500Y-157500D02*
D03*
X207500D02*
D03*
X197500Y-167500D02*
D03*
X207500D02*
D03*
X17500Y-267500D02*
D03*
X7500D02*
D03*
X17500Y-257500D02*
D03*
X7500D02*
D03*
X17500Y-247500D02*
D03*
X7500D02*
D03*
X17500Y-237500D02*
D03*
X7500D02*
D03*
X17500Y-227500D02*
D03*
X7500D02*
D03*
X17500Y-217500D02*
D03*
X7500D02*
D03*
X17500Y-207500D02*
D03*
X7500D02*
D03*
X17500Y-197500D02*
D03*
X7500D02*
D03*
X17500Y-187500D02*
D03*
X7500D02*
D03*
X17500Y-177500D02*
D03*
X7500D02*
D03*
X17500Y-137500D02*
D03*
X7500D02*
D03*
X17500Y-127500D02*
D03*
X7500D02*
D03*
X17500Y-117500D02*
D03*
X7500D02*
D03*
X17500Y-107500D02*
D03*
X7500D02*
D03*
X17500Y-97500D02*
D03*
X7500D02*
D03*
X17500Y-87500D02*
D03*
X7500D02*
D03*
X17500Y-77500D02*
D03*
X7500Y-147500D02*
D03*
X17500D02*
D03*
X7500Y-157500D02*
D03*
X17500D02*
D03*
X7500Y-167500D02*
D03*
X17500D02*
D03*
X173500Y-320000D02*
D03*
D44*
X65500Y-74000D02*
D03*
X172500D02*
D03*
D45*
X163500Y-320000D02*
D03*
D46*
X129500Y-304500D02*
D03*
X99500Y-290000D02*
D03*
X116500Y-294000D02*
D03*
Y-290000D02*
D03*
X94500Y-258500D02*
D03*
X51000Y-253000D02*
D03*
X133000Y-301500D02*
D03*
X147000Y-298000D02*
D03*
X173000Y-296000D02*
D03*
X124000Y-300500D02*
D03*
X118000D02*
D03*
D47*
X151748Y-281000D02*
D03*
X148500Y-278638D02*
D03*
X145252Y-281000D02*
D03*
X148500Y-283362D02*
D03*
X85500Y-259950D02*
D03*
Y-263050D02*
D03*
X86000Y-239450D02*
D03*
Y-242550D02*
D03*
D48*
X142000Y-269000D02*
D03*
X128500Y-244000D02*
D03*
X96500Y-235000D02*
D03*
X76500Y-235500D02*
D03*
X48000Y-78500D02*
D03*
X51000Y-129500D02*
D03*
X37500D02*
D03*
X43000Y-94000D02*
D03*
X67500Y-259500D02*
D03*
X70000Y-222000D02*
D03*
Y-243500D02*
D03*
X92000Y-226500D02*
D03*
X134000Y-266000D02*
D03*
X115500Y-261000D02*
D03*
X52000Y-235000D02*
D03*
X125000Y-207500D02*
D03*
X117500D02*
D03*
X82000Y-205500D02*
D03*
X156799Y-254701D02*
D03*
X173000Y-311500D02*
D03*
X165000Y-173500D02*
D03*
X69500Y-180000D02*
D03*
X74000Y-154500D02*
D03*
X95500Y-134500D02*
D03*
X139000Y-138500D02*
D03*
X45000Y-87500D02*
D03*
X95319Y-209000D02*
D03*
X76000Y-313000D02*
D03*
X75500Y-280000D02*
D03*
X186000Y-204000D02*
D03*
X134000Y-94000D02*
D03*
X68000Y-268500D02*
D03*
X119000Y-282000D02*
D03*
X127500Y-324500D02*
D03*
M02*
