%FSLAX25Y25*%
%MOIN*%
G70*
G01*
G75*
G04 Layer_Color=9021481*
%ADD10R,0.03937X0.03740*%
%ADD11O,0.06299X0.02362*%
%ADD12O,0.02362X0.06299*%
%ADD13R,0.03150X0.02362*%
%ADD14R,0.08661X0.03937*%
%ADD15R,0.04724X0.03937*%
%ADD16O,0.02362X0.00984*%
%ADD17R,0.04724X0.07874*%
%ADD18R,0.03150X0.03150*%
%ADD19R,0.06300X0.05000*%
%ADD20R,0.05906X0.07480*%
%ADD21O,0.00945X0.02362*%
%ADD22R,0.08465X0.06693*%
%ADD23R,0.03740X0.03937*%
%ADD24R,0.02362X0.05906*%
%ADD25C,0.04500*%
%ADD26C,0.03500*%
%ADD27C,0.02000*%
%ADD28C,0.01000*%
%ADD29C,0.06300*%
%ADD30C,0.04000*%
%ADD31C,0.06500*%
%ADD32C,0.06000*%
%ADD33C,0.02200*%
%ADD34R,0.01732X0.00787*%
%ADD35C,0.06000*%
%ADD36O,0.16929X0.06693*%
%ADD37O,0.05906X0.14961*%
%ADD38O,0.14961X0.05906*%
%ADD39C,0.05906*%
%ADD40R,0.05906X0.05906*%
%ADD41C,0.08700*%
%ADD42C,0.06496*%
%ADD43R,0.06496X0.06496*%
%ADD44R,0.05906X0.05906*%
%ADD45C,0.05000*%
%ADD46C,0.02000*%
%ADD47C,0.01969*%
%ADD48R,0.11024X0.03937*%
%ADD49R,0.07284X0.05118*%
%ADD50R,0.07717X0.12402*%
%ADD51R,0.08500X0.10799*%
%ADD52R,0.20866X0.06299*%
%ADD53R,0.12598X0.04134*%
%ADD54R,0.32677X0.41142*%
%ADD55R,0.20079X0.70079*%
%ADD56C,0.01500*%
%ADD57C,0.00799*%
%ADD58C,0.00984*%
%ADD59C,0.00700*%
%ADD60C,0.00701*%
%ADD61C,0.00787*%
%ADD62C,0.00669*%
%ADD63C,0.00800*%
%ADD64C,0.00600*%
%ADD65R,0.00886X0.03937*%
%ADD66R,0.04000X0.02000*%
%ADD67R,0.02000X0.04000*%
%ADD68R,0.10350X0.01000*%
%ADD69R,0.01000X0.11000*%
%ADD70R,0.04433X0.07043*%
%ADD71R,0.02362X0.02756*%
%ADD72R,0.03839X0.06102*%
%ADD73R,0.00000X0.03150*%
%ADD74R,0.00000X0.00000*%
D10*
X57299Y-111500D02*
D03*
X51000D02*
D03*
X50850Y-104500D02*
D03*
X57150D02*
D03*
X50850Y-97500D02*
D03*
X57150D02*
D03*
X51350Y-90500D02*
D03*
X57650D02*
D03*
X124000Y-227000D02*
D03*
X117701D02*
D03*
X124150Y-235000D02*
D03*
X117850D02*
D03*
X57299Y-118500D02*
D03*
X51000D02*
D03*
X150500Y-260500D02*
D03*
X156799D02*
D03*
X150500Y-267500D02*
D03*
X156799D02*
D03*
X152650Y-292500D02*
D03*
X146350D02*
D03*
D11*
X154744Y-201496D02*
D03*
Y-197559D02*
D03*
Y-193622D02*
D03*
Y-189685D02*
D03*
Y-185748D02*
D03*
Y-181811D02*
D03*
Y-177874D02*
D03*
Y-173937D02*
D03*
Y-170000D02*
D03*
Y-166063D02*
D03*
Y-162126D02*
D03*
Y-158189D02*
D03*
Y-154252D02*
D03*
Y-150315D02*
D03*
Y-146378D02*
D03*
Y-142441D02*
D03*
Y-138504D02*
D03*
X60256D02*
D03*
Y-142441D02*
D03*
Y-146378D02*
D03*
Y-150315D02*
D03*
Y-154252D02*
D03*
Y-158189D02*
D03*
Y-162126D02*
D03*
Y-166063D02*
D03*
Y-170000D02*
D03*
Y-173937D02*
D03*
Y-177874D02*
D03*
Y-181811D02*
D03*
Y-185748D02*
D03*
Y-189685D02*
D03*
Y-193622D02*
D03*
Y-197559D02*
D03*
Y-201496D02*
D03*
D12*
X138996Y-122756D02*
D03*
X135059D02*
D03*
X131122D02*
D03*
X127185D02*
D03*
X123248D02*
D03*
X119311D02*
D03*
X115374D02*
D03*
X111437D02*
D03*
X107500D02*
D03*
X103563D02*
D03*
X99626D02*
D03*
X95689D02*
D03*
X91752D02*
D03*
X87815D02*
D03*
X83878D02*
D03*
X79941D02*
D03*
X76004D02*
D03*
Y-217244D02*
D03*
X79941D02*
D03*
X83878D02*
D03*
X87815D02*
D03*
X91752D02*
D03*
X95689D02*
D03*
X99626D02*
D03*
X103563D02*
D03*
X107500D02*
D03*
X111437D02*
D03*
X115374D02*
D03*
X119311D02*
D03*
X123248D02*
D03*
X127185D02*
D03*
X131122D02*
D03*
X135059D02*
D03*
X138996D02*
D03*
D13*
X172638Y-184500D02*
D03*
X177362D02*
D03*
X177362Y-178500D02*
D03*
X172638D02*
D03*
D14*
X62000Y-240905D02*
D03*
Y-229095D02*
D03*
D15*
X68500Y-235000D02*
D03*
D16*
X81472Y-237063D02*
D03*
Y-239032D02*
D03*
Y-241000D02*
D03*
Y-242969D02*
D03*
Y-244937D02*
D03*
X90528D02*
D03*
Y-242969D02*
D03*
Y-241000D02*
D03*
Y-239032D02*
D03*
Y-237063D02*
D03*
X80972Y-257563D02*
D03*
Y-259531D02*
D03*
Y-261500D02*
D03*
Y-263469D02*
D03*
Y-265437D02*
D03*
X90028D02*
D03*
Y-263469D02*
D03*
Y-261500D02*
D03*
Y-259531D02*
D03*
Y-257563D02*
D03*
D18*
X107453Y-249000D02*
D03*
X101547D02*
D03*
X107500Y-243500D02*
D03*
X101594D02*
D03*
X107453Y-260000D02*
D03*
X101547D02*
D03*
X107453Y-254500D02*
D03*
X101547D02*
D03*
D19*
X107350Y-227000D02*
D03*
Y-235000D02*
D03*
D20*
X167500Y-289071D02*
D03*
Y-272929D02*
D03*
D21*
X144563Y-286512D02*
D03*
X146531D02*
D03*
X150469D02*
D03*
X148500D02*
D03*
X152437D02*
D03*
Y-275488D02*
D03*
X148500D02*
D03*
X150469D02*
D03*
X146531D02*
D03*
X144563D02*
D03*
D23*
X166500Y-300201D02*
D03*
Y-306500D02*
D03*
X159500Y-300201D02*
D03*
Y-306500D02*
D03*
X152500Y-300201D02*
D03*
Y-306500D02*
D03*
X128500Y-286150D02*
D03*
Y-279850D02*
D03*
X136000Y-279850D02*
D03*
Y-286150D02*
D03*
D24*
X169000Y-201240D02*
D03*
X165260Y-193760D02*
D03*
X172740D02*
D03*
D70*
X86000Y-241000D02*
D03*
X85500Y-261500D02*
D03*
D71*
X107650Y-265500D02*
D03*
X101350D02*
D03*
X107650Y-271500D02*
D03*
X101350D02*
D03*
X107650Y-283500D02*
D03*
X101350D02*
D03*
X107650Y-277500D02*
D03*
X101350D02*
D03*
D72*
X150808Y-281004D02*
D03*
X146182D02*
D03*
D73*
X86000Y-241000D02*
D03*
X85500Y-261500D02*
D03*
D74*
X107453Y-265500D02*
D03*
X101547D02*
D03*
X107453Y-271500D02*
D03*
X101547D02*
D03*
X107453Y-283500D02*
D03*
X101547D02*
D03*
X107453Y-277500D02*
D03*
X101547D02*
D03*
M02*
