%FSLAX25Y25*%
%MOIN*%
G70*
G01*
G75*
%ADD10R,0.03937X0.03740*%
%ADD11O,0.06299X0.02362*%
%ADD12O,0.02362X0.06299*%
%ADD13R,0.03150X0.02362*%
%ADD14R,0.08661X0.03937*%
%ADD15R,0.04724X0.03937*%
%ADD16O,0.02362X0.00984*%
%ADD17R,0.04724X0.07874*%
%ADD18R,0.03150X0.03150*%
%ADD19R,0.06300X0.05000*%
%ADD20R,0.05906X0.07480*%
%ADD21O,0.00945X0.02362*%
%ADD22R,0.08465X0.06693*%
%ADD23R,0.03740X0.03937*%
%ADD24R,0.02362X0.05906*%
%ADD25C,0.04500*%
%ADD26C,0.03500*%
%ADD27C,0.02000*%
%ADD28C,0.01000*%
%ADD29C,0.06300*%
%ADD30C,0.04000*%
%ADD31C,0.06500*%
%ADD32C,0.06000*%
%ADD33C,0.02200*%
%ADD34R,0.01732X0.00787*%
%ADD35C,0.06000*%
%ADD36O,0.16929X0.06693*%
%ADD37O,0.05906X0.14961*%
%ADD38O,0.14961X0.05906*%
%ADD39C,0.05906*%
%ADD40R,0.05906X0.05906*%
%ADD41C,0.08700*%
%ADD42C,0.06496*%
%ADD43R,0.06496X0.06496*%
%ADD44R,0.05906X0.05906*%
%ADD45C,0.05000*%
%ADD46C,0.02000*%
%ADD47C,0.01969*%
%ADD48R,0.11024X0.03937*%
%ADD49R,0.07284X0.05118*%
%ADD50R,0.07717X0.12402*%
%ADD51R,0.08500X0.10799*%
%ADD52R,0.20866X0.06299*%
%ADD53R,0.12598X0.04134*%
%ADD54R,0.32677X0.41142*%
%ADD55R,0.20079X0.70079*%
%ADD56C,0.01500*%
%ADD57C,0.00799*%
%ADD58C,0.00984*%
%ADD59C,0.00700*%
%ADD60C,0.00701*%
%ADD61C,0.00787*%
%ADD62C,0.00669*%
%ADD63C,0.00800*%
%ADD64C,0.00600*%
%ADD65R,0.00886X0.03937*%
%ADD66R,0.04000X0.02000*%
%ADD67R,0.02000X0.04000*%
%ADD68R,0.10350X0.01000*%
%ADD69R,0.01000X0.11000*%
G36*
X78694Y-93030D02*
X79857D01*
Y-93102D01*
X79785D01*
Y-93466D01*
X79712D01*
Y-93829D01*
X79639D01*
Y-94193D01*
X79566D01*
Y-94556D01*
X79494D01*
Y-94920D01*
X79421D01*
Y-95211D01*
X78185D01*
Y-95429D01*
X78113D01*
Y-95792D01*
X78040D01*
Y-96156D01*
X77967D01*
Y-96519D01*
X77894D01*
Y-96883D01*
X77822D01*
Y-97246D01*
X78985D01*
Y-97537D01*
X78912D01*
Y-97901D01*
X78839D01*
Y-98264D01*
X78767D01*
Y-98628D01*
X78694D01*
Y-98991D01*
X78621D01*
Y-99355D01*
X78549D01*
Y-99718D01*
X78476D01*
Y-100082D01*
X78403D01*
Y-100445D01*
X78331D01*
Y-100809D01*
X78258D01*
Y-101172D01*
X78185D01*
Y-101754D01*
X78258D01*
Y-101972D01*
X78331D01*
Y-102117D01*
X78403D01*
Y-102190D01*
X78476D01*
Y-102263D01*
X78549D01*
Y-102335D01*
X78694D01*
Y-102408D01*
X78839D01*
Y-102481D01*
X79130D01*
Y-102553D01*
X79566D01*
Y-102626D01*
X82402D01*
Y-102408D01*
X82474D01*
Y-102044D01*
X82547D01*
Y-101681D01*
X82620D01*
Y-101318D01*
X82693D01*
Y-100954D01*
X82765D01*
Y-100591D01*
X82838D01*
Y-100445D01*
X81893D01*
Y-100372D01*
X81748D01*
Y-100300D01*
X81675D01*
Y-99645D01*
X81748D01*
Y-99355D01*
X81820D01*
Y-98991D01*
X81893D01*
Y-98628D01*
X81966D01*
Y-98264D01*
X82038D01*
Y-97901D01*
X82111D01*
Y-97537D01*
X82184D01*
Y-97246D01*
X83492D01*
Y-96883D01*
X83565D01*
Y-96519D01*
X83638D01*
Y-96156D01*
X83710D01*
Y-95792D01*
X83783D01*
Y-95429D01*
X83856D01*
Y-95211D01*
X82620D01*
Y-94993D01*
X82693D01*
Y-94629D01*
X82765D01*
Y-94266D01*
X82838D01*
Y-93902D01*
X82911D01*
Y-93539D01*
X82983D01*
Y-93175D01*
X83056D01*
Y-93030D01*
X86546D01*
Y-95502D01*
X86618D01*
Y-95865D01*
X86691D01*
Y-96156D01*
X86764D01*
Y-96301D01*
X86836D01*
Y-96447D01*
X86909D01*
Y-96592D01*
X86982D01*
Y-96665D01*
X87055D01*
Y-96810D01*
X87127D01*
Y-96883D01*
X87200D01*
Y-96956D01*
X87273D01*
Y-97028D01*
X87345D01*
Y-97101D01*
X87491D01*
Y-97174D01*
X87564D01*
Y-100736D01*
X87418D01*
Y-100809D01*
X87200D01*
Y-100881D01*
X86909D01*
Y-100954D01*
X86691D01*
Y-101027D01*
X86473D01*
Y-101099D01*
X86255D01*
Y-101172D01*
X86110D01*
Y-101245D01*
X85891D01*
Y-101318D01*
X85746D01*
Y-101390D01*
X85601D01*
Y-101463D01*
X85455D01*
Y-101536D01*
X85310D01*
Y-101608D01*
X85164D01*
Y-101681D01*
X85019D01*
Y-101754D01*
X84874D01*
Y-101826D01*
X84801D01*
Y-101899D01*
X84655D01*
Y-101972D01*
X84510D01*
Y-102044D01*
X84437D01*
Y-102117D01*
X84365D01*
Y-102190D01*
X84219D01*
Y-102263D01*
X84147D01*
Y-102335D01*
X84074D01*
Y-102408D01*
X83928D01*
Y-102481D01*
X83856D01*
Y-102553D01*
X83783D01*
Y-102626D01*
X83710D01*
Y-102699D01*
X83638D01*
Y-102771D01*
X83565D01*
Y-102844D01*
X83492D01*
Y-102917D01*
X83420D01*
Y-102990D01*
X83347D01*
Y-103062D01*
X83274D01*
Y-103135D01*
X83201D01*
Y-103208D01*
X83129D01*
Y-103353D01*
X83056D01*
Y-103426D01*
X82983D01*
Y-103498D01*
X82911D01*
Y-103644D01*
X82838D01*
Y-103717D01*
X82765D01*
Y-103862D01*
X82693D01*
Y-104007D01*
X82620D01*
Y-104153D01*
X82547D01*
Y-104298D01*
X82474D01*
Y-104516D01*
X82402D01*
Y-104807D01*
X82329D01*
Y-105898D01*
X82402D01*
Y-106261D01*
X82474D01*
Y-106552D01*
X82547D01*
Y-106770D01*
X82620D01*
Y-106915D01*
X82693D01*
Y-107061D01*
X82547D01*
Y-107133D01*
X82329D01*
Y-107206D01*
X81966D01*
Y-107279D01*
X81166D01*
Y-107206D01*
X80802D01*
Y-107133D01*
X80584D01*
Y-107061D01*
X80366D01*
Y-106988D01*
X80221D01*
Y-106915D01*
X80075D01*
Y-106843D01*
X80003D01*
Y-106770D01*
X79857D01*
Y-106697D01*
X79785D01*
Y-106625D01*
X79639D01*
Y-106552D01*
X79566D01*
Y-106479D01*
X79494D01*
Y-106406D01*
X79348D01*
Y-106334D01*
X79276D01*
Y-106261D01*
X79203D01*
Y-106188D01*
X79130D01*
Y-106116D01*
X79058D01*
Y-106043D01*
X78985D01*
Y-105970D01*
X78912D01*
Y-105898D01*
X78839D01*
Y-105752D01*
X78767D01*
Y-105680D01*
X78694D01*
Y-105607D01*
X78621D01*
Y-105534D01*
X78549D01*
Y-105389D01*
X78476D01*
Y-105316D01*
X78403D01*
Y-105171D01*
X78331D01*
Y-105025D01*
X78258D01*
Y-104953D01*
X78185D01*
Y-104807D01*
X78113D01*
Y-104662D01*
X78040D01*
Y-104516D01*
X77967D01*
Y-104371D01*
X77894D01*
Y-104226D01*
X77822D01*
Y-104080D01*
X77749D01*
Y-103935D01*
X77676D01*
Y-103789D01*
X77604D01*
Y-103644D01*
X77531D01*
Y-103498D01*
X77458D01*
Y-103280D01*
X77385D01*
Y-103135D01*
X77313D01*
Y-102990D01*
X77240D01*
Y-102844D01*
X77167D01*
Y-102699D01*
X77095D01*
Y-102553D01*
X77022D01*
Y-102408D01*
X76949D01*
Y-102263D01*
X76876D01*
Y-102117D01*
X76804D01*
Y-101972D01*
X76731D01*
Y-101826D01*
X76658D01*
Y-101754D01*
X76586D01*
Y-101608D01*
X76513D01*
Y-101536D01*
X76440D01*
Y-101463D01*
X76368D01*
Y-101390D01*
X76295D01*
Y-101318D01*
X76222D01*
Y-101245D01*
X76149D01*
Y-101172D01*
X76077D01*
Y-101099D01*
X75931D01*
Y-101027D01*
X75641D01*
Y-100954D01*
X75495D01*
Y-101027D01*
X75132D01*
Y-101099D01*
X74986D01*
Y-101172D01*
X74841D01*
Y-101245D01*
X74768D01*
Y-101318D01*
X74696D01*
Y-101390D01*
X74623D01*
Y-101463D01*
X74550D01*
Y-101536D01*
X74477D01*
Y-101608D01*
X74405D01*
Y-101681D01*
X74332D01*
Y-101754D01*
X74259D01*
Y-101826D01*
X74187D01*
Y-101899D01*
X74114D01*
Y-101972D01*
X74041D01*
Y-102044D01*
X73896D01*
Y-102117D01*
X73314D01*
Y-102044D01*
X73096D01*
Y-101972D01*
X72951D01*
Y-101899D01*
X72878D01*
Y-101826D01*
X72805D01*
Y-101754D01*
X72660D01*
Y-101608D01*
X72587D01*
Y-101536D01*
X72514D01*
Y-101463D01*
X72442D01*
Y-101318D01*
X72369D01*
Y-101172D01*
X72297D01*
Y-101027D01*
X72224D01*
Y-100881D01*
X72151D01*
Y-100736D01*
X72078D01*
Y-100591D01*
X72006D01*
Y-100372D01*
X71933D01*
Y-100227D01*
X71860D01*
Y-100009D01*
X71788D01*
Y-99863D01*
X71715D01*
Y-99645D01*
X71642D01*
Y-99573D01*
X71569D01*
Y-99427D01*
X71497D01*
Y-99355D01*
X71424D01*
Y-99209D01*
X71351D01*
Y-99137D01*
X71279D01*
Y-99064D01*
X71206D01*
Y-98991D01*
X71133D01*
Y-98918D01*
X71061D01*
Y-98846D01*
X70988D01*
Y-98773D01*
X70915D01*
Y-98700D01*
X70842D01*
Y-98628D01*
X70770D01*
Y-98555D01*
X70697D01*
Y-98482D01*
X70552D01*
Y-98409D01*
X70479D01*
Y-98337D01*
X70406D01*
Y-98264D01*
X70334D01*
Y-98191D01*
X70261D01*
Y-98119D01*
X70188D01*
Y-98046D01*
X70115D01*
Y-97973D01*
X70043D01*
Y-97901D01*
X69970D01*
Y-97755D01*
X69897D01*
Y-97682D01*
X69825D01*
Y-97537D01*
X69752D01*
Y-97392D01*
X69679D01*
Y-97246D01*
X69607D01*
Y-97101D01*
X69534D01*
Y-96810D01*
X69461D01*
Y-96447D01*
X74477D01*
Y-89685D01*
X78694D01*
Y-93030D01*
D02*
G37*
G36*
X82329Y-93175D02*
X82256D01*
Y-93539D01*
X82184D01*
Y-93902D01*
X82111D01*
Y-94266D01*
X82038D01*
Y-94629D01*
X81966D01*
Y-94993D01*
X81893D01*
Y-95356D01*
X81820D01*
Y-95720D01*
X81748D01*
Y-96083D01*
X81675D01*
Y-96447D01*
X81602D01*
Y-96810D01*
X81529D01*
Y-97174D01*
X81457D01*
Y-97537D01*
X81384D01*
Y-97901D01*
X81311D01*
Y-98264D01*
X81239D01*
Y-98628D01*
X81166D01*
Y-98991D01*
X81093D01*
Y-99355D01*
X81020D01*
Y-99718D01*
X80948D01*
Y-100082D01*
X80875D01*
Y-100445D01*
X79130D01*
Y-100227D01*
X79203D01*
Y-99863D01*
X79276D01*
Y-99500D01*
X79348D01*
Y-99137D01*
X79421D01*
Y-98773D01*
X79494D01*
Y-98409D01*
X79566D01*
Y-98046D01*
X79639D01*
Y-97682D01*
X79712D01*
Y-97319D01*
X79785D01*
Y-96956D01*
X79857D01*
Y-96592D01*
X79930D01*
Y-96228D01*
X80003D01*
Y-95865D01*
X80075D01*
Y-95502D01*
X80148D01*
Y-95138D01*
X80221D01*
Y-94775D01*
X80293D01*
Y-94411D01*
X80366D01*
Y-94047D01*
X80439D01*
Y-93684D01*
X80511D01*
Y-93321D01*
X80584D01*
Y-93030D01*
X82329D01*
Y-93175D01*
D02*
G37*
G36*
X82765Y-90921D02*
X82693D01*
Y-91285D01*
X82620D01*
Y-91648D01*
X82547D01*
Y-92012D01*
X82474D01*
Y-92303D01*
X80730D01*
Y-92157D01*
X80802D01*
Y-91794D01*
X80875D01*
Y-91430D01*
X80948D01*
Y-91067D01*
X81020D01*
Y-90703D01*
X81093D01*
Y-90631D01*
X82765D01*
Y-90921D01*
D02*
G37*
D28*
X54500Y-245000D02*
X58000D01*
X52000Y-242500D02*
X54500Y-245000D01*
X52000Y-242500D02*
Y-227500D01*
X54500Y-225000D01*
X58000D01*
X66000Y-245000D02*
X69500D01*
X73000Y-241500D01*
X69500Y-225000D02*
X73000Y-228500D01*
X66000Y-225000D02*
X69500D01*
X73000Y-241500D02*
Y-238250D01*
Y-231750D02*
Y-228500D01*
D56*
X64500Y-113500D02*
Y-82500D01*
Y-113500D02*
X163500D01*
Y-82500D01*
X64500D02*
X163500D01*
D57*
X52500Y-277500D02*
G03*
X52500Y-277500I-7000J0D01*
G01*
X32500Y-24500D02*
G03*
X32500Y-24500I-7000J0D01*
G01*
X25000Y-320000D02*
G03*
X25000Y-320000I-7000J0D01*
G01*
D58*
X3543Y-68957D02*
G03*
X3543Y-68957I-492J0D01*
G01*
X193543D02*
G03*
X193543Y-68957I-492J0D01*
G01*
X110209Y-266976D02*
Y-264122D01*
Y-272976D02*
Y-270122D01*
Y-284976D02*
Y-282122D01*
Y-278976D02*
Y-276122D01*
D59*
X165000Y-304000D02*
X174000D01*
X192000D02*
X201000D01*
Y-310000D02*
Y-304000D01*
Y-362000D02*
Y-327500D01*
X165000Y-362000D02*
X201000D01*
X165000D02*
Y-304000D01*
X57550Y-108773D02*
X60148D01*
Y-114220D02*
Y-108773D01*
X57550Y-114220D02*
X60148D01*
X48151D02*
X50750D01*
X48151D02*
Y-108773D01*
X50750D01*
X48002Y-107227D02*
X50600D01*
X48002D02*
Y-101780D01*
X50600D01*
X57400D02*
X59998D01*
Y-107227D02*
Y-101780D01*
X57400Y-107227D02*
X59998D01*
X48002Y-100227D02*
X50600D01*
X48002D02*
Y-94780D01*
X50600D01*
X57400D02*
X59998D01*
Y-100227D02*
Y-94780D01*
X57400Y-100227D02*
X59998D01*
X48502Y-93227D02*
X51100D01*
X48502D02*
Y-87780D01*
X51100D01*
X57900D02*
X60498D01*
Y-93227D02*
Y-87780D01*
X57900Y-93227D02*
X60498D01*
X170200Y-186550D02*
X172500D01*
X170200D02*
Y-182450D01*
X172500D01*
X177500Y-186550D02*
X179800D01*
Y-182450D01*
X177500D02*
X179800D01*
X111350Y-227000D02*
Y-223600D01*
X107350D02*
X111350D01*
X103350D02*
X107350D01*
X103350Y-227000D02*
Y-223600D01*
Y-238400D02*
Y-235000D01*
Y-238400D02*
X107350D01*
X111350D01*
Y-235000D01*
X124250Y-224273D02*
X126849D01*
Y-229720D02*
Y-224273D01*
X124250Y-229720D02*
X126849D01*
X114852D02*
X117450D01*
X114852D02*
Y-224273D01*
X117450D01*
X124400Y-232273D02*
X126998D01*
Y-237720D02*
Y-232273D01*
X124400Y-237720D02*
X126998D01*
X115002D02*
X117600D01*
X115002D02*
Y-232273D01*
X117600D01*
X57550Y-115773D02*
X60148D01*
Y-121220D02*
Y-115773D01*
X57550Y-121220D02*
X60148D01*
X48151D02*
X50750D01*
X48151D02*
Y-115773D01*
X50750D01*
X177500Y-176450D02*
X179800D01*
Y-180550D02*
Y-176450D01*
X177500Y-180550D02*
X179800D01*
X170200Y-176450D02*
X172500D01*
X170200Y-180550D02*
Y-176450D01*
Y-180550D02*
X172500D01*
X147651Y-263227D02*
X150250D01*
X147651D02*
Y-257780D01*
X150250D01*
X157050D02*
X159648D01*
Y-263227D02*
Y-257780D01*
X157050Y-263227D02*
X159648D01*
X147651Y-270227D02*
X150250D01*
X147651D02*
Y-264780D01*
X150250D01*
X157050D02*
X159648D01*
Y-270227D02*
Y-264780D01*
X157050Y-270227D02*
X159648D01*
X163773Y-299950D02*
Y-297352D01*
X169220D01*
Y-299950D02*
Y-297352D01*
Y-309349D02*
Y-306750D01*
X163773Y-309349D02*
X169220D01*
X163773D02*
Y-306750D01*
X156773Y-299950D02*
Y-297352D01*
X162220D01*
Y-299950D02*
Y-297352D01*
Y-309349D02*
Y-306750D01*
X156773Y-309349D02*
X162220D01*
X156773D02*
Y-306750D01*
X149773Y-299950D02*
Y-297352D01*
X155220D01*
Y-299950D02*
Y-297352D01*
Y-309349D02*
Y-306750D01*
X149773Y-309349D02*
X155220D01*
X149773D02*
Y-306750D01*
X152900Y-289773D02*
X155498D01*
Y-295220D02*
Y-289773D01*
X152900Y-295220D02*
X155498D01*
X143502D02*
X146100D01*
X143502D02*
Y-289773D01*
X146100D01*
X131227Y-288998D02*
Y-286400D01*
X125780Y-288998D02*
X131227D01*
X125780D02*
Y-286400D01*
Y-279600D02*
Y-277002D01*
X131227D01*
Y-279600D02*
Y-277002D01*
X2500Y-82500D02*
X12500D01*
Y-72500D01*
X2500D02*
X22500D01*
Y-272500D02*
Y-72500D01*
X2500Y-272500D02*
X22500D01*
X2500D02*
Y-72500D01*
X133273Y-279600D02*
Y-277002D01*
X138720D01*
Y-279600D02*
Y-277002D01*
Y-288998D02*
Y-286400D01*
X133273Y-288998D02*
X138720D01*
X133273D02*
Y-286400D01*
X192500Y-82500D02*
X202500D01*
Y-72500D01*
X192500D02*
X212500D01*
Y-272500D02*
Y-72500D01*
X192500Y-272500D02*
X212500D01*
X192500D02*
Y-72500D01*
Y-302500D02*
Y-272500D01*
Y-302500D02*
X212500D01*
Y-272500D01*
X192500D02*
X212500D01*
X202500Y-282500D02*
Y-272500D01*
X192500Y-282500D02*
X202500D01*
X2500Y-302500D02*
Y-272500D01*
Y-302500D02*
X22500D01*
Y-272500D01*
X2500D02*
X22500D01*
X12500Y-282500D02*
Y-272500D01*
X2500Y-282500D02*
X12500D01*
X160866Y-296701D02*
X159533D01*
X160199D01*
Y-300034D01*
X159533Y-300700D01*
X158867D01*
X158200Y-300034D01*
X164865Y-300700D02*
X162199D01*
X164865Y-298034D01*
Y-297368D01*
X164198Y-296701D01*
X162865D01*
X162199Y-297368D01*
X166197D02*
X166864Y-296701D01*
X168197D01*
X168863Y-297368D01*
Y-300034D01*
X168197Y-300700D01*
X166864D01*
X166197Y-300034D01*
Y-297368D01*
X170196Y-300700D02*
X171529D01*
X170863D01*
Y-296701D01*
X170196Y-297368D01*
X52200Y-218468D02*
X54866Y-221134D01*
X52200D02*
X54866Y-218468D01*
X52200Y-219801D02*
X54866D01*
X53533Y-221134D02*
Y-218468D01*
X58864Y-221800D02*
X56199D01*
X58864Y-219134D01*
Y-218468D01*
X58198Y-217801D01*
X56865D01*
X56199Y-218468D01*
D60*
X60256Y-122756D02*
X154744D01*
X60256Y-217244D02*
Y-122756D01*
Y-217244D02*
X154744D01*
Y-122756D01*
D61*
X89740Y-246709D02*
X91118D01*
X89740Y-235291D02*
X91118D01*
X80882Y-246709D02*
X82260D01*
X80882Y-235291D02*
X84524Y-235291D01*
X89240Y-267209D02*
X90618D01*
X89240Y-255791D02*
X90618D01*
X80382Y-267209D02*
X81760D01*
X80382Y-255791D02*
X84024Y-255791D01*
X171831Y-272732D02*
X175768D01*
Y-289268D02*
Y-272732D01*
X171831Y-289268D02*
X175768D01*
X159232Y-272732D02*
X163169D01*
X159232Y-289268D02*
Y-272732D01*
Y-289268D02*
X163169D01*
X155193Y-276472D02*
Y-274307D01*
X154563D02*
X155193D01*
X154563Y-287693D02*
X155193D01*
Y-287063D01*
X141807Y-287693D02*
Y-287063D01*
Y-287693D02*
X142437D01*
X141807Y-274937D02*
Y-274307D01*
X142437D01*
X163094Y-200256D02*
X166244D01*
X163094D02*
Y-198287D01*
X171756Y-200256D02*
X174906D01*
Y-198287D01*
D62*
X104106Y-267469D02*
X104894D01*
X104106Y-263531D02*
X104894D01*
X104106Y-273468D02*
X104894D01*
X104106Y-269531D02*
X104894D01*
X104106Y-285469D02*
X104894D01*
X104106Y-281532D02*
X104894D01*
X104106Y-279468D02*
X104894D01*
X104106Y-275532D02*
X104894D01*
D63*
X157500Y-69000D02*
X177500D01*
X157500Y-79000D02*
Y-69000D01*
Y-79000D02*
X177500D01*
Y-69000D01*
X60500Y-79000D02*
X80500D01*
Y-69000D01*
X60500D02*
X80500D01*
X60500Y-79000D02*
Y-69000D01*
X12000D02*
Y-49000D01*
Y-69000D02*
X22000D01*
Y-49000D01*
X12000D02*
X22000D01*
X178500Y-106000D02*
Y-86000D01*
X168500D02*
X178500D01*
X168500Y-106000D02*
Y-86000D01*
Y-106000D02*
X178500D01*
D64*
X81000Y-231001D02*
Y-232667D01*
X81333Y-233000D01*
X82000D01*
X82333Y-232667D01*
Y-231001D01*
X82999Y-231334D02*
X83333Y-231001D01*
X83999D01*
X84332Y-231334D01*
Y-231667D01*
X83999Y-232000D01*
X83666D01*
X83999D01*
X84332Y-232334D01*
Y-232667D01*
X83999Y-233000D01*
X83333D01*
X82999Y-232667D01*
X66333Y-118834D02*
X66000Y-118501D01*
X65333D01*
X65000Y-118834D01*
Y-119167D01*
X65333Y-119500D01*
X66000D01*
X66333Y-119834D01*
Y-120167D01*
X66000Y-120500D01*
X65333D01*
X65000Y-120167D01*
X66999Y-118501D02*
X67666D01*
X67333D01*
Y-120500D01*
X66999D01*
X67666D01*
X68665D02*
Y-118501D01*
X69332Y-119167D01*
X69998Y-118501D01*
Y-120500D01*
X70665D02*
X71331D01*
X70998D01*
Y-118501D01*
X70665Y-118834D01*
X38700Y-265501D02*
Y-266834D01*
X39366Y-267500D01*
X40033Y-266834D01*
Y-265501D01*
X40699D02*
Y-267500D01*
X41699D01*
X42032Y-267167D01*
Y-266834D01*
X41699Y-266500D01*
X40699D01*
X41699D01*
X42032Y-266167D01*
Y-265834D01*
X41699Y-265501D01*
X40699D01*
X42699Y-267500D02*
Y-266167D01*
X43365Y-265501D01*
X44032Y-266167D01*
Y-267500D01*
Y-266500D01*
X42699D01*
X44698Y-265501D02*
X46031D01*
X45364D01*
Y-267500D01*
X46697D02*
X47364D01*
X47031D01*
Y-265501D01*
X46697Y-265834D01*
X80500Y-251501D02*
Y-253167D01*
X80833Y-253500D01*
X81500D01*
X81833Y-253167D01*
Y-251501D01*
X83832Y-253500D02*
X82499D01*
X83832Y-252167D01*
Y-251834D01*
X83499Y-251501D01*
X82833D01*
X82499Y-251834D01*
X148000Y-272001D02*
Y-273667D01*
X148333Y-274000D01*
X149000D01*
X149333Y-273667D01*
Y-272001D01*
X149999Y-274000D02*
X150666D01*
X150333D01*
Y-272001D01*
X149999Y-272334D01*
X182000Y-179500D02*
Y-177501D01*
X183000D01*
X183333Y-177834D01*
Y-178500D01*
X183000Y-178833D01*
X182000D01*
X182667D02*
X183333Y-179500D01*
X183999Y-177834D02*
X184333Y-177501D01*
X184999D01*
X185332Y-177834D01*
Y-178167D01*
X184999Y-178500D01*
X185332Y-178833D01*
Y-179167D01*
X184999Y-179500D01*
X184333D01*
X183999Y-179167D01*
Y-178833D01*
X184333Y-178500D01*
X183999Y-178167D01*
Y-177834D01*
X184333Y-178500D02*
X184999D01*
X182000Y-185500D02*
Y-183501D01*
X183000D01*
X183333Y-183834D01*
Y-184500D01*
X183000Y-184834D01*
X182000D01*
X182667D02*
X183333Y-185500D01*
X183999Y-183501D02*
X185332D01*
Y-183834D01*
X183999Y-185167D01*
Y-185500D01*
X126000Y-274100D02*
Y-272101D01*
X127000D01*
X127333Y-272434D01*
Y-273100D01*
X127000Y-273434D01*
X126000D01*
X126666D02*
X127333Y-274100D01*
X129332Y-272101D02*
X128666Y-272434D01*
X127999Y-273100D01*
Y-273767D01*
X128333Y-274100D01*
X128999D01*
X129332Y-273767D01*
Y-273434D01*
X128999Y-273100D01*
X127999D01*
X159500Y-294000D02*
X157501D01*
Y-293000D01*
X157834Y-292667D01*
X158500D01*
X158834Y-293000D01*
Y-294000D01*
Y-293334D02*
X159500Y-292667D01*
X157501Y-290668D02*
Y-292001D01*
X158500D01*
X158167Y-291334D01*
Y-291001D01*
X158500Y-290668D01*
X159167D01*
X159500Y-291001D01*
Y-291667D01*
X159167Y-292001D01*
X98850Y-231000D02*
Y-229001D01*
X99850D01*
X100183Y-229334D01*
Y-230000D01*
X99850Y-230334D01*
X98850D01*
X99517D02*
X100183Y-231000D01*
X101849D02*
Y-229001D01*
X100850Y-230000D01*
X102183D01*
X42500Y-119500D02*
Y-117501D01*
X43500D01*
X43833Y-117834D01*
Y-118500D01*
X43500Y-118833D01*
X42500D01*
X43166D02*
X43833Y-119500D01*
X44499Y-117834D02*
X44833Y-117501D01*
X45499D01*
X45832Y-117834D01*
Y-118167D01*
X45499Y-118500D01*
X45166D01*
X45499D01*
X45832Y-118833D01*
Y-119167D01*
X45499Y-119500D01*
X44833D01*
X44499Y-119167D01*
X42500Y-112500D02*
Y-110501D01*
X43500D01*
X43833Y-110834D01*
Y-111500D01*
X43500Y-111834D01*
X42500D01*
X43166D02*
X43833Y-112500D01*
X45832D02*
X44499D01*
X45832Y-111167D01*
Y-110834D01*
X45499Y-110501D01*
X44833D01*
X44499Y-110834D01*
X42500Y-105500D02*
Y-103501D01*
X43500D01*
X43833Y-103834D01*
Y-104500D01*
X43500Y-104833D01*
X42500D01*
X43166D02*
X43833Y-105500D01*
X44499D02*
X45166D01*
X44833D01*
Y-103501D01*
X44499Y-103834D01*
X163809Y-186667D02*
Y-185334D01*
X163475Y-185001D01*
X162809D01*
X162476Y-185334D01*
Y-186667D01*
X162809Y-187000D01*
X163475D01*
X163142Y-186334D02*
X163809Y-187000D01*
X163475D02*
X163809Y-186667D01*
X164475Y-187000D02*
X165141D01*
X164808D01*
Y-185001D01*
X164475Y-185334D01*
X153500Y-280001D02*
Y-282000D01*
X154833D01*
X155499D02*
X156166D01*
X155833D01*
Y-280001D01*
X155499Y-280334D01*
X62033Y-62401D02*
X61366D01*
X61700D01*
Y-64067D01*
X61366Y-64400D01*
X61033D01*
X60700Y-64067D01*
X64032Y-62401D02*
X63366Y-62734D01*
X62699Y-63400D01*
Y-64067D01*
X63033Y-64400D01*
X63699D01*
X64032Y-64067D01*
Y-63734D01*
X63699Y-63400D01*
X62699D01*
X168433Y-81001D02*
X167766D01*
X168100D01*
Y-82667D01*
X167766Y-83000D01*
X167433D01*
X167100Y-82667D01*
X170099Y-83000D02*
Y-81001D01*
X169099Y-82000D01*
X170432D01*
X159033Y-64001D02*
X158367D01*
X158700D01*
Y-65667D01*
X158367Y-66000D01*
X158033D01*
X157700Y-65667D01*
X159699Y-64334D02*
X160033Y-64001D01*
X160699D01*
X161032Y-64334D01*
Y-64667D01*
X160699Y-65000D01*
X160366D01*
X160699D01*
X161032Y-65334D01*
Y-65667D01*
X160699Y-66000D01*
X160033D01*
X159699Y-65667D01*
X13533Y-44001D02*
X12867D01*
X13200D01*
Y-45667D01*
X12867Y-46000D01*
X12533D01*
X12200Y-45667D01*
X14199Y-46000D02*
X14866D01*
X14533D01*
Y-44001D01*
X14199Y-44334D01*
X114000Y-247501D02*
Y-249500D01*
X115000D01*
X115333Y-249167D01*
Y-247834D01*
X115000Y-247501D01*
X114000D01*
X115999Y-247834D02*
X116333Y-247501D01*
X116999D01*
X117332Y-247834D01*
Y-248167D01*
X116999Y-248500D01*
X117332Y-248833D01*
Y-249167D01*
X116999Y-249500D01*
X116333D01*
X115999Y-249167D01*
Y-248833D01*
X116333Y-248500D01*
X115999Y-248167D01*
Y-247834D01*
X116333Y-248500D02*
X116999D01*
X114000Y-242001D02*
Y-244000D01*
X115000D01*
X115333Y-243667D01*
Y-242334D01*
X115000Y-242001D01*
X114000D01*
X115999D02*
X117332D01*
Y-242334D01*
X115999Y-243667D01*
Y-244000D01*
X114000Y-253001D02*
Y-255000D01*
X115000D01*
X115333Y-254667D01*
Y-253334D01*
X115000Y-253001D01*
X114000D01*
X117332D02*
X116666Y-253334D01*
X115999Y-254000D01*
Y-254667D01*
X116333Y-255000D01*
X116999D01*
X117332Y-254667D01*
Y-254333D01*
X116999Y-254000D01*
X115999D01*
X120500Y-259001D02*
Y-261000D01*
X121500D01*
X121833Y-260667D01*
Y-259334D01*
X121500Y-259001D01*
X120500D01*
X123832D02*
X122499D01*
Y-260000D01*
X123166Y-259667D01*
X123499D01*
X123832Y-260000D01*
Y-260667D01*
X123499Y-261000D01*
X122833D01*
X122499Y-260667D01*
X114000Y-270501D02*
Y-272500D01*
X115000D01*
X115333Y-272167D01*
Y-270834D01*
X115000Y-270501D01*
X114000D01*
X116999Y-272500D02*
Y-270501D01*
X115999Y-271500D01*
X117332D01*
X113000Y-266001D02*
Y-268000D01*
X114000D01*
X114333Y-267667D01*
Y-266334D01*
X114000Y-266001D01*
X113000D01*
X114999Y-266334D02*
X115333Y-266001D01*
X115999D01*
X116332Y-266334D01*
Y-266667D01*
X115999Y-267000D01*
X115666D01*
X115999D01*
X116332Y-267334D01*
Y-267667D01*
X115999Y-268000D01*
X115333D01*
X114999Y-267667D01*
X114000Y-276001D02*
Y-278000D01*
X115000D01*
X115333Y-277667D01*
Y-276334D01*
X115000Y-276001D01*
X114000D01*
X117332Y-278000D02*
X115999D01*
X117332Y-276667D01*
Y-276334D01*
X116999Y-276001D01*
X116333D01*
X115999Y-276334D01*
X112500Y-282001D02*
Y-284000D01*
X113500D01*
X113833Y-283667D01*
Y-282334D01*
X113500Y-282001D01*
X112500D01*
X114499Y-284000D02*
X115166D01*
X114833D01*
Y-282001D01*
X114499Y-282334D01*
X130683Y-225334D02*
X130350Y-225001D01*
X129684D01*
X129350Y-225334D01*
Y-226667D01*
X129684Y-227000D01*
X130350D01*
X130683Y-226667D01*
X131350Y-227000D02*
X132016D01*
X131683D01*
Y-225001D01*
X131350Y-225334D01*
X133016D02*
X133349Y-225001D01*
X134016D01*
X134349Y-225334D01*
Y-226667D01*
X134016Y-227000D01*
X133349D01*
X133016Y-226667D01*
Y-225334D01*
X131333Y-233334D02*
X131000Y-233001D01*
X130333D01*
X130000Y-233334D01*
Y-234667D01*
X130333Y-235000D01*
X131000D01*
X131333Y-234667D01*
X131999D02*
X132333Y-235000D01*
X132999D01*
X133332Y-234667D01*
Y-233334D01*
X132999Y-233001D01*
X132333D01*
X131999Y-233334D01*
Y-233667D01*
X132333Y-234000D01*
X133332D01*
X36833Y-89334D02*
X36500Y-89001D01*
X35833D01*
X35500Y-89334D01*
Y-90667D01*
X35833Y-91000D01*
X36500D01*
X36833Y-90667D01*
X37499Y-89334D02*
X37833Y-89001D01*
X38499D01*
X38832Y-89334D01*
Y-89667D01*
X38499Y-90000D01*
X38832Y-90334D01*
Y-90667D01*
X38499Y-91000D01*
X37833D01*
X37499Y-90667D01*
Y-90334D01*
X37833Y-90000D01*
X37499Y-89667D01*
Y-89334D01*
X37833Y-90000D02*
X38499D01*
X134833Y-272434D02*
X134500Y-272101D01*
X133833D01*
X133500Y-272434D01*
Y-273767D01*
X133833Y-274100D01*
X134500D01*
X134833Y-273767D01*
X135499Y-272101D02*
X136832D01*
Y-272434D01*
X135499Y-273767D01*
Y-274100D01*
X36833Y-96334D02*
X36500Y-96001D01*
X35833D01*
X35500Y-96334D01*
Y-97667D01*
X35833Y-98000D01*
X36500D01*
X36833Y-97667D01*
X38832Y-96001D02*
X38166Y-96334D01*
X37499Y-97000D01*
Y-97667D01*
X37833Y-98000D01*
X38499D01*
X38832Y-97667D01*
Y-97334D01*
X38499Y-97000D01*
X37499D01*
X152333Y-310684D02*
X152000Y-310351D01*
X151333D01*
X151000Y-310684D01*
Y-312017D01*
X151333Y-312350D01*
X152000D01*
X152333Y-312017D01*
X154332Y-310351D02*
X152999D01*
Y-311351D01*
X153666Y-311017D01*
X153999D01*
X154332Y-311351D01*
Y-312017D01*
X153999Y-312350D01*
X153333D01*
X152999Y-312017D01*
X165333Y-310684D02*
X165000Y-310351D01*
X164333D01*
X164000Y-310684D01*
Y-312017D01*
X164333Y-312350D01*
X165000D01*
X165333Y-312017D01*
X166999Y-312350D02*
Y-310351D01*
X165999Y-311351D01*
X167332D01*
X158333Y-310684D02*
X158000Y-310351D01*
X157333D01*
X157000Y-310684D01*
Y-312017D01*
X157333Y-312350D01*
X158000D01*
X158333Y-312017D01*
X158999Y-310684D02*
X159333Y-310351D01*
X159999D01*
X160332Y-310684D01*
Y-311017D01*
X159999Y-311351D01*
X159666D01*
X159999D01*
X160332Y-311684D01*
Y-312017D01*
X159999Y-312350D01*
X159333D01*
X158999Y-312017D01*
X163132Y-266334D02*
X162799Y-266001D01*
X162132D01*
X161799Y-266334D01*
Y-267667D01*
X162132Y-268000D01*
X162799D01*
X163132Y-267667D01*
X165131Y-268000D02*
X163799D01*
X165131Y-266667D01*
Y-266334D01*
X164798Y-266001D01*
X164132D01*
X163799Y-266334D01*
X162982Y-259834D02*
X162649Y-259501D01*
X161983D01*
X161650Y-259834D01*
Y-261167D01*
X161983Y-261500D01*
X162649D01*
X162982Y-261167D01*
X163649Y-261500D02*
X164315D01*
X163982D01*
Y-259501D01*
X163649Y-259834D01*
X198500Y-71000D02*
Y-69001D01*
X199500D01*
X199833Y-69334D01*
Y-70000D01*
X199500Y-70334D01*
X198500D01*
X200499Y-69334D02*
X200833Y-69001D01*
X201499D01*
X201832Y-69334D01*
Y-69667D01*
X201499Y-70000D01*
X201166D01*
X201499D01*
X201832Y-70334D01*
Y-70667D01*
X201499Y-71000D01*
X200833D01*
X200499Y-70667D01*
X8500Y-71000D02*
Y-69001D01*
X9500D01*
X9833Y-69334D01*
Y-70000D01*
X9500Y-70334D01*
X8500D01*
X10499Y-71000D02*
X11166D01*
X10833D01*
Y-69001D01*
X10499Y-69334D01*
X12683Y-309334D02*
X12350Y-309001D01*
X11683D01*
X11350Y-309334D01*
Y-310667D01*
X11683Y-311000D01*
X12350D01*
X12683Y-310667D01*
Y-310000D01*
X12016D01*
X13349Y-311000D02*
Y-309001D01*
X14682Y-311000D01*
Y-309001D01*
X15349D02*
Y-311000D01*
X16348D01*
X16682Y-310667D01*
Y-309334D01*
X16348Y-309001D01*
X15349D01*
X17348Y-311000D02*
X18014D01*
X17681D01*
Y-309001D01*
X17348Y-309334D01*
X20500Y-15500D02*
X21167D01*
X20833D01*
Y-13501D01*
X20500Y-13834D01*
X98400Y-92201D02*
Y-94200D01*
X99400D01*
X99733Y-93867D01*
Y-93534D01*
X99400Y-93200D01*
X98400D01*
X99400D01*
X99733Y-92867D01*
Y-92534D01*
X99400Y-92201D01*
X98400D01*
X101399Y-94200D02*
X100733D01*
X100399Y-93867D01*
Y-93200D01*
X100733Y-92867D01*
X101399D01*
X101732Y-93200D01*
Y-93534D01*
X100399D01*
X102732Y-92867D02*
X103398D01*
X103732Y-93200D01*
Y-94200D01*
X102732D01*
X102399Y-93867D01*
X102732Y-93534D01*
X103732D01*
X105064Y-94866D02*
X105398D01*
X105731Y-94533D01*
Y-92867D01*
X104731D01*
X104398Y-93200D01*
Y-93867D01*
X104731Y-94200D01*
X105731D01*
X106397D02*
X107064D01*
X106731D01*
Y-92201D01*
X106397D01*
X109063Y-94200D02*
X108397D01*
X108063Y-93867D01*
Y-93200D01*
X108397Y-92867D01*
X109063D01*
X109396Y-93200D01*
Y-93534D01*
X108063D01*
X110063Y-94200D02*
Y-92201D01*
X111063D01*
X111396Y-92534D01*
Y-93200D01*
X111063Y-93534D01*
X110063D01*
X112062Y-92201D02*
Y-94200D01*
Y-93200D01*
X112396Y-92867D01*
X113062D01*
X113395Y-93200D01*
Y-94200D01*
X114395D02*
X115061D01*
X115394Y-93867D01*
Y-93200D01*
X115061Y-92867D01*
X114395D01*
X114062Y-93200D01*
Y-93867D01*
X114395Y-94200D01*
X116061D02*
Y-92867D01*
X117061D01*
X117394Y-93200D01*
Y-94200D01*
X119060D02*
X118394D01*
X118060Y-93867D01*
Y-93200D01*
X118394Y-92867D01*
X119060D01*
X119393Y-93200D01*
Y-93534D01*
X118060D01*
X98500Y-107500D02*
Y-105501D01*
X99500D01*
X99833Y-105834D01*
Y-106500D01*
X99500Y-106834D01*
X98500D01*
X99166D02*
X99833Y-107500D01*
X101499D02*
X100833D01*
X100499Y-107167D01*
Y-106500D01*
X100833Y-106167D01*
X101499D01*
X101832Y-106500D01*
Y-106834D01*
X100499D01*
X102499Y-106167D02*
X103165Y-107500D01*
X103832Y-106167D01*
X104498Y-107500D02*
Y-107167D01*
X104831D01*
Y-107500D01*
X104498D01*
X108163Y-105834D02*
X108497Y-105501D01*
X109163D01*
X109496Y-105834D01*
Y-107167D01*
X109163Y-107500D01*
X108497D01*
X108163Y-107167D01*
Y-105834D01*
X110163Y-107500D02*
Y-107167D01*
X110496D01*
Y-107500D01*
X110163D01*
X111829Y-105834D02*
X112162Y-105501D01*
X112829D01*
X113162Y-105834D01*
Y-107167D01*
X112829Y-107500D01*
X112162D01*
X111829Y-107167D01*
Y-105834D01*
X113828Y-107500D02*
Y-107167D01*
X114162D01*
Y-107500D01*
X113828D01*
X115495D02*
X116161D01*
X115828D01*
Y-105501D01*
X115495Y-105834D01*
D65*
X110053Y-248987D02*
D03*
X110100Y-243487D02*
D03*
X110057Y-259992D02*
D03*
X110060Y-254496D02*
D03*
D66*
X175500Y-80000D02*
D03*
X62500Y-68000D02*
D03*
D67*
X23000Y-51000D02*
D03*
X167500Y-104000D02*
D03*
D68*
X197325Y-272000D02*
D03*
X7325D02*
D03*
D69*
X192000Y-277000D02*
D03*
X2000D02*
D03*
M02*
