%FSLAX25Y25*%
%MOIN*%
G70*
G01*
G75*
G04 Layer_Physical_Order=4*
G04 Layer_Color=16711680*
%ADD10R,0.03937X0.03740*%
%ADD11O,0.06299X0.02362*%
%ADD12O,0.02362X0.06299*%
%ADD13R,0.03150X0.02362*%
%ADD14R,0.08661X0.03937*%
%ADD15R,0.04724X0.03937*%
%ADD16O,0.02362X0.00984*%
%ADD17R,0.04724X0.07874*%
%ADD18R,0.03150X0.03150*%
%ADD19R,0.06300X0.05000*%
%ADD20R,0.05906X0.07480*%
%ADD21O,0.00945X0.02362*%
%ADD22R,0.08465X0.06693*%
%ADD23R,0.03740X0.03937*%
%ADD24R,0.02362X0.05906*%
%ADD25C,0.04500*%
%ADD26C,0.03500*%
%ADD27C,0.02000*%
%ADD28C,0.01000*%
%ADD29C,0.06300*%
%ADD30C,0.04000*%
%ADD31C,0.06500*%
%ADD32C,0.06000*%
%ADD33C,0.02200*%
%ADD34R,0.01732X0.00787*%
%ADD35C,0.06000*%
%ADD36O,0.16929X0.06693*%
%ADD37O,0.05906X0.14961*%
%ADD38O,0.14961X0.05906*%
%ADD39C,0.05906*%
%ADD40R,0.05906X0.05906*%
%ADD41C,0.08700*%
%ADD42C,0.06496*%
%ADD43R,0.06496X0.06496*%
%ADD44R,0.05906X0.05906*%
%ADD45C,0.05000*%
%ADD46C,0.02000*%
%ADD47C,0.01969*%
%ADD48R,0.11024X0.03937*%
%ADD49R,0.07284X0.05118*%
%ADD50R,0.07717X0.12402*%
%ADD51R,0.08500X0.10799*%
%ADD52R,0.20866X0.06299*%
%ADD53R,0.12598X0.04134*%
%ADD54R,0.32677X0.41142*%
%ADD55R,0.20079X0.70079*%
%ADD56C,0.01500*%
D10*
X177555Y-199500D02*
D03*
X171256D02*
D03*
X177650Y-208500D02*
D03*
X171350D02*
D03*
D23*
X82500Y-279850D02*
D03*
Y-286150D02*
D03*
X107500Y-319850D02*
D03*
Y-326150D02*
D03*
X136000Y-324850D02*
D03*
Y-331150D02*
D03*
D25*
X37893Y-205011D02*
Y-139893D01*
X27500Y-129500D02*
X37893Y-139893D01*
X27500Y-129500D02*
Y-70200D01*
X53500D01*
X31000Y-291500D02*
Y-265000D01*
X34000Y-262000D01*
X133913Y-101646D02*
Y-94087D01*
X177650Y-208500D02*
X181500D01*
X186000Y-204000D01*
X181500Y-199500D02*
X186000Y-204000D01*
X177555Y-199500D02*
X181500D01*
X115500Y-261000D02*
X123701Y-273500D01*
X75500Y-279850D02*
X82500D01*
X92500D01*
Y-274791D01*
X75500Y-280000D02*
Y-279850D01*
X76000Y-336000D02*
Y-313000D01*
Y-336000D02*
X97650D01*
X107500Y-326150D01*
X76000Y-313000D02*
X89622D01*
X171350Y-227764D02*
Y-208500D01*
X151618D02*
X171350D01*
X153639Y-199500D02*
X171256D01*
X45500Y-261000D02*
Y-212618D01*
Y-261000D02*
X76807Y-292307D01*
Y-306307D02*
Y-292307D01*
Y-306307D02*
X89622D01*
Y-319693D02*
X107500D01*
X89622Y-299614D02*
X109000D01*
D27*
X143000Y-264500D02*
X157500Y-279000D01*
Y-301165D02*
Y-279000D01*
X146165Y-312500D02*
X157500Y-301165D01*
X146165Y-321500D02*
Y-312500D01*
Y-321500D02*
X159500D01*
X169500Y-331500D01*
X183000D01*
X201504Y-337000D02*
Y-318700D01*
X170000Y-337000D02*
X201504D01*
X157850Y-324850D02*
X170000Y-337000D01*
X136000Y-324850D02*
X157850D01*
X70000Y-243500D02*
Y-222000D01*
X136000Y-289350D02*
X142500D01*
Y-299000D02*
Y-289350D01*
X136000Y-305500D02*
X142500Y-299000D01*
X136000Y-324850D02*
Y-305500D01*
X125650Y-331150D02*
X136000D01*
X114350Y-319850D02*
X125650Y-331150D01*
X107500Y-319850D02*
X114350D01*
X124000Y-287800D02*
Y-283500D01*
X135000D01*
X136000Y-284500D01*
Y-289350D02*
Y-284500D01*
D28*
X51000Y-253000D02*
X89000D01*
X94500Y-258500D01*
X180000Y-260500D02*
X190500Y-250000D01*
X142000Y-260500D02*
X180000D01*
X190500Y-250000D02*
Y-124500D01*
X197500Y-117500D01*
X124000Y-300500D02*
Y-296500D01*
X134000Y-282500D02*
X135000Y-283500D01*
X134000Y-282500D02*
Y-266000D01*
X202500Y-112500D02*
X207500Y-117500D01*
X181500Y-112500D02*
X202500D01*
X76500Y-217500D02*
X181500Y-112500D01*
X76500Y-235500D02*
Y-217500D01*
X43000Y-94000D02*
X70646Y-121646D01*
X133913D01*
X37500Y-129500D02*
Y-121732D01*
X51000Y-129500D02*
Y-125232D01*
X37413Y-111646D02*
X51000Y-125232D01*
X37413Y-89087D02*
X48000Y-78500D01*
X37413Y-101646D02*
Y-89087D01*
X122000Y-260500D02*
X142000D01*
X96500Y-235000D02*
X122000Y-260500D01*
D29*
X107500Y-312500D02*
Y-274201D01*
Y-312500D02*
X126835D01*
D30*
X82500Y-286150D02*
X106850D01*
D32*
X128500Y-248236D02*
X174000D01*
X92000Y-226500D02*
X128500D01*
Y-244000D02*
Y-226500D01*
Y-248236D02*
Y-244000D01*
D35*
X53500Y-70200D02*
D03*
Y-7800D02*
D03*
D36*
X183000Y-306900D02*
D03*
D37*
X201504Y-318700D02*
D03*
D38*
X183000Y-331500D02*
D03*
D39*
X162500Y-74000D02*
D03*
X75500D02*
D03*
X17000Y-64000D02*
D03*
X173500Y-91000D02*
D03*
D40*
X172500Y-74000D02*
D03*
X65500D02*
D03*
D41*
X45500Y-277500D02*
D03*
X25500Y-24500D02*
D03*
X18000Y-320000D02*
D03*
D42*
X17500Y-167500D02*
D03*
X7500D02*
D03*
X17500Y-157500D02*
D03*
X7500D02*
D03*
X17500Y-147500D02*
D03*
X7500D02*
D03*
X17500Y-77500D02*
D03*
X7500Y-87500D02*
D03*
X17500D02*
D03*
X7500Y-97500D02*
D03*
X17500D02*
D03*
X7500Y-107500D02*
D03*
X17500D02*
D03*
X7500Y-117500D02*
D03*
X17500D02*
D03*
X7500Y-127500D02*
D03*
X17500D02*
D03*
X7500Y-137500D02*
D03*
X17500D02*
D03*
X7500Y-177500D02*
D03*
X17500D02*
D03*
X7500Y-187500D02*
D03*
X17500D02*
D03*
X7500Y-197500D02*
D03*
X17500D02*
D03*
X7500Y-207500D02*
D03*
X17500D02*
D03*
X7500Y-217500D02*
D03*
X17500D02*
D03*
X7500Y-227500D02*
D03*
X17500D02*
D03*
X7500Y-237500D02*
D03*
X17500D02*
D03*
X7500Y-247500D02*
D03*
X17500D02*
D03*
X7500Y-257500D02*
D03*
X17500D02*
D03*
X7500Y-267500D02*
D03*
X17500D02*
D03*
X207500Y-167500D02*
D03*
X197500D02*
D03*
X207500Y-157500D02*
D03*
X197500D02*
D03*
X207500Y-147500D02*
D03*
X197500D02*
D03*
X207500Y-77500D02*
D03*
X197500Y-87500D02*
D03*
X207500D02*
D03*
X197500Y-97500D02*
D03*
X207500D02*
D03*
X197500Y-107500D02*
D03*
X207500D02*
D03*
X197500Y-117500D02*
D03*
X207500D02*
D03*
X197500Y-127500D02*
D03*
X207500D02*
D03*
X197500Y-137500D02*
D03*
X207500D02*
D03*
X197500Y-177500D02*
D03*
X207500D02*
D03*
X197500Y-187500D02*
D03*
X207500D02*
D03*
X197500Y-197500D02*
D03*
X207500D02*
D03*
X197500Y-207500D02*
D03*
X207500D02*
D03*
X197500Y-217500D02*
D03*
X207500D02*
D03*
X197500Y-227500D02*
D03*
X207500D02*
D03*
X197500Y-237500D02*
D03*
X207500D02*
D03*
X197500Y-247500D02*
D03*
X207500D02*
D03*
X197500Y-257500D02*
D03*
X207500D02*
D03*
X197500Y-267500D02*
D03*
X207500D02*
D03*
Y-297500D02*
D03*
X197500D02*
D03*
X207500Y-287500D02*
D03*
X197500D02*
D03*
X207500Y-277500D02*
D03*
X17500Y-297500D02*
D03*
X7500D02*
D03*
X17500Y-287500D02*
D03*
X7500D02*
D03*
X17500Y-277500D02*
D03*
D43*
X7500Y-77500D02*
D03*
X197500D02*
D03*
Y-277500D02*
D03*
X7500D02*
D03*
D44*
X17000Y-54000D02*
D03*
X173500Y-101000D02*
D03*
D45*
X31000Y-291500D02*
D03*
X34000Y-262000D02*
D03*
X143000Y-264500D02*
D03*
X159500Y-315000D02*
D03*
X134000Y-94000D02*
D03*
X186000Y-204000D02*
D03*
X75500Y-280000D02*
D03*
X76000Y-313000D02*
D03*
X95319Y-209000D02*
D03*
X45000Y-87500D02*
D03*
X139000Y-138500D02*
D03*
X95500Y-134500D02*
D03*
X74000Y-154500D02*
D03*
X69500Y-180000D02*
D03*
X165000Y-173500D02*
D03*
X156799Y-254701D02*
D03*
X82000Y-205500D02*
D03*
X117500Y-207500D02*
D03*
X125000D02*
D03*
X52000Y-235000D02*
D03*
X115500Y-261000D02*
D03*
X134000Y-266000D02*
D03*
X92000Y-226500D02*
D03*
X70000Y-243500D02*
D03*
Y-222000D02*
D03*
X43000Y-94000D02*
D03*
X37500Y-129500D02*
D03*
X51000D02*
D03*
X48000Y-78500D02*
D03*
X76500Y-235500D02*
D03*
X96500Y-235000D02*
D03*
X128500Y-244000D02*
D03*
X140000Y-271500D02*
D03*
D46*
X124000Y-300500D02*
D03*
X51000Y-253000D02*
D03*
X94500Y-258500D02*
D03*
D47*
X86000Y-242550D02*
D03*
Y-239450D02*
D03*
X85500Y-263050D02*
D03*
Y-259950D02*
D03*
X148500Y-283362D02*
D03*
X145252Y-281000D02*
D03*
X148500Y-278638D02*
D03*
X151748Y-281000D02*
D03*
D48*
X133913Y-101646D02*
D03*
Y-111646D02*
D03*
Y-121646D02*
D03*
X37413Y-101646D02*
D03*
Y-111646D02*
D03*
Y-121646D02*
D03*
D49*
X92500Y-274791D02*
D03*
Y-286209D02*
D03*
D50*
X146165Y-312500D02*
D03*
X126835D02*
D03*
D51*
X123701Y-273500D02*
D03*
X106299D02*
D03*
D52*
X174000Y-227764D02*
D03*
Y-248236D02*
D03*
D53*
X89622Y-299614D02*
D03*
Y-306307D02*
D03*
Y-313000D02*
D03*
Y-319693D02*
D03*
Y-326386D02*
D03*
D54*
X52417Y-313000D02*
D03*
D55*
X37893Y-205011D02*
D03*
X148129D02*
D03*
D56*
X51000Y-253000D02*
X56500Y-247500D01*
X76000D01*
Y-242500D01*
X92000Y-226500D01*
M02*
