%FSLAX25Y25*%
%MOIN*%
G70*
G01*
G75*
G04 Layer_Color=16711935*
%ADD10R,0.03937X0.03740*%
%ADD11O,0.06299X0.02362*%
%ADD12O,0.02362X0.06299*%
%ADD13R,0.03150X0.02362*%
%ADD14R,0.08661X0.03937*%
%ADD15R,0.04724X0.03937*%
%ADD16O,0.02362X0.00984*%
%ADD17R,0.04724X0.07874*%
%ADD18R,0.03150X0.03150*%
%ADD19R,0.06300X0.05000*%
%ADD20R,0.05906X0.07480*%
%ADD21O,0.00945X0.02362*%
%ADD22R,0.08465X0.06693*%
%ADD23R,0.03740X0.03937*%
%ADD24R,0.02362X0.05906*%
%ADD25C,0.04500*%
%ADD26C,0.03500*%
%ADD27C,0.02000*%
%ADD28C,0.01000*%
%ADD29C,0.06300*%
%ADD30C,0.04000*%
%ADD31C,0.06500*%
%ADD32C,0.06000*%
%ADD33C,0.02200*%
%ADD34R,0.01732X0.00787*%
%ADD35C,0.06000*%
%ADD36O,0.16929X0.06693*%
%ADD37O,0.05906X0.14961*%
%ADD38O,0.14961X0.05906*%
%ADD39C,0.05906*%
%ADD40R,0.05906X0.05906*%
%ADD41C,0.08700*%
%ADD42C,0.06496*%
%ADD43R,0.06496X0.06496*%
%ADD44R,0.05906X0.05906*%
%ADD45C,0.05000*%
%ADD46C,0.02000*%
%ADD47C,0.01969*%
%ADD48R,0.11024X0.03937*%
%ADD49R,0.07284X0.05118*%
%ADD50R,0.07717X0.12402*%
%ADD51R,0.08500X0.10799*%
%ADD52R,0.20866X0.06299*%
%ADD53R,0.12598X0.04134*%
%ADD54R,0.32677X0.41142*%
%ADD55R,0.20079X0.70079*%
%ADD56C,0.01500*%
%ADD57C,0.00799*%
%ADD58C,0.00984*%
%ADD59C,0.00700*%
%ADD60C,0.00701*%
%ADD61C,0.00787*%
%ADD62C,0.00669*%
%ADD63C,0.00800*%
%ADD64C,0.00600*%
%ADD65R,0.00886X0.03937*%
%ADD66R,0.04000X0.02000*%
%ADD67R,0.02000X0.04000*%
%ADD68R,0.10350X0.01000*%
%ADD69R,0.01000X0.11000*%
%ADD70R,0.04433X0.07043*%
%ADD71R,0.02362X0.02756*%
%ADD72R,0.03839X0.06102*%
%ADD73R,0.00000X0.03150*%
%ADD74R,0.00000X0.00000*%
%ADD75R,0.04337X0.04140*%
%ADD76O,0.06699X0.02762*%
%ADD77O,0.02762X0.06699*%
%ADD78R,0.03550X0.02762*%
%ADD79R,0.09061X0.04337*%
%ADD80R,0.05124X0.04337*%
%ADD81O,0.02762X0.01384*%
%ADD82R,0.05124X0.08274*%
%ADD83R,0.03550X0.03550*%
%ADD84R,0.06700X0.05400*%
%ADD85R,0.06306X0.07880*%
%ADD86O,0.01345X0.02762*%
%ADD87R,0.08865X0.07093*%
%ADD88R,0.04140X0.04337*%
%ADD89R,0.02762X0.06306*%
%ADD90R,0.02132X0.01187*%
%ADD91O,0.17329X0.07093*%
%ADD92O,0.06306X0.15361*%
%ADD93O,0.15361X0.06306*%
%ADD94C,0.06306*%
%ADD95R,0.06306X0.06306*%
%ADD96C,0.09100*%
%ADD97R,0.06306X0.06306*%
%ADD98C,0.05400*%
%ADD99C,0.02369*%
%ADD100C,0.02362*%
%ADD101R,0.11424X0.04337*%
%ADD102R,0.07684X0.05518*%
%ADD103R,0.08117X0.12802*%
%ADD104R,0.08900X0.11199*%
%ADD105R,0.21266X0.06699*%
%ADD106R,0.12998X0.04534*%
%ADD107R,0.33077X0.41542*%
%ADD108R,0.20479X0.70479*%
%ADD109C,0.00500*%
%ADD110R,0.02000X0.16400*%
%ADD111C,0.00400*%
%ADD112C,0.00394*%
%ADD113C,0.00197*%
%ADD114C,0.00276*%
%ADD115C,0.00236*%
%ADD116C,0.00300*%
%ADD117R,0.00787X0.03740*%
%ADD118R,0.04000X0.04000*%
D59*
X124492Y-307185D02*
X148508D01*
Y-317776D02*
Y-307185D01*
X124492Y-317776D02*
X148508D01*
X124492D02*
Y-307185D01*
X130201Y-317776D02*
Y-307185D01*
X142799Y-317776D02*
Y-307185D01*
D112*
X51984Y-113370D02*
Y-109630D01*
X57595Y-113370D02*
Y-109630D01*
X50705Y-113370D02*
X57595D01*
X50705Y-109630D02*
X57595D01*
X56315Y-113370D02*
Y-109630D01*
X50705Y-113370D02*
Y-109630D01*
X56165Y-106370D02*
Y-102630D01*
X50555Y-106370D02*
Y-102630D01*
X57445D01*
X50555Y-106370D02*
X57445D01*
X51835D02*
Y-102630D01*
X57445Y-106370D02*
Y-102630D01*
X56165Y-99370D02*
Y-95630D01*
X50555Y-99370D02*
Y-95630D01*
X57445D01*
X50555Y-99370D02*
X57445D01*
X51835D02*
Y-95630D01*
X57445Y-99370D02*
Y-95630D01*
X56665Y-92370D02*
Y-88630D01*
X51055Y-92370D02*
Y-88630D01*
X57945D01*
X51055Y-92370D02*
X57945D01*
X52335D02*
Y-88630D01*
X57945Y-92370D02*
Y-88630D01*
X176378Y-185681D02*
Y-183319D01*
X172835Y-185681D02*
Y-183319D01*
X177165D01*
X172835Y-185681D02*
X177165D01*
X173622D02*
Y-183319D01*
X177165Y-185681D02*
Y-183319D01*
X172240Y-201370D02*
Y-197630D01*
X177850Y-201370D02*
Y-197630D01*
X170961D02*
X177850D01*
X170961Y-201370D02*
X177850D01*
X176571D02*
Y-197630D01*
X170961Y-201370D02*
Y-197630D01*
X172335Y-210370D02*
Y-206630D01*
X177945Y-210370D02*
Y-206630D01*
X171055D02*
X177945D01*
X171055Y-210370D02*
X177945D01*
X176665D02*
Y-206630D01*
X171055Y-210370D02*
Y-206630D01*
X80630Y-285165D02*
X84370D01*
X80630Y-279555D02*
X84370D01*
X80630Y-286445D02*
Y-279555D01*
X84370Y-286445D02*
Y-279555D01*
X80630Y-280835D02*
X84370D01*
X80630Y-286445D02*
X84370D01*
X88957Y-287193D02*
Y-273807D01*
X96043Y-287193D02*
Y-273807D01*
X88957Y-275776D02*
X96043D01*
X88957Y-287193D02*
X96043D01*
X88957Y-273807D02*
X96043D01*
X88957Y-285224D02*
X96043D01*
X105630Y-325165D02*
X109370D01*
X105630Y-319555D02*
X109370D01*
X105630Y-326445D02*
Y-319555D01*
X109370Y-326445D02*
Y-319555D01*
X105630Y-320835D02*
X109370D01*
X105630Y-326445D02*
X109370D01*
X134130Y-330165D02*
X137870D01*
X134130Y-324555D02*
X137870D01*
X134130Y-331445D02*
Y-324555D01*
X137870Y-331445D02*
Y-324555D01*
X134130Y-325835D02*
X137870D01*
X134130Y-331445D02*
X137870D01*
X163665Y-226386D02*
X184335D01*
X163665Y-248827D02*
X184335D01*
X163665Y-249614D02*
Y-226386D01*
X184335Y-249614D02*
Y-226386D01*
X163665Y-249614D02*
X184335D01*
X163665Y-227173D02*
X184335D01*
X104496Y-233559D02*
X110205D01*
X104496Y-226669D02*
X110205D01*
X104496Y-235331D02*
X110205D01*
X104496Y-228441D02*
X110205D01*
X104496Y-235331D02*
Y-226669D01*
X110205Y-235331D02*
Y-226669D01*
X118685Y-228870D02*
Y-225130D01*
X124295Y-228870D02*
Y-225130D01*
X117405Y-228870D02*
X124295D01*
X117405Y-225130D02*
X124295D01*
X123016Y-228870D02*
Y-225130D01*
X117405Y-228870D02*
Y-225130D01*
X118835Y-236870D02*
Y-233130D01*
X124445Y-236870D02*
Y-233130D01*
X117555Y-236870D02*
X124445D01*
X117555Y-233130D02*
X124445D01*
X123165Y-236870D02*
Y-233130D01*
X117555Y-236870D02*
Y-233130D01*
X79189Y-333472D02*
Y-292528D01*
X42181Y-333472D02*
Y-292528D01*
X79189D01*
X42181Y-333472D02*
X79189D01*
X51984Y-120370D02*
Y-116630D01*
X57595Y-120370D02*
Y-116630D01*
X50705Y-120370D02*
X57595D01*
X50705Y-116630D02*
X57595D01*
X56315Y-120370D02*
Y-116630D01*
X50705Y-120370D02*
Y-116630D01*
X173622Y-179681D02*
Y-177319D01*
X177165Y-179681D02*
Y-177319D01*
X172835Y-179681D02*
X177165D01*
X172835Y-177319D02*
X177165D01*
X176378Y-179681D02*
Y-177319D01*
X172835Y-179681D02*
Y-177319D01*
X155815Y-262370D02*
Y-258630D01*
X150205Y-262370D02*
Y-258630D01*
X157095D01*
X150205Y-262370D02*
X157095D01*
X151484D02*
Y-258630D01*
X157095Y-262370D02*
Y-258630D01*
X155815Y-269370D02*
Y-265630D01*
X150205Y-269370D02*
Y-265630D01*
X157095D01*
X150205Y-269370D02*
X157095D01*
X151484D02*
Y-265630D01*
X157095Y-269370D02*
Y-265630D01*
X164630Y-305516D02*
X168370D01*
X164630Y-299905D02*
X168370D01*
Y-306795D02*
Y-299905D01*
X164630Y-306795D02*
Y-299905D01*
Y-301185D02*
X168370D01*
X164630Y-306795D02*
X168370D01*
X157630Y-305516D02*
X161370D01*
X157630Y-299905D02*
X161370D01*
Y-306795D02*
Y-299905D01*
X157630Y-306795D02*
Y-299905D01*
Y-301185D02*
X161370D01*
X157630Y-306795D02*
X161370D01*
X150630Y-305516D02*
X154370D01*
X150630Y-299905D02*
X154370D01*
Y-306795D02*
Y-299905D01*
X150630Y-306795D02*
Y-299905D01*
Y-301185D02*
X154370D01*
X150630Y-306795D02*
X154370D01*
X147335Y-294370D02*
Y-290630D01*
X152945Y-294370D02*
Y-290630D01*
X146055Y-294370D02*
X152945D01*
X146055Y-290630D02*
X152945D01*
X151665Y-294370D02*
Y-290630D01*
X146055Y-294370D02*
Y-290630D01*
X126630Y-280835D02*
X130370D01*
X126630Y-286445D02*
X130370D01*
X126630D02*
Y-279555D01*
X130370Y-286445D02*
Y-279555D01*
X126630Y-285165D02*
X130370D01*
X126630Y-279555D02*
X130370D01*
X134130Y-285165D02*
X137870D01*
X134130Y-279555D02*
X137870D01*
Y-286445D02*
Y-279555D01*
X134130Y-286445D02*
Y-279555D01*
Y-280835D02*
X137870D01*
X134130Y-286445D02*
X137870D01*
M02*
