%FSLAX25Y25*%
%MOIN*%
G70*
G01*
G75*
G04 Layer_Color=9218505*
%ADD10R,0.03937X0.03740*%
%ADD11O,0.06299X0.02362*%
%ADD12O,0.02362X0.06299*%
%ADD13R,0.03150X0.02362*%
%ADD14R,0.08661X0.03937*%
%ADD15R,0.04724X0.03937*%
%ADD16O,0.02362X0.00984*%
%ADD17R,0.04724X0.07874*%
%ADD18R,0.03150X0.03150*%
%ADD19R,0.06300X0.05000*%
%ADD20R,0.05906X0.07480*%
%ADD21O,0.00945X0.02362*%
%ADD22R,0.08465X0.06693*%
%ADD23R,0.03740X0.03937*%
%ADD24R,0.02362X0.05906*%
%ADD25C,0.04500*%
%ADD26C,0.03500*%
%ADD27C,0.02000*%
%ADD28C,0.01000*%
%ADD29C,0.06300*%
%ADD30C,0.04000*%
%ADD31C,0.06500*%
%ADD32C,0.06000*%
%ADD33C,0.02200*%
%ADD34R,0.01732X0.00787*%
%ADD35C,0.06000*%
%ADD36O,0.16929X0.06693*%
%ADD37O,0.05906X0.14961*%
%ADD38O,0.14961X0.05906*%
%ADD39C,0.05906*%
%ADD40R,0.05906X0.05906*%
%ADD41C,0.08700*%
%ADD42C,0.06496*%
%ADD43R,0.06496X0.06496*%
%ADD44R,0.05906X0.05906*%
%ADD45C,0.05000*%
%ADD46C,0.02000*%
%ADD47C,0.01969*%
%ADD48R,0.11024X0.03937*%
%ADD49R,0.07284X0.05118*%
%ADD50R,0.07717X0.12402*%
%ADD51R,0.08500X0.10799*%
%ADD52R,0.20866X0.06299*%
%ADD53R,0.12598X0.04134*%
%ADD54R,0.32677X0.41142*%
%ADD55R,0.20079X0.70079*%
%ADD56C,0.01500*%
%ADD57C,0.00799*%
%ADD58C,0.00984*%
%ADD59C,0.00700*%
%ADD60C,0.00701*%
%ADD61C,0.00787*%
%ADD62C,0.00669*%
%ADD63C,0.00800*%
%ADD64C,0.00600*%
%ADD65R,0.00886X0.03937*%
%ADD66R,0.04000X0.02000*%
%ADD67R,0.02000X0.04000*%
%ADD68R,0.10350X0.01000*%
%ADD69R,0.01000X0.11000*%
%ADD70R,0.04433X0.07043*%
%ADD71R,0.02362X0.02756*%
%ADD72R,0.03839X0.06102*%
%ADD73R,0.00000X0.03150*%
%ADD74R,0.00000X0.00000*%
%ADD75R,0.04337X0.04140*%
%ADD76O,0.06699X0.02762*%
%ADD77O,0.02762X0.06699*%
%ADD78R,0.03550X0.02762*%
%ADD79R,0.09061X0.04337*%
%ADD80R,0.05124X0.04337*%
%ADD81O,0.02762X0.01384*%
%ADD82R,0.05124X0.08274*%
%ADD83R,0.03550X0.03550*%
%ADD84R,0.06700X0.05400*%
%ADD85R,0.06306X0.07880*%
%ADD86O,0.01345X0.02762*%
%ADD87R,0.08865X0.07093*%
%ADD88R,0.04140X0.04337*%
%ADD89R,0.02762X0.06306*%
%ADD90R,0.02132X0.01187*%
%ADD91O,0.17329X0.07093*%
%ADD92O,0.06306X0.15361*%
%ADD93O,0.15361X0.06306*%
%ADD94C,0.06306*%
%ADD95R,0.06306X0.06306*%
%ADD96C,0.09100*%
%ADD97R,0.06306X0.06306*%
%ADD98C,0.05400*%
%ADD99C,0.02369*%
%ADD100C,0.02362*%
%ADD101R,0.11424X0.04337*%
%ADD102R,0.07684X0.05518*%
%ADD103R,0.08117X0.12802*%
%ADD104R,0.08900X0.11199*%
%ADD105R,0.21266X0.06699*%
%ADD106R,0.12998X0.04534*%
%ADD107R,0.33077X0.41542*%
%ADD108R,0.20479X0.70479*%
%ADD109C,0.00500*%
%ADD110R,0.02000X0.16400*%
D28*
X37413Y-82157D02*
X151587D01*
X46000Y-125835D02*
Y-108165D01*
X151587Y-145413D02*
Y-82157D01*
X145158Y-151842D02*
X151587Y-145413D01*
X37413Y-151842D02*
X145158D01*
X37413Y-134421D02*
X46000Y-125835D01*
X37413Y-151842D02*
Y-134421D01*
Y-88413D02*
Y-82157D01*
Y-88413D02*
X46000Y-97000D01*
Y-101725D02*
Y-97000D01*
Y-108165D02*
Y-101725D01*
Y-108165D02*
Y-101725D01*
X93000Y-153524D02*
X122331D01*
X137193Y-168386D01*
X159535D01*
Y-205000D02*
Y-168386D01*
X26465Y-205000D02*
Y-168386D01*
X48807D01*
X63669Y-153524D01*
X93000D01*
X63669Y-256476D02*
X93000D01*
X48807Y-241614D02*
X63669Y-256476D01*
X26465Y-241614D02*
X48807D01*
X26465D02*
Y-205000D01*
X159535Y-241614D02*
Y-205000D01*
X137193Y-241614D02*
X159535D01*
X122331Y-256476D02*
X137193Y-241614D01*
X93000Y-256476D02*
X122331D01*
X156624Y-102780D02*
X155968Y-103436D01*
X154656D01*
X154000Y-102780D01*
Y-100156D01*
X154656Y-99500D01*
X155968D01*
X156624Y-100156D01*
Y-101468D01*
X155312D01*
X157936Y-99500D02*
Y-103436D01*
X160560Y-99500D01*
Y-103436D01*
X161872D02*
Y-99500D01*
X163839D01*
X164495Y-100156D01*
Y-102780D01*
X163839Y-103436D01*
X161872D01*
X154500Y-123936D02*
Y-120000D01*
X156468D01*
X157124Y-120656D01*
Y-123280D01*
X156468Y-123936D01*
X154500D01*
X158436Y-120000D02*
Y-122624D01*
X159748Y-123936D01*
X161060Y-122624D01*
Y-120000D01*
Y-121968D01*
X158436D01*
X162372Y-123936D02*
X164995D01*
X163683D01*
Y-120000D01*
X15500Y-103436D02*
Y-100812D01*
X16812Y-99500D01*
X18124Y-100812D01*
Y-103436D01*
X22060Y-102780D02*
X21404Y-103436D01*
X20092D01*
X19436Y-102780D01*
Y-100156D01*
X20092Y-99500D01*
X21404D01*
X22060Y-100156D01*
X25995Y-102780D02*
X25339Y-103436D01*
X24027D01*
X23371Y-102780D01*
Y-100156D01*
X24027Y-99500D01*
X25339D01*
X25995Y-100156D01*
X16000Y-110500D02*
Y-114436D01*
X17968D01*
X18624Y-113780D01*
Y-112468D01*
X17968Y-111812D01*
X16000D01*
X17312D02*
X18624Y-110500D01*
X22560Y-113780D02*
X21904Y-114436D01*
X20592D01*
X19936Y-113780D01*
Y-113124D01*
X20592Y-112468D01*
X21904D01*
X22560Y-111812D01*
Y-111156D01*
X21904Y-110500D01*
X20592D01*
X19936Y-111156D01*
X23871Y-114436D02*
X26495D01*
X25183D01*
Y-110500D01*
X18624Y-123280D02*
X17968Y-123936D01*
X16656D01*
X16000Y-123280D01*
Y-120656D01*
X16656Y-120000D01*
X17968D01*
X18624Y-120656D01*
X19936Y-123936D02*
Y-120000D01*
X22560D01*
X23871Y-123936D02*
Y-120000D01*
Y-121312D01*
X26495Y-123936D01*
X24527Y-121968D01*
X26495Y-120000D01*
D58*
X90114Y-295382D02*
G03*
X90114Y-295382I-492J0D01*
G01*
D59*
X177805Y-202227D02*
X180404D01*
Y-196780D01*
X177805D02*
X180404D01*
X168407D02*
X171005D01*
X168407Y-202227D02*
Y-196780D01*
Y-202227D02*
X171005D01*
X177900Y-211227D02*
X180498D01*
Y-205780D01*
X177900D02*
X180498D01*
X168502D02*
X171100D01*
X168502Y-211227D02*
Y-205780D01*
Y-211227D02*
X171100D01*
X85227Y-279600D02*
Y-277002D01*
X79780D02*
X85227D01*
X79780Y-279600D02*
Y-277002D01*
Y-288998D02*
Y-286400D01*
Y-288998D02*
X85227D01*
Y-286400D01*
X87736Y-274594D02*
Y-271051D01*
X97264D01*
Y-274594D02*
Y-271051D01*
Y-289949D02*
Y-286405D01*
X87736Y-289949D02*
X97264D01*
X87736D02*
Y-286405D01*
X110227Y-319600D02*
Y-317002D01*
X104780D02*
X110227D01*
X104780Y-319600D02*
Y-317002D01*
Y-328998D02*
Y-326400D01*
Y-328998D02*
X110227D01*
Y-326400D01*
X138727Y-324600D02*
Y-322002D01*
X133280D02*
X138727D01*
X133280Y-324600D02*
Y-322002D01*
Y-333998D02*
Y-331400D01*
Y-333998D02*
X138727D01*
Y-331400D01*
X121736Y-305118D02*
X151264D01*
Y-319980D02*
Y-305118D01*
X121736Y-319980D02*
Y-305118D01*
Y-319980D02*
X151264D01*
X127500Y-281350D02*
Y-280450D01*
X100800Y-281350D02*
X127500D01*
X100800Y-265650D02*
X127500D01*
Y-266550D02*
Y-265650D01*
X162429Y-234807D02*
Y-223460D01*
X185571Y-234807D02*
Y-223460D01*
X162429D02*
X185571D01*
X162429Y-252540D02*
X185571D01*
X162429D02*
Y-241193D01*
X185571Y-252540D02*
Y-241193D01*
X165300Y-75668D02*
X162634Y-78334D01*
X165300D02*
X162634Y-75668D01*
X165300Y-77001D02*
X162634D01*
X163967Y-78334D02*
Y-75668D01*
X161301Y-79000D02*
X159968D01*
X160635D01*
Y-75001D01*
X161301Y-75668D01*
D61*
X70331Y-292528D02*
X79189D01*
Y-333472D02*
Y-292528D01*
X70331Y-333472D02*
X79189D01*
D64*
X73500Y-15001D02*
Y-16667D01*
X73167Y-17000D01*
X72500D01*
X72167Y-16667D01*
Y-15001D01*
X71501Y-17000D02*
X70834D01*
X71167D01*
Y-15001D01*
X71501Y-15334D01*
X69835Y-17000D02*
X69168D01*
X69501D01*
Y-15001D01*
X69835Y-15334D01*
X68168Y-17000D02*
X67502D01*
X67835D01*
Y-15001D01*
X68168Y-15334D01*
X96500Y-286501D02*
Y-288167D01*
X96167Y-288500D01*
X95500D01*
X95167Y-288167D01*
Y-286501D01*
X94501Y-288500D02*
X93834D01*
X94167D01*
Y-286501D01*
X94501Y-286834D01*
X92835D02*
X92501Y-286501D01*
X91835D01*
X91502Y-286834D01*
Y-288167D01*
X91835Y-288500D01*
X92501D01*
X92835Y-288167D01*
Y-286834D01*
X90835Y-288500D02*
X90169D01*
X90502D01*
Y-286501D01*
X90835Y-286834D01*
X108500Y-331000D02*
X106501D01*
Y-332000D01*
X106834Y-332333D01*
X107500D01*
X107834Y-332000D01*
Y-331000D01*
Y-331666D02*
X108500Y-332333D01*
Y-332999D02*
Y-333666D01*
Y-333333D01*
X106501D01*
X106834Y-332999D01*
Y-334665D02*
X106501Y-334999D01*
Y-335665D01*
X106834Y-335998D01*
X108167D01*
X108500Y-335665D01*
Y-334999D01*
X108167Y-334665D01*
X106834D01*
X108500Y-337998D02*
Y-336665D01*
X107167Y-337998D01*
X106834D01*
X106501Y-337665D01*
Y-336998D01*
X106834Y-336665D01*
X144000Y-322500D02*
X142001D01*
Y-323500D01*
X142334Y-323833D01*
X143000D01*
X143333Y-323500D01*
Y-322500D01*
Y-323166D02*
X144000Y-323833D01*
Y-324499D02*
Y-325166D01*
Y-324833D01*
X142001D01*
X142334Y-324499D01*
Y-326166D02*
X142001Y-326499D01*
Y-327165D01*
X142334Y-327498D01*
X143667D01*
X144000Y-327165D01*
Y-326499D01*
X143667Y-326166D01*
X142334D01*
X144000Y-328165D02*
Y-328831D01*
Y-328498D01*
X142001D01*
X142334Y-328165D01*
X185300Y-218501D02*
Y-220500D01*
X183967D01*
X183301D02*
X182634D01*
X182967D01*
Y-218501D01*
X183301Y-218834D01*
X181634D02*
X181301Y-218501D01*
X180635D01*
X180302Y-218834D01*
Y-220167D01*
X180635Y-220500D01*
X181301D01*
X181634Y-220167D01*
Y-218834D01*
X178302Y-220500D02*
X179635D01*
X178302Y-219167D01*
Y-218834D01*
X178636Y-218501D01*
X179302D01*
X179635Y-218834D01*
X159400Y-148401D02*
Y-150400D01*
X158067D01*
X157401D02*
X156734D01*
X157067D01*
Y-148401D01*
X157401Y-148734D01*
X155735D02*
X155401Y-148401D01*
X154735D01*
X154402Y-148734D01*
Y-150067D01*
X154735Y-150400D01*
X155401D01*
X155735Y-150067D01*
Y-148734D01*
X153735Y-150400D02*
X153069D01*
X153402D01*
Y-148401D01*
X153735Y-148734D01*
X149667Y-300201D02*
X151000D01*
Y-301200D01*
X150333D01*
X151000D01*
Y-302200D01*
X149001D02*
X148334D01*
X148667D01*
Y-300201D01*
X149001Y-300534D01*
X147335D02*
X147001Y-300201D01*
X146335D01*
X146002Y-300534D01*
Y-301867D01*
X146335Y-302200D01*
X147001D01*
X147335Y-301867D01*
Y-300534D01*
X145335Y-302200D02*
X144669D01*
X145002D01*
Y-300201D01*
X145335Y-300534D01*
X128600Y-259801D02*
Y-261800D01*
X127600D01*
X127267Y-261467D01*
Y-260134D01*
X127600Y-259801D01*
X128600D01*
X126601Y-261800D02*
X125934D01*
X126267D01*
Y-259801D01*
X126601Y-260134D01*
X124934D02*
X124601Y-259801D01*
X123935D01*
X123602Y-260134D01*
Y-261467D01*
X123935Y-261800D01*
X124601D01*
X124934Y-261467D01*
Y-260134D01*
X122935Y-261800D02*
X122269D01*
X122602D01*
Y-259801D01*
X122935Y-260134D01*
X178773Y-192134D02*
X179106Y-191801D01*
X179772D01*
X180105Y-192134D01*
Y-193467D01*
X179772Y-193800D01*
X179106D01*
X178773Y-193467D01*
X178106Y-193800D02*
X177440D01*
X177773D01*
Y-191801D01*
X178106Y-192134D01*
X176440D02*
X176107Y-191801D01*
X175440D01*
X175107Y-192134D01*
Y-193467D01*
X175440Y-193800D01*
X176107D01*
X176440Y-193467D01*
Y-192134D01*
X173441Y-193800D02*
Y-191801D01*
X174441Y-192800D01*
X173108D01*
X178867Y-201134D02*
X179200Y-200801D01*
X179867D01*
X180200Y-201134D01*
Y-202467D01*
X179867Y-202800D01*
X179200D01*
X178867Y-202467D01*
X178201Y-202800D02*
X177534D01*
X177867D01*
Y-200801D01*
X178201Y-201134D01*
X176534D02*
X176201Y-200801D01*
X175535D01*
X175202Y-201134D01*
Y-202467D01*
X175535Y-202800D01*
X176201D01*
X176534Y-202467D01*
Y-201134D01*
X174535D02*
X174202Y-200801D01*
X173536D01*
X173202Y-201134D01*
Y-201467D01*
X173536Y-201800D01*
X173869D01*
X173536D01*
X173202Y-202133D01*
Y-202467D01*
X173536Y-202800D01*
X174202D01*
X174535Y-202467D01*
X83667Y-272434D02*
X84000Y-272101D01*
X84667D01*
X85000Y-272434D01*
Y-273767D01*
X84667Y-274100D01*
X84000D01*
X83667Y-273767D01*
X83001Y-274100D02*
X82334D01*
X82667D01*
Y-272101D01*
X83001Y-272434D01*
X81335D02*
X81001Y-272101D01*
X80335D01*
X80002Y-272434D01*
Y-273767D01*
X80335Y-274100D01*
X81001D01*
X81335Y-273767D01*
Y-272434D01*
X78002Y-274100D02*
X79335D01*
X78002Y-272767D01*
Y-272434D01*
X78335Y-272101D01*
X79002D01*
X79335Y-272434D01*
X95667Y-266434D02*
X96000Y-266101D01*
X96667D01*
X97000Y-266434D01*
Y-267767D01*
X96667Y-268100D01*
X96000D01*
X95667Y-267767D01*
X95001Y-268100D02*
X94334D01*
X94667D01*
Y-266101D01*
X95001Y-266434D01*
X93335D02*
X93001Y-266101D01*
X92335D01*
X92002Y-266434D01*
Y-267767D01*
X92335Y-268100D01*
X93001D01*
X93335Y-267767D01*
Y-266434D01*
X91335Y-268100D02*
X90669D01*
X91002D01*
Y-266101D01*
X91335Y-266434D01*
D109*
X43500Y-57700D02*
Y-20300D01*
Y-57700D02*
X63500D01*
Y-20300D01*
X43500D02*
X63500D01*
D110*
X100500Y-273500D02*
D03*
M02*
