%FSLAX25Y25*%
%MOIN*%
G70*
G01*
G75*
G04 Layer_Color=8388736*
%ADD10R,0.03937X0.03740*%
%ADD11R,0.03740X0.03937*%
%ADD12R,0.02362X0.05906*%
%ADD13R,0.02559X0.04331*%
%ADD14R,0.03150X0.02362*%
%ADD15R,0.08465X0.06693*%
%ADD16O,0.00945X0.02362*%
%ADD17R,0.05906X0.07480*%
%ADD18R,0.03150X0.03150*%
%ADD19R,0.04724X0.07874*%
%ADD20O,0.02362X0.00984*%
%ADD21R,0.06300X0.05000*%
%ADD22R,0.04724X0.03937*%
%ADD23R,0.08661X0.03937*%
%ADD24R,0.04331X0.02559*%
%ADD25O,0.02362X0.06299*%
%ADD26O,0.06299X0.02362*%
%ADD27C,0.01000*%
%ADD28C,0.02000*%
%ADD29C,0.01500*%
%ADD30C,0.06300*%
%ADD31C,0.03500*%
%ADD32C,0.02200*%
%ADD33C,0.06500*%
%ADD34C,0.04500*%
%ADD35C,0.06000*%
%ADD36C,0.04000*%
%ADD37R,0.01732X0.00787*%
%ADD38C,0.06000*%
%ADD39C,0.08700*%
%ADD40R,0.05906X0.05906*%
%ADD41C,0.05906*%
%ADD42R,0.06496X0.06496*%
%ADD43C,0.06496*%
%ADD44R,0.05906X0.05906*%
%ADD45R,0.06496X0.06496*%
%ADD46C,0.02000*%
%ADD47C,0.01969*%
%ADD48C,0.05000*%
%ADD49R,0.20079X0.70079*%
%ADD50R,0.32677X0.41142*%
%ADD51R,0.12598X0.04134*%
%ADD52R,0.20866X0.06299*%
%ADD53R,0.08500X0.10799*%
%ADD54R,0.07717X0.12402*%
%ADD55R,0.07284X0.05118*%
%ADD56R,0.11024X0.03937*%
%ADD57R,0.02500X0.04200*%
%ADD58C,0.00799*%
%ADD59C,0.00984*%
%ADD60C,0.00700*%
%ADD61C,0.00800*%
%ADD62C,0.00787*%
%ADD63C,0.00669*%
%ADD64C,0.00701*%
%ADD65C,0.00600*%
%ADD66R,0.02000X0.04000*%
%ADD67R,0.01000X0.11000*%
%ADD68R,0.10350X0.01000*%
%ADD69R,0.04000X0.02000*%
%ADD70R,0.00886X0.03937*%
%ADD71R,0.03839X0.06102*%
%ADD72R,0.04433X0.07043*%
%ADD73R,0.02362X0.02756*%
%ADD74R,0.00000X0.03150*%
%ADD75R,0.00000X0.00000*%
%ADD76R,0.04337X0.04140*%
%ADD77R,0.04140X0.04337*%
%ADD78R,0.02762X0.06306*%
%ADD79R,0.02959X0.04731*%
%ADD80R,0.03550X0.02762*%
%ADD81R,0.08865X0.07093*%
%ADD82O,0.01345X0.02762*%
%ADD83R,0.06306X0.07880*%
%ADD84R,0.03550X0.03550*%
%ADD85R,0.05124X0.08274*%
%ADD86O,0.02762X0.01384*%
%ADD87R,0.06700X0.05400*%
%ADD88R,0.05124X0.04337*%
%ADD89R,0.09061X0.04337*%
%ADD90R,0.04731X0.02959*%
%ADD91O,0.02762X0.06699*%
%ADD92O,0.06699X0.02762*%
%ADD93R,0.02132X0.01187*%
%ADD94C,0.09100*%
%ADD95R,0.06306X0.06306*%
%ADD96C,0.06306*%
%ADD97R,0.06306X0.06306*%
%ADD98C,0.02362*%
%ADD99C,0.02369*%
%ADD100C,0.05400*%
G36*
X88612Y-238663D02*
Y-240237D01*
Y-241763D01*
Y-245187D01*
X83388D01*
Y-241763D01*
Y-240237D01*
Y-238663D01*
Y-236813D01*
X88612D01*
Y-238663D01*
D02*
G37*
G36*
X88112Y-259163D02*
Y-260737D01*
Y-262263D01*
Y-265687D01*
X82888D01*
Y-262263D01*
Y-260737D01*
Y-259163D01*
Y-257313D01*
X88112D01*
Y-259163D01*
D02*
G37*
%LPC*%
G36*
X86287Y-262263D02*
X84713D01*
Y-263837D01*
X86287D01*
Y-262263D01*
D02*
G37*
G36*
X86787Y-238663D02*
X85213D01*
Y-240237D01*
X86787D01*
Y-238663D01*
D02*
G37*
G36*
Y-241763D02*
X85213D01*
Y-243337D01*
X86787D01*
Y-241763D01*
D02*
G37*
G36*
X86287Y-259163D02*
X84713D01*
Y-260737D01*
X86287D01*
Y-259163D01*
D02*
G37*
%LPD*%
D42*
X7500Y-277500D02*
D03*
X197500D02*
D03*
Y-77500D02*
D03*
X7500D02*
D03*
D43*
X17500Y-277500D02*
D03*
X7500Y-287500D02*
D03*
X17500D02*
D03*
X7500Y-297500D02*
D03*
X17500D02*
D03*
X207500Y-277500D02*
D03*
X197500Y-287500D02*
D03*
X207500D02*
D03*
X197500Y-297500D02*
D03*
X207500D02*
D03*
Y-267500D02*
D03*
X197500D02*
D03*
X207500Y-257500D02*
D03*
X197500D02*
D03*
X207500Y-247500D02*
D03*
X197500D02*
D03*
X207500Y-237500D02*
D03*
X197500D02*
D03*
X207500Y-227500D02*
D03*
X197500D02*
D03*
X207500Y-217500D02*
D03*
X197500D02*
D03*
X207500Y-207500D02*
D03*
X197500D02*
D03*
X207500Y-197500D02*
D03*
X197500D02*
D03*
X207500Y-187500D02*
D03*
X197500D02*
D03*
X207500Y-177500D02*
D03*
X197500D02*
D03*
X207500Y-137500D02*
D03*
X197500D02*
D03*
X207500Y-127500D02*
D03*
X197500D02*
D03*
X207500Y-117500D02*
D03*
X197500D02*
D03*
X207500Y-107500D02*
D03*
X197500D02*
D03*
X207500Y-97500D02*
D03*
X197500D02*
D03*
X207500Y-87500D02*
D03*
X197500D02*
D03*
X207500Y-77500D02*
D03*
X197500Y-147500D02*
D03*
X207500D02*
D03*
X197500Y-157500D02*
D03*
X207500D02*
D03*
X197500Y-167500D02*
D03*
X207500D02*
D03*
X17500Y-267500D02*
D03*
X7500D02*
D03*
X17500Y-257500D02*
D03*
X7500D02*
D03*
X17500Y-247500D02*
D03*
X7500D02*
D03*
X17500Y-237500D02*
D03*
X7500D02*
D03*
X17500Y-227500D02*
D03*
X7500D02*
D03*
X17500Y-217500D02*
D03*
X7500D02*
D03*
X17500Y-207500D02*
D03*
X7500D02*
D03*
X17500Y-197500D02*
D03*
X7500D02*
D03*
X17500Y-187500D02*
D03*
X7500D02*
D03*
X17500Y-177500D02*
D03*
X7500D02*
D03*
X17500Y-137500D02*
D03*
X7500D02*
D03*
X17500Y-127500D02*
D03*
X7500D02*
D03*
X17500Y-117500D02*
D03*
X7500D02*
D03*
X17500Y-107500D02*
D03*
X7500D02*
D03*
X17500Y-97500D02*
D03*
X7500D02*
D03*
X17500Y-87500D02*
D03*
X7500D02*
D03*
X17500Y-77500D02*
D03*
X7500Y-147500D02*
D03*
X17500D02*
D03*
X7500Y-157500D02*
D03*
X17500D02*
D03*
X7500Y-167500D02*
D03*
X17500D02*
D03*
X173500Y-320000D02*
D03*
D45*
X163500D02*
D03*
D76*
X88850Y-286150D02*
D03*
X95150D02*
D03*
X110650Y-290000D02*
D03*
X104350D02*
D03*
X146350Y-292500D02*
D03*
X152650D02*
D03*
X156799Y-267500D02*
D03*
X150500D02*
D03*
X156799Y-260500D02*
D03*
X150500D02*
D03*
X51000Y-118500D02*
D03*
X57299D02*
D03*
X117850Y-235000D02*
D03*
X124150D02*
D03*
X117701Y-227000D02*
D03*
X124000D02*
D03*
X57650Y-90500D02*
D03*
X51350D02*
D03*
X57150Y-97500D02*
D03*
X50850D02*
D03*
X57150Y-104500D02*
D03*
X50850D02*
D03*
X51000Y-111500D02*
D03*
X57299D02*
D03*
D77*
X136000Y-286150D02*
D03*
Y-279850D02*
D03*
X128500Y-279850D02*
D03*
Y-286150D02*
D03*
X152500Y-306500D02*
D03*
Y-300201D02*
D03*
X159500Y-306500D02*
D03*
Y-300201D02*
D03*
X166500Y-306500D02*
D03*
Y-300201D02*
D03*
D78*
X172740Y-193760D02*
D03*
X165260D02*
D03*
X169000Y-201240D02*
D03*
D79*
X151740Y-250724D02*
D03*
X148000D02*
D03*
X144260D02*
D03*
Y-241276D02*
D03*
X148000D02*
D03*
X151740D02*
D03*
X184980Y-307276D02*
D03*
X181240D02*
D03*
X177500D02*
D03*
Y-297827D02*
D03*
X181240D02*
D03*
X184980D02*
D03*
X117260Y-314724D02*
D03*
X121000D02*
D03*
X124740D02*
D03*
Y-305276D02*
D03*
X117260D02*
D03*
D80*
X172638Y-178500D02*
D03*
X177362D02*
D03*
X177362Y-184500D02*
D03*
X172638D02*
D03*
D81*
X148500Y-281000D02*
D03*
D82*
X144563Y-275488D02*
D03*
X146531D02*
D03*
X150469D02*
D03*
X148500D02*
D03*
X152437D02*
D03*
Y-286512D02*
D03*
X148500D02*
D03*
X150469D02*
D03*
X146531D02*
D03*
X144563D02*
D03*
D83*
X167500Y-272929D02*
D03*
Y-289071D02*
D03*
D84*
X101547Y-254500D02*
D03*
X107453D02*
D03*
X101547Y-260000D02*
D03*
X107453D02*
D03*
X101547Y-277500D02*
D03*
X107453D02*
D03*
X101547Y-283500D02*
D03*
X107453D02*
D03*
X101594Y-243500D02*
D03*
X107500D02*
D03*
X101547Y-249000D02*
D03*
X107453D02*
D03*
X101547Y-271500D02*
D03*
X107453D02*
D03*
X101547Y-265500D02*
D03*
X107453D02*
D03*
D85*
X85500Y-261500D02*
D03*
X86000Y-241000D02*
D03*
D86*
X90028Y-257563D02*
D03*
Y-259531D02*
D03*
Y-261500D02*
D03*
Y-263469D02*
D03*
Y-265437D02*
D03*
X80972D02*
D03*
Y-263469D02*
D03*
Y-261500D02*
D03*
Y-259531D02*
D03*
Y-257563D02*
D03*
X90528Y-237063D02*
D03*
Y-239032D02*
D03*
Y-241000D02*
D03*
Y-242969D02*
D03*
Y-244937D02*
D03*
X81472D02*
D03*
Y-242969D02*
D03*
Y-241000D02*
D03*
Y-239032D02*
D03*
Y-237063D02*
D03*
D87*
X107350Y-235000D02*
D03*
Y-227000D02*
D03*
D88*
X68500Y-235000D02*
D03*
D89*
X62000Y-229095D02*
D03*
Y-240905D02*
D03*
D90*
X50791Y-265240D02*
D03*
Y-261500D02*
D03*
Y-257760D02*
D03*
X60240D02*
D03*
Y-261500D02*
D03*
Y-265240D02*
D03*
D91*
X138996Y-217244D02*
D03*
X135059D02*
D03*
X131122D02*
D03*
X127185D02*
D03*
X123248D02*
D03*
X119311D02*
D03*
X115374D02*
D03*
X111437D02*
D03*
X107500D02*
D03*
X103563D02*
D03*
X99626D02*
D03*
X95689D02*
D03*
X91752D02*
D03*
X87815D02*
D03*
X83878D02*
D03*
X79941D02*
D03*
X76004D02*
D03*
Y-122756D02*
D03*
X79941D02*
D03*
X83878D02*
D03*
X87815D02*
D03*
X91752D02*
D03*
X95689D02*
D03*
X99626D02*
D03*
X103563D02*
D03*
X107500D02*
D03*
X111437D02*
D03*
X115374D02*
D03*
X119311D02*
D03*
X123248D02*
D03*
X127185D02*
D03*
X131122D02*
D03*
X135059D02*
D03*
X138996D02*
D03*
D92*
X60256Y-201496D02*
D03*
Y-197559D02*
D03*
Y-193622D02*
D03*
Y-189685D02*
D03*
Y-185748D02*
D03*
Y-181811D02*
D03*
Y-177874D02*
D03*
Y-173937D02*
D03*
Y-170000D02*
D03*
Y-166063D02*
D03*
Y-162126D02*
D03*
Y-158189D02*
D03*
Y-154252D02*
D03*
Y-150315D02*
D03*
Y-146378D02*
D03*
Y-142441D02*
D03*
Y-138504D02*
D03*
X154744D02*
D03*
Y-142441D02*
D03*
Y-146378D02*
D03*
Y-150315D02*
D03*
Y-154252D02*
D03*
Y-158189D02*
D03*
Y-162126D02*
D03*
Y-166063D02*
D03*
Y-170000D02*
D03*
Y-173937D02*
D03*
Y-177874D02*
D03*
Y-181811D02*
D03*
Y-185748D02*
D03*
Y-189685D02*
D03*
Y-193622D02*
D03*
Y-197559D02*
D03*
Y-201496D02*
D03*
D93*
X153539Y-278638D02*
D03*
X153539Y-280213D02*
D03*
Y-281787D02*
D03*
X153539Y-283363D02*
D03*
X143461D02*
D03*
X143460Y-281787D02*
D03*
Y-280213D02*
D03*
X143461Y-278638D02*
D03*
D94*
X18000Y-320000D02*
D03*
X12500Y-17000D02*
D03*
X45500Y-277500D02*
D03*
D95*
X173500Y-101000D02*
D03*
X17000Y-54000D02*
D03*
D96*
X173500Y-91000D02*
D03*
X17000Y-64000D02*
D03*
X75500Y-74000D02*
D03*
X162500D02*
D03*
D97*
X65500D02*
D03*
X172500D02*
D03*
D98*
X151748Y-281000D02*
D03*
X148500Y-278638D02*
D03*
X145252Y-281000D02*
D03*
D99*
X148500Y-283362D02*
D03*
X85500Y-259950D02*
D03*
Y-263050D02*
D03*
X86000Y-239450D02*
D03*
Y-242550D02*
D03*
D100*
X92000Y-226500D02*
D03*
X139000Y-138500D02*
D03*
M02*
