%FSLAX25Y25*%
%MOIN*%
G70*
G01*
G75*
G04 Layer_Color=16711935*
%ADD10R,0.03937X0.03740*%
%ADD11R,0.03740X0.03937*%
%ADD12R,0.02362X0.05906*%
%ADD13R,0.02559X0.04331*%
%ADD14R,0.03150X0.02362*%
%ADD15R,0.08465X0.06693*%
%ADD16O,0.00945X0.02362*%
%ADD17R,0.05906X0.07480*%
%ADD18R,0.03150X0.03150*%
%ADD19R,0.04724X0.07874*%
%ADD20O,0.02362X0.00984*%
%ADD21R,0.06300X0.05000*%
%ADD22R,0.04724X0.03937*%
%ADD23R,0.08661X0.03937*%
%ADD24R,0.04331X0.02559*%
%ADD25O,0.02362X0.06299*%
%ADD26O,0.06299X0.02362*%
%ADD27C,0.01000*%
%ADD28C,0.02000*%
%ADD29C,0.01500*%
%ADD30C,0.06300*%
%ADD31C,0.03500*%
%ADD32C,0.02200*%
%ADD33C,0.06500*%
%ADD34C,0.04500*%
%ADD35C,0.06000*%
%ADD36C,0.04000*%
%ADD37R,0.01732X0.00787*%
%ADD38C,0.06000*%
%ADD39C,0.08700*%
%ADD40R,0.05906X0.05906*%
%ADD41C,0.05906*%
%ADD42R,0.06496X0.06496*%
%ADD43C,0.06496*%
%ADD44R,0.05906X0.05906*%
%ADD45R,0.06496X0.06496*%
%ADD46C,0.02000*%
%ADD47C,0.01969*%
%ADD48C,0.05000*%
%ADD49R,0.20079X0.70079*%
%ADD50R,0.32677X0.41142*%
%ADD51R,0.12598X0.04134*%
%ADD52R,0.20866X0.06299*%
%ADD53R,0.08500X0.10799*%
%ADD54R,0.07717X0.12402*%
%ADD55R,0.07284X0.05118*%
%ADD56R,0.11024X0.03937*%
%ADD57R,0.02500X0.04200*%
%ADD58C,0.00799*%
%ADD59C,0.00984*%
%ADD60C,0.00700*%
%ADD61C,0.00800*%
%ADD62C,0.00787*%
%ADD63C,0.00669*%
%ADD64C,0.00701*%
%ADD65C,0.00600*%
%ADD66R,0.02000X0.04000*%
%ADD67R,0.01000X0.11000*%
%ADD68R,0.10350X0.01000*%
%ADD69R,0.04000X0.02000*%
%ADD70R,0.00886X0.03937*%
%ADD71R,0.03839X0.06102*%
%ADD72R,0.04433X0.07043*%
%ADD73R,0.02362X0.02756*%
%ADD74R,0.00000X0.03150*%
%ADD75R,0.00000X0.00000*%
%ADD76R,0.04337X0.04140*%
%ADD77R,0.04140X0.04337*%
%ADD78R,0.02762X0.06306*%
%ADD79R,0.02959X0.04731*%
%ADD80R,0.03550X0.02762*%
%ADD81R,0.08865X0.07093*%
%ADD82O,0.01345X0.02762*%
%ADD83R,0.06306X0.07880*%
%ADD84R,0.03550X0.03550*%
%ADD85R,0.05124X0.08274*%
%ADD86O,0.02762X0.01384*%
%ADD87R,0.06700X0.05400*%
%ADD88R,0.05124X0.04337*%
%ADD89R,0.09061X0.04337*%
%ADD90R,0.04731X0.02959*%
%ADD91O,0.02762X0.06699*%
%ADD92O,0.06699X0.02762*%
%ADD93R,0.02132X0.01187*%
%ADD94C,0.09100*%
%ADD95R,0.06306X0.06306*%
%ADD96C,0.06306*%
%ADD97R,0.06306X0.06306*%
%ADD98C,0.02362*%
%ADD99C,0.02369*%
%ADD100C,0.05400*%
%ADD101R,0.20479X0.70479*%
%ADD102R,0.33077X0.41542*%
%ADD103R,0.12998X0.04534*%
%ADD104R,0.21266X0.06699*%
%ADD105R,0.08900X0.11199*%
%ADD106R,0.08117X0.12802*%
%ADD107R,0.07684X0.05518*%
%ADD108R,0.11424X0.04337*%
%ADD109R,0.02900X0.04600*%
%ADD110C,0.02400*%
%ADD111C,0.00500*%
%ADD112R,0.02000X0.16400*%
%ADD113C,0.00394*%
%ADD114C,0.00197*%
%ADD115C,0.00400*%
%ADD116C,0.00300*%
%ADD117C,0.00236*%
%ADD118C,0.00276*%
%ADD119R,0.04000X0.04000*%
%ADD120R,0.00787X0.03740*%
D59*
X154693Y-241472D02*
G03*
X154693Y-241472I-492J0D01*
G01*
X187933Y-298024D02*
G03*
X187933Y-298024I-492J0D01*
G01*
X103791Y-287197D02*
G03*
X103791Y-287197I-492J0D01*
G01*
Y-303472D02*
G03*
X103791Y-303472I-492J0D01*
G01*
X155449Y-324449D02*
G03*
X155449Y-324449I-492J0D01*
G01*
X60535Y-267701D02*
G03*
X60535Y-267701I-492J0D01*
G01*
D65*
X97498Y-284650D02*
Y-287649D01*
X95999D01*
X95499Y-287149D01*
Y-286150D01*
X95999Y-285650D01*
X97498D01*
X96499D02*
X95499Y-284650D01*
X94499D02*
X93499D01*
X93999D01*
Y-287649D01*
X94499Y-287149D01*
X92000D02*
X91500Y-287649D01*
X90500D01*
X90001Y-287149D01*
Y-285150D01*
X90500Y-284650D01*
X91500D01*
X92000Y-285150D01*
Y-287149D01*
X87501Y-284650D02*
Y-287649D01*
X89001Y-286150D01*
X87002D01*
X102002Y-291499D02*
Y-288500D01*
X103501D01*
X104001Y-289000D01*
Y-290000D01*
X103501Y-290500D01*
X102002D01*
X103001D02*
X104001Y-291499D01*
X105001D02*
X106000D01*
X105501D01*
Y-288500D01*
X105001Y-289000D01*
X107500D02*
X108000Y-288500D01*
X109000D01*
X109499Y-289000D01*
Y-291000D01*
X109000Y-291499D01*
X108000D01*
X107500Y-291000D01*
Y-289000D01*
X112498Y-288500D02*
X110499D01*
Y-290000D01*
X111499Y-289500D01*
X111999D01*
X112498Y-290000D01*
Y-291000D01*
X111999Y-291499D01*
X110999D01*
X110499Y-291000D01*
X17834Y-324167D02*
X17501Y-324500D01*
Y-325167D01*
X17834Y-325500D01*
X19167D01*
X19500Y-325167D01*
Y-324500D01*
X19167Y-324167D01*
X18500D01*
Y-324834D01*
X19500Y-323501D02*
X17501D01*
X19500Y-322168D01*
X17501D01*
Y-321501D02*
X19500D01*
Y-320502D01*
X19167Y-320168D01*
X17834D01*
X17501Y-320502D01*
Y-321501D01*
X19500Y-319502D02*
Y-318835D01*
Y-319169D01*
X17501D01*
X17834Y-319502D01*
X173501Y-102667D02*
Y-103333D01*
Y-103000D01*
X175167D01*
X175500Y-103333D01*
Y-103667D01*
X175167Y-104000D01*
X175500Y-101001D02*
X173501D01*
X174500Y-102001D01*
Y-100668D01*
X10500Y-280500D02*
X12499D01*
Y-281500D01*
X12166Y-281833D01*
X11500D01*
X11167Y-281500D01*
Y-280500D01*
X10500Y-283832D02*
Y-282499D01*
X11833Y-283832D01*
X12166D01*
X12499Y-283499D01*
Y-282833D01*
X12166Y-282499D01*
X200500Y-280500D02*
X202499D01*
Y-281500D01*
X202166Y-281833D01*
X201500D01*
X201167Y-281500D01*
Y-280500D01*
X200500Y-283499D02*
X202499D01*
X201500Y-282499D01*
Y-283832D01*
X200500Y-166500D02*
X202499D01*
Y-167500D01*
X202166Y-167833D01*
X201500D01*
X201167Y-167500D01*
Y-166500D01*
X202166Y-168499D02*
X202499Y-168833D01*
Y-169499D01*
X202166Y-169832D01*
X201833D01*
X201500Y-169499D01*
Y-169166D01*
Y-169499D01*
X201167Y-169832D01*
X200833D01*
X200500Y-169499D01*
Y-168833D01*
X200833Y-168499D01*
X16999Y-52333D02*
Y-51666D01*
Y-52000D01*
X15333D01*
X15000Y-51666D01*
Y-51333D01*
X15333Y-51000D01*
X15000Y-52999D02*
Y-53666D01*
Y-53333D01*
X16999D01*
X16666Y-52999D01*
X63833Y-74001D02*
X63166D01*
X63500D01*
Y-75667D01*
X63166Y-76000D01*
X62833D01*
X62500Y-75667D01*
X65832Y-74001D02*
X65166Y-74334D01*
X64499Y-75000D01*
Y-75667D01*
X64833Y-76000D01*
X65499D01*
X65832Y-75667D01*
Y-75334D01*
X65499Y-75000D01*
X64499D01*
X135833Y-287165D02*
X135500Y-287498D01*
Y-288165D01*
X135833Y-288498D01*
X137166D01*
X137499Y-288165D01*
Y-287498D01*
X137166Y-287165D01*
X135500Y-286499D02*
Y-285166D01*
X135833D01*
X137166Y-286499D01*
X137499D01*
X14000Y-22500D02*
Y-21834D01*
Y-22167D01*
X12001D01*
X12334Y-22500D01*
X10500Y-166500D02*
X12499D01*
Y-167500D01*
X12166Y-167833D01*
X11500D01*
X11167Y-167500D01*
Y-166500D01*
X10500Y-168499D02*
Y-169166D01*
Y-168833D01*
X12499D01*
X12166Y-168499D01*
X45001Y-283000D02*
X46334D01*
X47000Y-282334D01*
X46334Y-281667D01*
X45001D01*
Y-281001D02*
X47000D01*
Y-280001D01*
X46667Y-279668D01*
X46334D01*
X46000Y-280001D01*
Y-281001D01*
Y-280001D01*
X45667Y-279668D01*
X45334D01*
X45001Y-280001D01*
Y-281001D01*
X47000Y-279001D02*
X45667D01*
X45001Y-278335D01*
X45667Y-277668D01*
X47000D01*
X46000D01*
Y-279001D01*
X45001Y-277002D02*
Y-275669D01*
Y-276336D01*
X47000D01*
Y-275003D02*
Y-274336D01*
Y-274669D01*
X45001D01*
X45334Y-275003D01*
X174167Y-73999D02*
X174834D01*
X174500D01*
Y-72333D01*
X174834Y-72000D01*
X175167D01*
X175500Y-72333D01*
X173501Y-73666D02*
X173167Y-73999D01*
X172501D01*
X172168Y-73666D01*
Y-73333D01*
X172501Y-73000D01*
X172834D01*
X172501D01*
X172168Y-72666D01*
Y-72333D01*
X172501Y-72000D01*
X173167D01*
X173501Y-72333D01*
X172490Y-197144D02*
Y-198477D01*
X172823Y-198810D01*
X173490D01*
X173823Y-198477D01*
Y-197144D01*
X173490Y-196811D01*
X172823D01*
X173156Y-197477D02*
X172490Y-196811D01*
X172823D02*
X172490Y-197144D01*
X171824Y-196811D02*
X171157D01*
X171490D01*
Y-198810D01*
X171824Y-198477D01*
X151391Y-245152D02*
Y-246485D01*
X151725Y-246818D01*
X152391D01*
X152724Y-246485D01*
Y-245152D01*
X152391Y-244819D01*
X151725D01*
X152058Y-245485D02*
X151391Y-244819D01*
X151725D02*
X151391Y-245152D01*
X150725Y-244819D02*
X150059D01*
X150392D01*
Y-246818D01*
X150725Y-246485D01*
X149059D02*
X148726Y-246818D01*
X148059D01*
X147726Y-246485D01*
Y-245152D01*
X148059Y-244819D01*
X148726D01*
X149059Y-245152D01*
Y-246485D01*
X145727Y-244819D02*
X147060D01*
X145727Y-246152D01*
Y-246485D01*
X146060Y-246818D01*
X146726D01*
X147060Y-246485D01*
X127000Y-277502D02*
X129000D01*
Y-278502D01*
X128667Y-278835D01*
X128000D01*
X127667Y-278502D01*
Y-277502D01*
Y-278168D02*
X127000Y-278835D01*
X129000Y-280834D02*
X128667Y-280168D01*
X128000Y-279501D01*
X127334D01*
X127000Y-279834D01*
Y-280501D01*
X127334Y-280834D01*
X127667D01*
X128000Y-280501D01*
Y-279501D01*
X144002Y-294000D02*
Y-292000D01*
X145001D01*
X145335Y-292333D01*
Y-293000D01*
X145001Y-293333D01*
X144002D01*
X144668D02*
X145335Y-294000D01*
X147334Y-292000D02*
X146001D01*
Y-293000D01*
X146668Y-292667D01*
X147001D01*
X147334Y-293000D01*
Y-293666D01*
X147001Y-294000D01*
X146334D01*
X146001Y-293666D01*
X152333Y-307516D02*
X152000Y-307849D01*
Y-308515D01*
X152333Y-308849D01*
X153666D01*
X153999Y-308515D01*
Y-307849D01*
X153666Y-307516D01*
X152000Y-305516D02*
Y-306849D01*
X153000D01*
X152667Y-306183D01*
Y-305850D01*
X153000Y-305516D01*
X153666D01*
X153999Y-305850D01*
Y-306516D01*
X153666Y-306849D01*
X159333Y-307516D02*
X159000Y-307849D01*
Y-308515D01*
X159333Y-308849D01*
X160666D01*
X161000Y-308515D01*
Y-307849D01*
X160666Y-307516D01*
X159333Y-306849D02*
X159000Y-306516D01*
Y-305850D01*
X159333Y-305516D01*
X159667D01*
X160000Y-305850D01*
Y-306183D01*
Y-305850D01*
X160333Y-305516D01*
X160666D01*
X161000Y-305850D01*
Y-306516D01*
X160666Y-306849D01*
X166333Y-307516D02*
X166000Y-307849D01*
Y-308515D01*
X166333Y-308849D01*
X167666D01*
X167999Y-308515D01*
Y-307849D01*
X167666Y-307516D01*
X167999Y-305850D02*
X166000D01*
X167000Y-306849D01*
Y-305516D01*
X184632Y-301703D02*
Y-303036D01*
X184965Y-303369D01*
X185631D01*
X185965Y-303036D01*
Y-301703D01*
X185631Y-301370D01*
X184965D01*
X185298Y-302036D02*
X184632Y-301370D01*
X184965D02*
X184632Y-301703D01*
X183965Y-301370D02*
X183299D01*
X183632D01*
Y-303369D01*
X183965Y-303036D01*
X182299D02*
X181966Y-303369D01*
X181299D01*
X180966Y-303036D01*
Y-301703D01*
X181299Y-301370D01*
X181966D01*
X182299Y-301703D01*
Y-303036D01*
X180300D02*
X179966Y-303369D01*
X179300D01*
X178967Y-303036D01*
Y-302703D01*
X179300Y-302370D01*
X179633D01*
X179300D01*
X178967Y-302036D01*
Y-301703D01*
X179300Y-301370D01*
X179966D01*
X180300Y-301703D01*
X157815Y-267667D02*
X158148Y-268000D01*
X158815D01*
X159148Y-267667D01*
Y-266334D01*
X158815Y-266001D01*
X158148D01*
X157815Y-266334D01*
X155816Y-266001D02*
X157149D01*
X155816Y-267333D01*
Y-267667D01*
X156149Y-268000D01*
X156815D01*
X157149Y-267667D01*
X157815Y-260667D02*
X158148Y-261000D01*
X158815D01*
X159148Y-260667D01*
Y-259334D01*
X158815Y-259000D01*
X158148D01*
X157815Y-259334D01*
X157149Y-259000D02*
X156482D01*
X156815D01*
Y-261000D01*
X157149Y-260667D01*
X170601Y-179700D02*
Y-177700D01*
X171601D01*
X171934Y-178033D01*
Y-178700D01*
X171601Y-179033D01*
X170601D01*
X171268D02*
X171934Y-179700D01*
X172601Y-178033D02*
X172934Y-177700D01*
X173600D01*
X173934Y-178033D01*
Y-178367D01*
X173600Y-178700D01*
X173934Y-179033D01*
Y-179366D01*
X173600Y-179700D01*
X172934D01*
X172601Y-179366D01*
Y-179033D01*
X172934Y-178700D01*
X172601Y-178367D01*
Y-178033D01*
X172934Y-178700D02*
X173600D01*
X48651Y-120000D02*
Y-118000D01*
X49651D01*
X49984Y-118333D01*
Y-119000D01*
X49651Y-119333D01*
X48651D01*
X49318D02*
X49984Y-120000D01*
X50651Y-118333D02*
X50984Y-118000D01*
X51650D01*
X51984Y-118333D01*
Y-118667D01*
X51650Y-119000D01*
X51317D01*
X51650D01*
X51984Y-119333D01*
Y-119666D01*
X51650Y-120000D01*
X50984D01*
X50651Y-119666D01*
X149023Y-275488D02*
X147357D01*
X147024Y-275821D01*
Y-276488D01*
X147357Y-276821D01*
X149023D01*
X147024Y-277487D02*
Y-278154D01*
Y-277821D01*
X149023D01*
X148690Y-277487D01*
X167531Y-273913D02*
X165532D01*
Y-275246D01*
Y-275913D02*
Y-276579D01*
Y-276246D01*
X167531D01*
X167198Y-275913D01*
X86500Y-204499D02*
Y-202500D01*
X87833D01*
X88499D02*
X89166D01*
X88833D01*
Y-204499D01*
X88499Y-204166D01*
X90166D02*
X90499Y-204499D01*
X91165D01*
X91498Y-204166D01*
Y-202833D01*
X91165Y-202500D01*
X90499D01*
X90166Y-202833D01*
Y-204166D01*
X92165Y-202500D02*
X92831D01*
X92498D01*
Y-204499D01*
X92165Y-204166D01*
X72000Y-313001D02*
Y-314667D01*
X71667Y-315000D01*
X71000D01*
X70667Y-314667D01*
Y-313001D01*
X70001Y-315000D02*
X69334D01*
X69667D01*
Y-313001D01*
X70001Y-313334D01*
X68335D02*
X68001Y-313001D01*
X67335D01*
X67002Y-313334D01*
Y-314667D01*
X67335Y-315000D01*
X68001D01*
X68335Y-314667D01*
Y-313334D01*
X66335Y-315000D02*
X65669D01*
X66002D01*
Y-313001D01*
X66335Y-313334D01*
X101941Y-253879D02*
Y-255878D01*
X102941D01*
X103274Y-255545D01*
Y-254212D01*
X102941Y-253879D01*
X101941D01*
X105273D02*
X104607Y-254212D01*
X103940Y-254878D01*
Y-255545D01*
X104273Y-255878D01*
X104940D01*
X105273Y-255545D01*
Y-255211D01*
X104940Y-254878D01*
X103940D01*
X101941Y-259379D02*
Y-261378D01*
X102941D01*
X103274Y-261045D01*
Y-259712D01*
X102941Y-259379D01*
X101941D01*
X105273D02*
X103940D01*
Y-260378D01*
X104607Y-260045D01*
X104940D01*
X105273Y-260378D01*
Y-261045D01*
X104940Y-261378D01*
X104273D01*
X103940Y-261045D01*
X81500Y-263001D02*
Y-264667D01*
X81833Y-265000D01*
X82500D01*
X82833Y-264667D01*
Y-263001D01*
X84832Y-265000D02*
X83499D01*
X84832Y-263667D01*
Y-263334D01*
X84499Y-263001D01*
X83833D01*
X83499Y-263334D01*
X101547Y-276288D02*
Y-278287D01*
X102547D01*
X102880Y-277954D01*
Y-276621D01*
X102547Y-276288D01*
X101547D01*
X104879Y-278287D02*
X103547D01*
X104879Y-276955D01*
Y-276621D01*
X104546Y-276288D01*
X103880D01*
X103547Y-276621D01*
X101547Y-282288D02*
Y-284287D01*
X102547D01*
X102880Y-283954D01*
Y-282621D01*
X102547Y-282288D01*
X101547D01*
X103547Y-284287D02*
X104213D01*
X103880D01*
Y-282288D01*
X103547Y-282621D01*
X116835Y-234833D02*
X116501Y-234500D01*
X115835D01*
X115502Y-234833D01*
Y-236166D01*
X115835Y-236500D01*
X116501D01*
X116835Y-236166D01*
X117501D02*
X117834Y-236500D01*
X118501D01*
X118834Y-236166D01*
Y-234833D01*
X118501Y-234500D01*
X117834D01*
X117501Y-234833D01*
Y-235167D01*
X117834Y-235500D01*
X118834D01*
X116685Y-226833D02*
X116352Y-226500D01*
X115685D01*
X115352Y-226833D01*
Y-228166D01*
X115685Y-228500D01*
X116352D01*
X116685Y-228166D01*
X117351Y-228500D02*
X118018D01*
X117685D01*
Y-226500D01*
X117351Y-226833D01*
X119018D02*
X119351Y-226500D01*
X120017D01*
X120351Y-226833D01*
Y-228166D01*
X120017Y-228500D01*
X119351D01*
X119018Y-228166D01*
Y-226833D01*
X109050Y-237400D02*
X107051D01*
Y-236400D01*
X107384Y-236067D01*
X108051D01*
X108384Y-236400D01*
Y-237400D01*
Y-236734D02*
X109050Y-236067D01*
Y-234401D02*
X107051D01*
X108051Y-235401D01*
Y-234068D01*
X101988Y-242879D02*
Y-244878D01*
X102988D01*
X103321Y-244545D01*
Y-243212D01*
X102988Y-242879D01*
X101988D01*
X103988D02*
X105320D01*
Y-243212D01*
X103988Y-244545D01*
Y-244878D01*
X101941Y-248379D02*
Y-250378D01*
X102941D01*
X103274Y-250045D01*
Y-248712D01*
X102941Y-248379D01*
X101941D01*
X103940Y-248712D02*
X104273Y-248379D01*
X104940D01*
X105273Y-248712D01*
Y-249045D01*
X104940Y-249378D01*
X105273Y-249711D01*
Y-250045D01*
X104940Y-250378D01*
X104273D01*
X103940Y-250045D01*
Y-249711D01*
X104273Y-249378D01*
X103940Y-249045D01*
Y-248712D01*
X104273Y-249378D02*
X104940D01*
X101547Y-270288D02*
Y-272287D01*
X102547D01*
X102880Y-271954D01*
Y-270621D01*
X102547Y-270288D01*
X101547D01*
X104546Y-272287D02*
Y-270288D01*
X103547Y-271288D01*
X104879D01*
X101547Y-264288D02*
Y-266287D01*
X102547D01*
X102880Y-265954D01*
Y-264621D01*
X102547Y-264288D01*
X101547D01*
X103547Y-264621D02*
X103880Y-264288D01*
X104546D01*
X104879Y-264621D01*
Y-264954D01*
X104546Y-265288D01*
X104213D01*
X104546D01*
X104879Y-265621D01*
Y-265954D01*
X104546Y-266287D01*
X103880D01*
X103547Y-265954D01*
X173969Y-230618D02*
X175969D01*
Y-231951D01*
Y-232617D02*
Y-233284D01*
Y-232951D01*
X173969D01*
X174302Y-232617D01*
Y-234284D02*
X173969Y-234617D01*
Y-235283D01*
X174302Y-235616D01*
X175635D01*
X175969Y-235283D01*
Y-234617D01*
X175635Y-234284D01*
X174302D01*
X175969Y-237616D02*
Y-236283D01*
X174636Y-237616D01*
X174302D01*
X173969Y-237283D01*
Y-236616D01*
X174302Y-236283D01*
X106108Y-290877D02*
Y-292209D01*
X105775Y-292543D01*
X105109D01*
X104776Y-292209D01*
Y-290877D01*
X105109Y-290543D01*
X105775D01*
X105442Y-291210D02*
X106108Y-290543D01*
X105775D02*
X106108Y-290877D01*
X108108Y-290543D02*
X106775D01*
X108108Y-291876D01*
Y-292209D01*
X107775Y-292543D01*
X107108D01*
X106775Y-292209D01*
X108774D02*
X109107Y-292543D01*
X109774D01*
X110107Y-292209D01*
Y-290877D01*
X109774Y-290543D01*
X109107D01*
X108774Y-290877D01*
Y-292209D01*
X110774Y-290543D02*
X111440D01*
X111107D01*
Y-292543D01*
X110774Y-292209D01*
X105900Y-273499D02*
Y-271500D01*
X106900D01*
X107233Y-271833D01*
Y-273166D01*
X106900Y-273499D01*
X105900D01*
X107899Y-271500D02*
X108566D01*
X108233D01*
Y-273499D01*
X107899Y-273166D01*
X109565D02*
X109899Y-273499D01*
X110565D01*
X110898Y-273166D01*
Y-271833D01*
X110565Y-271500D01*
X109899D01*
X109565Y-271833D01*
Y-273166D01*
X111565Y-271500D02*
X112231D01*
X111898D01*
Y-273499D01*
X111565Y-273166D01*
X106108Y-307152D02*
Y-308485D01*
X105775Y-308818D01*
X105109D01*
X104776Y-308485D01*
Y-307152D01*
X105109Y-306819D01*
X105775D01*
X105442Y-307485D02*
X106108Y-306819D01*
X105775D02*
X106108Y-307152D01*
X106775Y-306819D02*
X107441D01*
X107108D01*
Y-308818D01*
X106775Y-308485D01*
X108441D02*
X108774Y-308818D01*
X109441D01*
X109774Y-308485D01*
Y-307152D01*
X109441Y-306819D01*
X108774D01*
X108441Y-307152D01*
Y-308485D01*
X110440Y-306819D02*
X111107D01*
X110774D01*
Y-308818D01*
X110440Y-308485D01*
X131833Y-312499D02*
X130500D01*
Y-311500D01*
X131167D01*
X130500D01*
Y-310500D01*
X132499D02*
X133166D01*
X132833D01*
Y-312499D01*
X132499Y-312166D01*
X134166D02*
X134499Y-312499D01*
X135165D01*
X135498Y-312166D01*
Y-310833D01*
X135165Y-310500D01*
X134499D01*
X134166Y-310833D01*
Y-312166D01*
X136165Y-310500D02*
X136831D01*
X136498D01*
Y-312499D01*
X136165Y-312166D01*
X134501Y-297998D02*
X136500D01*
Y-296999D01*
X136167Y-296665D01*
X135500D01*
X135167Y-296999D01*
Y-297998D01*
Y-297332D02*
X134501Y-296665D01*
Y-295999D02*
Y-295332D01*
Y-295666D01*
X136500D01*
X136167Y-295999D01*
Y-294333D02*
X136500Y-294000D01*
Y-293333D01*
X136167Y-293000D01*
X134834D01*
X134501Y-293333D01*
Y-294000D01*
X134834Y-294333D01*
X136167D01*
Y-292333D02*
X136500Y-292000D01*
Y-291334D01*
X136167Y-291001D01*
X135833D01*
X135500Y-291334D01*
Y-291667D01*
Y-291334D01*
X135167Y-291001D01*
X134834D01*
X134501Y-291334D01*
Y-292000D01*
X134834Y-292333D01*
X134501Y-333498D02*
X136500D01*
Y-332499D01*
X136167Y-332165D01*
X135500D01*
X135167Y-332499D01*
Y-333498D01*
Y-332832D02*
X134501Y-332165D01*
Y-331499D02*
Y-330832D01*
Y-331166D01*
X136500D01*
X136167Y-331499D01*
Y-329833D02*
X136500Y-329500D01*
Y-328833D01*
X136167Y-328500D01*
X134834D01*
X134501Y-328833D01*
Y-329500D01*
X134834Y-329833D01*
X136167D01*
X134501Y-327833D02*
Y-327167D01*
Y-327500D01*
X136500D01*
X136167Y-327833D01*
X106000Y-328498D02*
X108000D01*
Y-327499D01*
X107667Y-327165D01*
X107000D01*
X106667Y-327499D01*
Y-328498D01*
Y-327832D02*
X106000Y-327165D01*
Y-326499D02*
Y-325832D01*
Y-326166D01*
X108000D01*
X107667Y-326499D01*
Y-324833D02*
X108000Y-324500D01*
Y-323833D01*
X107667Y-323500D01*
X106334D01*
X106000Y-323833D01*
Y-324500D01*
X106334Y-324833D01*
X107667D01*
X106000Y-321500D02*
Y-322833D01*
X107333Y-321500D01*
X107667D01*
X108000Y-321834D01*
Y-322500D01*
X107667Y-322833D01*
X92591Y-284974D02*
X92924Y-285307D01*
Y-285974D01*
X92591Y-286307D01*
X91258D01*
X90925Y-285974D01*
Y-285307D01*
X91258Y-284974D01*
X90925Y-284308D02*
Y-283641D01*
Y-283975D01*
X92924D01*
X92591Y-284308D01*
Y-282642D02*
X92924Y-282308D01*
Y-281642D01*
X92591Y-281309D01*
X91258D01*
X90925Y-281642D01*
Y-282308D01*
X91258Y-282642D01*
X92591D01*
X90925Y-280642D02*
Y-279976D01*
Y-280309D01*
X92924D01*
X92591Y-280642D01*
X82667Y-287165D02*
X83000Y-287498D01*
Y-288165D01*
X82667Y-288498D01*
X81334D01*
X81001Y-288165D01*
Y-287498D01*
X81334Y-287165D01*
X81001Y-286499D02*
Y-285832D01*
Y-286166D01*
X83000D01*
X82667Y-286499D01*
Y-284833D02*
X83000Y-284500D01*
Y-283833D01*
X82667Y-283500D01*
X81334D01*
X81001Y-283833D01*
Y-284500D01*
X81334Y-284833D01*
X82667D01*
X81001Y-281501D02*
Y-282833D01*
X82333Y-281501D01*
X82667D01*
X83000Y-281834D01*
Y-282500D01*
X82667Y-282833D01*
X170335Y-208667D02*
X170001Y-209000D01*
X169335D01*
X169002Y-208667D01*
Y-207334D01*
X169335Y-207000D01*
X170001D01*
X170335Y-207334D01*
X171001Y-207000D02*
X171668D01*
X171334D01*
Y-209000D01*
X171001Y-208667D01*
X172667D02*
X173001Y-209000D01*
X173667D01*
X174000Y-208667D01*
Y-207334D01*
X173667Y-207000D01*
X173001D01*
X172667Y-207334D01*
Y-208667D01*
X174667D02*
X175000Y-209000D01*
X175666D01*
X175999Y-208667D01*
Y-208333D01*
X175666Y-208000D01*
X175333D01*
X175666D01*
X175999Y-207667D01*
Y-207334D01*
X175666Y-207000D01*
X175000D01*
X174667Y-207334D01*
X170240Y-199667D02*
X169907Y-200000D01*
X169240D01*
X168907Y-199667D01*
Y-198334D01*
X169240Y-198001D01*
X169907D01*
X170240Y-198334D01*
X170907Y-198001D02*
X171573D01*
X171240D01*
Y-200000D01*
X170907Y-199667D01*
X172573D02*
X172906Y-200000D01*
X173573D01*
X173906Y-199667D01*
Y-198334D01*
X173573Y-198001D01*
X172906D01*
X172573Y-198334D01*
Y-199667D01*
X175572Y-198001D02*
Y-200000D01*
X174572Y-199000D01*
X175905D01*
X165166Y-318001D02*
X163833D01*
X164499D01*
Y-321334D01*
X163833Y-322000D01*
X163166D01*
X162500Y-321334D01*
X166499Y-322000D02*
X167832D01*
X167165D01*
Y-318001D01*
X166499Y-318668D01*
X169831D02*
X170497Y-318001D01*
X171830D01*
X172497Y-318668D01*
Y-321334D01*
X171830Y-322000D01*
X170497D01*
X169831Y-321334D01*
Y-318668D01*
X173830Y-322000D02*
X175163D01*
X174496D01*
Y-318001D01*
X173830Y-318668D01*
X56364Y-264892D02*
X55031D01*
X54698Y-265225D01*
Y-265891D01*
X55031Y-266224D01*
X56364D01*
X56697Y-265891D01*
Y-265225D01*
X56030Y-265558D02*
X56697Y-264892D01*
Y-265225D02*
X56364Y-264892D01*
X56697Y-264225D02*
Y-263559D01*
Y-263892D01*
X54698D01*
X55031Y-264225D01*
Y-262559D02*
X54698Y-262226D01*
Y-261559D01*
X55031Y-261226D01*
X56364D01*
X56697Y-261559D01*
Y-262226D01*
X56364Y-262559D01*
X55031D01*
X56697Y-259560D02*
X54698D01*
X55697Y-260560D01*
Y-259227D01*
X179399Y-183300D02*
Y-185300D01*
X178399D01*
X178066Y-184967D01*
Y-184300D01*
X178399Y-183967D01*
X179399D01*
X178732D02*
X178066Y-183300D01*
X177399Y-185300D02*
X176066D01*
Y-184967D01*
X177399Y-183634D01*
Y-183300D01*
X58665Y-90667D02*
X58999Y-91000D01*
X59665D01*
X59998Y-90667D01*
Y-89334D01*
X59665Y-89000D01*
X58999D01*
X58665Y-89334D01*
X57999Y-90667D02*
X57666Y-91000D01*
X56999D01*
X56666Y-90667D01*
Y-90333D01*
X56999Y-90000D01*
X56666Y-89667D01*
Y-89334D01*
X56999Y-89000D01*
X57666D01*
X57999Y-89334D01*
Y-89667D01*
X57666Y-90000D01*
X57999Y-90333D01*
Y-90667D01*
X57666Y-90000D02*
X56999D01*
X58165Y-97667D02*
X58499Y-98000D01*
X59165D01*
X59498Y-97667D01*
Y-96334D01*
X59165Y-96000D01*
X58499D01*
X58165Y-96334D01*
X56166Y-98000D02*
X56832Y-97667D01*
X57499Y-97000D01*
Y-96334D01*
X57166Y-96000D01*
X56499D01*
X56166Y-96334D01*
Y-96667D01*
X56499Y-97000D01*
X57499D01*
X59498Y-103000D02*
Y-105000D01*
X58499D01*
X58165Y-104667D01*
Y-104000D01*
X58499Y-103667D01*
X59498D01*
X58832D02*
X58165Y-103000D01*
X57499D02*
X56832D01*
X57166D01*
Y-105000D01*
X57499Y-104667D01*
X48651Y-112999D02*
Y-111000D01*
X49651D01*
X49984Y-111333D01*
Y-112000D01*
X49651Y-112333D01*
X48651D01*
X49318D02*
X49984Y-112999D01*
X51984D02*
X50651D01*
X51984Y-111667D01*
Y-111333D01*
X51650Y-111000D01*
X50984D01*
X50651Y-111333D01*
X130000Y-298524D02*
X128857D01*
X129714Y-299000D02*
X129143Y-298048D01*
X129714D02*
X129143Y-299000D01*
X122000Y-299300D02*
X123999D01*
Y-298300D01*
X123666Y-297967D01*
X123000D01*
X122667Y-298300D01*
Y-299300D01*
X122000Y-295968D02*
Y-297301D01*
X123333Y-295968D01*
X123666D01*
X123999Y-296301D01*
Y-296967D01*
X123666Y-297301D01*
Y-295301D02*
X123999Y-294968D01*
Y-294302D01*
X123666Y-293968D01*
X122333D01*
X122000Y-294302D01*
Y-294968D01*
X122333Y-295301D01*
X123666D01*
X122000Y-293302D02*
Y-292635D01*
Y-292969D01*
X123999D01*
X123666Y-293302D01*
D111*
X25071Y-320000D02*
G03*
X25071Y-320000I-7071J0D01*
G01*
X19571Y-17000D02*
G03*
X19571Y-17000I-7071J0D01*
G01*
X52571Y-277500D02*
G03*
X52571Y-277500I-7071J0D01*
G01*
X142095Y-248954D02*
G03*
X142290Y-249150I197J1D01*
G01*
X153906Y-243046D02*
G03*
X153710Y-242850I-197J-1D01*
G01*
Y-249150D02*
G03*
X153906Y-248954I-1J197D01*
G01*
X142290Y-242850D02*
G03*
X142095Y-243046I1J-197D01*
G01*
X175335Y-305505D02*
G03*
X175530Y-305701I197J1D01*
G01*
X187146Y-299597D02*
G03*
X186950Y-299402I-197J-1D01*
G01*
Y-305701D02*
G03*
X187146Y-305505I-1J197D01*
G01*
X175530Y-299402D02*
G03*
X175335Y-299597I1J-197D01*
G01*
X115210Y-294874D02*
G03*
X115405Y-294679I-1J197D01*
G01*
X103790Y-288575D02*
G03*
X103594Y-288770I1J-197D01*
G01*
Y-294679D02*
G03*
X103790Y-294874I197J1D01*
G01*
X115405Y-288770D02*
G03*
X115210Y-288575I-197J-1D01*
G01*
Y-311150D02*
G03*
X115405Y-310954I-1J197D01*
G01*
X103790Y-304850D02*
G03*
X103594Y-305046I1J-197D01*
G01*
Y-310954D02*
G03*
X103790Y-311150I197J1D01*
G01*
X115405Y-305046D02*
G03*
X115210Y-304850I-197J-1D01*
G01*
X115603Y-306853D02*
G03*
X115307Y-307151I4J-300D01*
G01*
Y-312854D02*
G03*
X115603Y-313153I300J2D01*
G01*
X126807Y-307151D02*
G03*
X126511Y-306853I-300J-2D01*
G01*
Y-313153D02*
G03*
X126807Y-312854I-4J300D01*
G01*
X52562Y-255594D02*
G03*
X52366Y-255790I1J-197D01*
G01*
X58470Y-267406D02*
G03*
X58665Y-267210I-1J197D01*
G01*
X52366D02*
G03*
X52562Y-267406I197J1D01*
G01*
X58665Y-255790D02*
G03*
X58470Y-255594I-197J-1D01*
G01*
X2500Y-302500D02*
Y-272500D01*
Y-302500D02*
X22500D01*
Y-272500D01*
X2500D02*
X22500D01*
X192500Y-302500D02*
Y-272500D01*
Y-302500D02*
X212500D01*
Y-272500D01*
X192500D02*
X212500D01*
X192500Y-72500D02*
X212500D01*
Y-272500D02*
Y-72500D01*
X192500Y-272500D02*
X212500D01*
X192500D02*
Y-72500D01*
X2500D02*
X22500D01*
Y-272500D02*
Y-72500D01*
X2500Y-272500D02*
X22500D01*
X2500D02*
Y-72500D01*
X164474Y-195039D02*
Y-192933D01*
X163293Y-195039D02*
X164474D01*
X163293Y-200157D02*
Y-195039D01*
X166049D02*
Y-192933D01*
X168214Y-202264D02*
X169789D01*
X171954Y-192933D02*
X173529D01*
X163293Y-200157D02*
X168214D01*
Y-202264D02*
Y-200157D01*
X171954Y-195039D02*
Y-192933D01*
X166049Y-195039D02*
X171954D01*
X173529D02*
X174710D01*
X169789Y-200157D02*
X174710D01*
X164474Y-192933D02*
X166049D01*
X174710Y-200157D02*
Y-195039D01*
X169789Y-202264D02*
Y-200157D01*
X173529Y-195039D02*
Y-192933D01*
X147016Y-242804D02*
Y-241632D01*
X143276Y-242850D02*
X145244D01*
X147016Y-251905D02*
Y-250980D01*
Y-241632D02*
Y-241411D01*
Y-250368D02*
Y-249196D01*
X150756Y-251905D02*
Y-250980D01*
Y-242850D02*
X152725D01*
X148984Y-241632D02*
Y-241411D01*
Y-250980D02*
Y-250589D01*
Y-250368D02*
Y-249196D01*
X143276Y-242850D02*
Y-242804D01*
X148984Y-242850D02*
Y-242804D01*
X142095Y-248953D02*
Y-243047D01*
X148984Y-249196D02*
Y-249150D01*
X143276Y-241632D02*
Y-241411D01*
X148984Y-251905D02*
Y-250980D01*
X152725Y-242850D02*
Y-242804D01*
X147016Y-240094D02*
X148984D01*
X152725Y-242804D02*
Y-241632D01*
X150756Y-250980D02*
Y-250589D01*
X142095Y-243047D02*
Y-243046D01*
X148984Y-242850D02*
X150756D01*
Y-249196D02*
Y-249150D01*
X147016Y-250980D02*
Y-250589D01*
X145244Y-250980D02*
Y-250589D01*
X150756D02*
Y-250368D01*
X142290Y-249150D02*
X142291D01*
X150756Y-241632D02*
Y-241411D01*
X148984Y-242804D02*
Y-241632D01*
X143276Y-250589D02*
Y-250368D01*
X148984Y-249150D02*
X150756D01*
X147016D02*
X148984D01*
X152725Y-250368D02*
Y-249196D01*
X150756Y-241020D02*
Y-240094D01*
Y-250368D02*
Y-249196D01*
X142095Y-248954D02*
Y-248953D01*
X153906Y-243047D02*
Y-243046D01*
X152725Y-250980D02*
Y-250589D01*
X142290Y-242850D02*
X142291D01*
X147016Y-250589D02*
Y-250368D01*
X143276Y-242804D02*
Y-241632D01*
X145244Y-250368D02*
Y-249196D01*
X148984Y-241411D02*
Y-241020D01*
X147016Y-242850D02*
X148984D01*
X152725Y-241411D02*
Y-241020D01*
X147016Y-249196D02*
Y-249150D01*
X143276Y-251905D02*
Y-250980D01*
X147016Y-241411D02*
Y-241020D01*
X153906Y-248954D02*
Y-248953D01*
X145244Y-250589D02*
Y-250368D01*
X143276Y-240094D02*
X145244D01*
Y-242850D02*
Y-242804D01*
Y-241632D02*
Y-241411D01*
X148984Y-250589D02*
Y-250368D01*
X145244Y-249196D02*
Y-249150D01*
Y-241020D02*
Y-240094D01*
Y-242850D02*
X147016D01*
X143276Y-249196D02*
Y-249150D01*
X145244D02*
X147016D01*
X152725Y-242850D02*
X153709D01*
X145244Y-241411D02*
Y-241020D01*
X143276Y-250980D02*
Y-250589D01*
X150756Y-241411D02*
Y-241020D01*
X147016Y-242850D02*
Y-242804D01*
X152725Y-241632D02*
Y-241411D01*
X150756Y-242850D02*
Y-242804D01*
X143276Y-250368D02*
Y-249196D01*
X147016Y-241020D02*
Y-240094D01*
Y-251905D02*
X148984D01*
X152725Y-241020D02*
Y-240094D01*
Y-250589D02*
Y-250368D01*
X142291Y-249150D02*
X143276D01*
X153906Y-248953D02*
Y-243047D01*
X143276Y-249150D02*
X145244D01*
X152725Y-251905D02*
Y-250980D01*
X143276Y-251905D02*
X145244D01*
X150756Y-242804D02*
Y-241632D01*
Y-240094D02*
X152725D01*
X148984Y-241020D02*
Y-240094D01*
X152725Y-249196D02*
Y-249150D01*
X150756Y-251905D02*
X152725D01*
X145244Y-242804D02*
Y-241632D01*
X152725Y-249150D02*
X153709D01*
Y-242850D02*
X153710D01*
X153709Y-249150D02*
X153710D01*
X142291Y-242850D02*
X143276D01*
X145244Y-251905D02*
Y-250980D01*
X143276Y-241411D02*
Y-241020D01*
Y-240094D01*
X150756Y-249150D02*
X152725D01*
X180256Y-299355D02*
Y-298183D01*
X176516Y-299402D02*
X178484D01*
X180256Y-308457D02*
Y-307531D01*
Y-298183D02*
Y-297962D01*
Y-306919D02*
Y-305747D01*
X183996Y-308457D02*
Y-307531D01*
Y-299402D02*
X185965D01*
X182225Y-298183D02*
Y-297962D01*
Y-307531D02*
Y-307140D01*
Y-306919D02*
Y-305747D01*
X176516Y-299402D02*
Y-299355D01*
X182225Y-299402D02*
Y-299355D01*
X175335Y-305504D02*
Y-299598D01*
X182225Y-305747D02*
Y-305701D01*
X176516Y-298183D02*
Y-297962D01*
X182225Y-308457D02*
Y-307531D01*
X185965Y-299402D02*
Y-299355D01*
X180256Y-296646D02*
X182225D01*
X185965Y-299355D02*
Y-298183D01*
X183996Y-307531D02*
Y-307140D01*
X175335Y-299598D02*
Y-299597D01*
X182225Y-299402D02*
X183996D01*
Y-305747D02*
Y-305701D01*
X180256Y-307531D02*
Y-307140D01*
X178484Y-307531D02*
Y-307140D01*
X183996D02*
Y-306919D01*
X175530Y-305701D02*
X175531D01*
X183996Y-298183D02*
Y-297962D01*
X182225Y-299355D02*
Y-298183D01*
X176516Y-307140D02*
Y-306919D01*
X182225Y-305701D02*
X183996D01*
X180256D02*
X182225D01*
X185965Y-306919D02*
Y-305747D01*
X183996Y-297571D02*
Y-296646D01*
Y-306919D02*
Y-305747D01*
X175335Y-305505D02*
Y-305504D01*
X187146Y-299598D02*
Y-299597D01*
X185965Y-307531D02*
Y-307140D01*
X175530Y-299402D02*
X175531D01*
X180256Y-307140D02*
Y-306919D01*
X176516Y-299355D02*
Y-298183D01*
X178484Y-306919D02*
Y-305747D01*
X182225Y-297962D02*
Y-297571D01*
X180256Y-299402D02*
X182225D01*
X185965Y-297962D02*
Y-297571D01*
X180256Y-305747D02*
Y-305701D01*
X176516Y-308457D02*
Y-307531D01*
X180256Y-297962D02*
Y-297571D01*
X187146Y-305505D02*
Y-305504D01*
X178484Y-307140D02*
Y-306919D01*
X176516Y-296646D02*
X178484D01*
Y-299402D02*
Y-299355D01*
Y-298183D02*
Y-297962D01*
X182225Y-307140D02*
Y-306919D01*
X178484Y-305747D02*
Y-305701D01*
Y-297571D02*
Y-296646D01*
Y-299402D02*
X180256D01*
X176516Y-305747D02*
Y-305701D01*
X178484D02*
X180256D01*
X185965Y-299402D02*
X186949D01*
X178484Y-297962D02*
Y-297571D01*
X176516Y-307531D02*
Y-307140D01*
X183996Y-297962D02*
Y-297571D01*
X180256Y-299402D02*
Y-299355D01*
X185965Y-298183D02*
Y-297962D01*
X183996Y-299402D02*
Y-299355D01*
X176516Y-306919D02*
Y-305747D01*
X180256Y-297571D02*
Y-296646D01*
Y-308457D02*
X182225D01*
X185965Y-297571D02*
Y-296646D01*
Y-307140D02*
Y-306919D01*
X175531Y-305701D02*
X176516D01*
X187146Y-305504D02*
Y-299598D01*
X176516Y-305701D02*
X178484D01*
X185965Y-308457D02*
Y-307531D01*
X176516Y-308457D02*
X178484D01*
X183996Y-299355D02*
Y-298183D01*
Y-296646D02*
X185965D01*
X182225Y-297571D02*
Y-296646D01*
X185965Y-305747D02*
Y-305701D01*
X183996Y-308457D02*
X185965D01*
X178484Y-299355D02*
Y-298183D01*
X185965Y-305701D02*
X186949D01*
Y-299402D02*
X186950D01*
X186949Y-305701D02*
X186950D01*
X175531Y-299402D02*
X176516D01*
X178484Y-308457D02*
Y-307531D01*
X176516Y-297962D02*
Y-297571D01*
Y-296646D01*
X183996Y-305701D02*
X185965D01*
X103350Y-238400D02*
X111350D01*
Y-223600D01*
X103350D02*
X111350D01*
X103350Y-238400D02*
Y-223600D01*
X110484Y-288529D02*
Y-287357D01*
X112256Y-288575D02*
X114224D01*
X110484Y-297630D02*
Y-296704D01*
Y-287357D02*
Y-287135D01*
Y-296092D02*
Y-294920D01*
X106744Y-297630D02*
Y-296704D01*
X104776Y-288575D02*
X106744D01*
X108516Y-287357D02*
Y-287135D01*
Y-296704D02*
Y-296313D01*
Y-296092D02*
Y-294920D01*
X114224Y-288575D02*
Y-288529D01*
X108516Y-288575D02*
Y-288529D01*
X115405Y-294677D02*
Y-288772D01*
X108516Y-294920D02*
Y-294874D01*
X114224Y-287357D02*
Y-287135D01*
X108516Y-297630D02*
Y-296704D01*
X104776Y-288575D02*
Y-288529D01*
X108516Y-285819D02*
X110484D01*
X104776Y-288529D02*
Y-287357D01*
X106744Y-296704D02*
Y-296313D01*
X115405Y-288772D02*
Y-288770D01*
X106744Y-288575D02*
X108516D01*
X106744Y-294920D02*
Y-294874D01*
X110484Y-296704D02*
Y-296313D01*
X112256Y-296704D02*
Y-296313D01*
X106744D02*
Y-296092D01*
X115209Y-294874D02*
X115210D01*
X106744Y-287357D02*
Y-287135D01*
X108516Y-288529D02*
Y-287357D01*
X114224Y-296313D02*
Y-296092D01*
X106744Y-294874D02*
X108516D01*
X110484D01*
X104776Y-296092D02*
Y-294920D01*
X106744Y-286745D02*
Y-285819D01*
Y-296092D02*
Y-294920D01*
X115405Y-294679D02*
Y-294677D01*
X103594Y-288772D02*
Y-288770D01*
X104776Y-296704D02*
Y-296313D01*
X115209Y-288575D02*
X115210D01*
X110484Y-296313D02*
Y-296092D01*
X114224Y-288529D02*
Y-287357D01*
X112256Y-296092D02*
Y-294920D01*
X108516Y-287135D02*
Y-286745D01*
Y-288575D02*
X110484D01*
X104776Y-287135D02*
Y-286745D01*
X110484Y-294920D02*
Y-294874D01*
X114224Y-297630D02*
Y-296704D01*
X110484Y-287135D02*
Y-286745D01*
X103594Y-294679D02*
Y-294677D01*
X112256Y-296313D02*
Y-296092D01*
Y-285819D02*
X114224D01*
X112256Y-288575D02*
Y-288529D01*
Y-287357D02*
Y-287135D01*
X108516Y-296313D02*
Y-296092D01*
X112256Y-294920D02*
Y-294874D01*
Y-286745D02*
Y-285819D01*
X110484Y-288575D02*
X112256D01*
X114224Y-294920D02*
Y-294874D01*
X110484D02*
X112256D01*
X103791Y-288575D02*
X104776D01*
X112256Y-287135D02*
Y-286745D01*
X114224Y-296704D02*
Y-296313D01*
X106744Y-287135D02*
Y-286745D01*
X110484Y-288575D02*
Y-288529D01*
X104776Y-287357D02*
Y-287135D01*
X106744Y-288575D02*
Y-288529D01*
X114224Y-296092D02*
Y-294920D01*
X110484Y-286745D02*
Y-285819D01*
X108516Y-297630D02*
X110484D01*
X104776Y-286745D02*
Y-285819D01*
Y-296313D02*
Y-296092D01*
X114224Y-294874D02*
X115209D01*
X103594Y-294677D02*
Y-288772D01*
X112256Y-294874D02*
X114224D01*
X104776Y-297630D02*
Y-296704D01*
X112256Y-297630D02*
X114224D01*
X106744Y-288529D02*
Y-287357D01*
X104776Y-285819D02*
X106744D01*
X108516Y-286745D02*
Y-285819D01*
X104776Y-294920D02*
Y-294874D01*
Y-297630D02*
X106744D01*
X112256Y-288529D02*
Y-287357D01*
X103791Y-294874D02*
X104776D01*
X103790Y-288575D02*
X103791D01*
X103790Y-294874D02*
X103791D01*
X114224Y-288575D02*
X115209D01*
X112256Y-297630D02*
Y-296704D01*
X114224Y-287135D02*
Y-286745D01*
Y-285819D01*
X104776Y-294874D02*
X106744D01*
X127500Y-280450D02*
Y-266550D01*
Y-281350D02*
Y-280450D01*
X100800Y-281350D02*
X127500D01*
X100800Y-265650D02*
X127500D01*
Y-266550D02*
Y-265650D01*
X110484Y-304804D02*
Y-303632D01*
X112256Y-304850D02*
X114224D01*
X110484Y-313906D02*
Y-312980D01*
Y-303632D02*
Y-303411D01*
Y-312368D02*
Y-311196D01*
X106744Y-313906D02*
Y-312980D01*
X104776Y-304850D02*
X106744D01*
X108516Y-303632D02*
Y-303411D01*
Y-312980D02*
Y-312589D01*
Y-312368D02*
Y-311196D01*
X114224Y-304850D02*
Y-304804D01*
X108516Y-304850D02*
Y-304804D01*
X115405Y-310953D02*
Y-305047D01*
X108516Y-311196D02*
Y-311150D01*
X114224Y-303632D02*
Y-303411D01*
X108516Y-313906D02*
Y-312980D01*
X104776Y-304850D02*
Y-304804D01*
X108516Y-302095D02*
X110484D01*
X104776Y-304804D02*
Y-303632D01*
X106744Y-312980D02*
Y-312589D01*
X115405Y-305047D02*
Y-305046D01*
X106744Y-304850D02*
X108516D01*
X106744Y-311196D02*
Y-311150D01*
X110484Y-312980D02*
Y-312589D01*
X112256Y-312980D02*
Y-312589D01*
X106744D02*
Y-312368D01*
X115209Y-311150D02*
X115210D01*
X106744Y-303632D02*
Y-303411D01*
X108516Y-304804D02*
Y-303632D01*
X114224Y-312589D02*
Y-312368D01*
X106744Y-311150D02*
X108516D01*
X110484D01*
X104776Y-312368D02*
Y-311196D01*
X106744Y-303020D02*
Y-302095D01*
Y-312368D02*
Y-311196D01*
X115405Y-310954D02*
Y-310953D01*
X103594Y-305047D02*
Y-305046D01*
X104776Y-312980D02*
Y-312589D01*
X115209Y-304850D02*
X115210D01*
X110484Y-312589D02*
Y-312368D01*
X114224Y-304804D02*
Y-303632D01*
X112256Y-312368D02*
Y-311196D01*
X108516Y-303411D02*
Y-303020D01*
Y-304850D02*
X110484D01*
X104776Y-303411D02*
Y-303020D01*
X110484Y-311196D02*
Y-311150D01*
X114224Y-313906D02*
Y-312980D01*
X110484Y-303411D02*
Y-303020D01*
X103594Y-310954D02*
Y-310953D01*
X112256Y-312589D02*
Y-312368D01*
Y-302095D02*
X114224D01*
X112256Y-304850D02*
Y-304804D01*
Y-303632D02*
Y-303411D01*
X108516Y-312589D02*
Y-312368D01*
X112256Y-311196D02*
Y-311150D01*
Y-303020D02*
Y-302095D01*
X110484Y-304850D02*
X112256D01*
X114224Y-311196D02*
Y-311150D01*
X110484D02*
X112256D01*
X103791Y-304850D02*
X104776D01*
X112256Y-303411D02*
Y-303020D01*
X114224Y-312980D02*
Y-312589D01*
X106744Y-303411D02*
Y-303020D01*
X110484Y-304850D02*
Y-304804D01*
X104776Y-303632D02*
Y-303411D01*
X106744Y-304850D02*
Y-304804D01*
X114224Y-312368D02*
Y-311196D01*
X110484Y-303020D02*
Y-302095D01*
X108516Y-313906D02*
X110484D01*
X104776Y-303020D02*
Y-302095D01*
Y-312589D02*
Y-312368D01*
X114224Y-311150D02*
X115209D01*
X103594Y-310953D02*
Y-305047D01*
X112256Y-311150D02*
X114224D01*
X104776Y-313906D02*
Y-312980D01*
X112256Y-313906D02*
X114224D01*
X106744Y-304804D02*
Y-303632D01*
X104776Y-302095D02*
X106744D01*
X108516Y-303020D02*
Y-302095D01*
X104776Y-311196D02*
Y-311150D01*
Y-313906D02*
X106744D01*
X112256Y-304804D02*
Y-303632D01*
X103791Y-311150D02*
X104776D01*
X103790Y-304850D02*
X103791D01*
X103790Y-311150D02*
X103791D01*
X114224Y-304850D02*
X115209D01*
X112256Y-313906D02*
Y-312980D01*
X114224Y-303411D02*
Y-303020D01*
Y-302095D01*
X104776Y-311150D02*
X106744D01*
X121736Y-305118D02*
X151264D01*
Y-319980D02*
Y-305118D01*
X121736Y-319980D02*
Y-305118D01*
Y-319980D02*
X151264D01*
X158500Y-325000D02*
X178500D01*
Y-315000D01*
X158500D02*
X178500D01*
X158500Y-325000D02*
Y-315000D01*
X116520Y-305285D02*
Y-304402D01*
X118095D01*
X116520Y-306853D02*
X118095D01*
X116520D02*
Y-306718D01*
X118095Y-306853D02*
Y-306718D01*
Y-305720D01*
X116520Y-305656D02*
Y-305285D01*
Y-305720D02*
Y-305656D01*
X118095D02*
Y-305285D01*
Y-305720D02*
Y-305656D01*
Y-305285D02*
Y-304402D01*
X116520Y-306718D02*
Y-305720D01*
X124020Y-305285D02*
Y-304402D01*
X125595D01*
X124020Y-306853D02*
X125595D01*
X124020D02*
Y-306718D01*
X125595Y-306853D02*
Y-306718D01*
Y-305720D01*
X124020Y-305656D02*
Y-305285D01*
Y-305720D02*
Y-305656D01*
X125595D02*
Y-305285D01*
Y-305720D02*
Y-305656D01*
Y-305285D02*
Y-304402D01*
X124020Y-306718D02*
Y-305720D01*
X118095Y-315602D02*
Y-314721D01*
X116520Y-315602D02*
X118095D01*
X116520Y-313153D02*
X118095D01*
Y-313287D02*
Y-313153D01*
X116520Y-313287D02*
Y-313153D01*
Y-314285D02*
Y-313287D01*
X118095Y-314721D02*
Y-314349D01*
Y-314285D01*
X116520Y-314721D02*
Y-314349D01*
Y-314285D01*
Y-315602D02*
Y-314721D01*
X118095Y-314285D02*
Y-313287D01*
X121845Y-315602D02*
Y-314721D01*
X120270Y-315602D02*
X121845D01*
X120270Y-313153D02*
X121845D01*
Y-313287D02*
Y-313153D01*
X120270Y-313287D02*
Y-313153D01*
Y-314285D02*
Y-313287D01*
X121845Y-314721D02*
Y-314349D01*
Y-314285D01*
X120270Y-314721D02*
Y-314349D01*
Y-314285D01*
Y-315602D02*
Y-314721D01*
X121845Y-314285D02*
Y-313287D01*
X125595Y-315602D02*
Y-314721D01*
X124020Y-315602D02*
X125595D01*
X124020Y-313153D02*
X125595D01*
Y-313287D02*
Y-313153D01*
X124020Y-313287D02*
Y-313153D01*
Y-314285D02*
Y-313287D01*
X125595Y-314721D02*
Y-314349D01*
Y-314285D01*
X124020Y-314721D02*
Y-314349D01*
Y-314285D01*
Y-315602D02*
Y-314721D01*
X125595Y-314285D02*
Y-313287D01*
X115607Y-306853D02*
X126507D01*
X115307Y-312853D02*
Y-307153D01*
X115607Y-313153D02*
X126507D01*
X126807Y-312854D02*
Y-312853D01*
X115307Y-307153D02*
Y-307151D01*
X126807Y-312853D02*
Y-307153D01*
Y-307151D01*
X115307Y-312854D02*
Y-312853D01*
X126507Y-306853D02*
X126511D01*
X115603Y-313153D02*
X115607D01*
X126507D02*
X126511D01*
X115603Y-306853D02*
X115607D01*
X58712Y-260516D02*
X59884D01*
X58665Y-258744D02*
Y-256776D01*
X49610Y-260516D02*
X50536D01*
X59884D02*
X60105D01*
X51148D02*
X52320D01*
X49610Y-264256D02*
X50536D01*
X58665Y-266225D02*
Y-264256D01*
X59884Y-262484D02*
X60105D01*
X50536D02*
X50927D01*
X51148D02*
X52320D01*
X58665Y-256776D02*
X58712D01*
X58665Y-262484D02*
X58712D01*
X52563Y-255594D02*
X58469D01*
X52320Y-262484D02*
X52366D01*
X59884Y-256776D02*
X60105D01*
X49610Y-262484D02*
X50536D01*
X58665Y-266225D02*
X58712D01*
X61421Y-262484D02*
Y-260516D01*
X58712Y-266225D02*
X59884D01*
X50536Y-264256D02*
X50927D01*
X58469Y-255594D02*
X58470D01*
X58665Y-264256D02*
Y-262484D01*
X52320Y-264256D02*
X52366D01*
X50536Y-260516D02*
X50927D01*
X50536Y-258744D02*
X50927D01*
Y-264256D02*
X51148D01*
X52366Y-255791D02*
Y-255790D01*
X59884Y-264256D02*
X60105D01*
X58712Y-262484D02*
X59884D01*
X50927Y-256776D02*
X51148D01*
X52366Y-264256D02*
Y-262484D01*
Y-260516D01*
X51148Y-266225D02*
X52320D01*
X60496Y-264256D02*
X61421D01*
X51148D02*
X52320D01*
X52562Y-255594D02*
X52563D01*
X58469Y-267406D02*
X58470D01*
X50536Y-266225D02*
X50927D01*
X58665Y-255791D02*
Y-255790D01*
X50927Y-260516D02*
X51148D01*
X58712Y-256776D02*
X59884D01*
X51148Y-258744D02*
X52320D01*
X60105Y-262484D02*
X60496D01*
X58665D02*
Y-260516D01*
X60105Y-266225D02*
X60496D01*
X52320Y-260516D02*
X52366D01*
X49610Y-256776D02*
X50536D01*
X60105Y-260516D02*
X60496D01*
X52562Y-267406D02*
X52563D01*
X50927Y-258744D02*
X51148D01*
X61421D02*
Y-256776D01*
X58665Y-258744D02*
X58712D01*
X59884D02*
X60105D01*
X50927Y-262484D02*
X51148D01*
X52320Y-258744D02*
X52366D01*
X60496D02*
X61421D01*
X58665Y-260516D02*
Y-258744D01*
X52320Y-256776D02*
X52366D01*
Y-260516D02*
Y-258744D01*
X58665Y-267209D02*
Y-266225D01*
X60105Y-258744D02*
X60496D01*
X50536Y-256776D02*
X50927D01*
X60105Y-264256D02*
X60496D01*
X58665Y-260516D02*
X58712D01*
X59884Y-266225D02*
X60105D01*
X58665Y-264256D02*
X58712D01*
X51148Y-256776D02*
X52320D01*
X60496Y-260516D02*
X61421D01*
X49610Y-262484D02*
Y-260516D01*
X60496Y-266225D02*
X61421D01*
X50927D02*
X51148D01*
X52366Y-256776D02*
Y-255791D01*
X52563Y-267406D02*
X58469D01*
X52366Y-258744D02*
Y-256776D01*
X49610Y-266225D02*
X50536D01*
X49610Y-258744D02*
Y-256776D01*
X58712Y-264256D02*
X59884D01*
X61421Y-266225D02*
Y-264256D01*
X60496Y-262484D02*
X61421D01*
X52320Y-266225D02*
X52366D01*
X49610D02*
Y-264256D01*
X58712Y-258744D02*
X59884D01*
X52366Y-267209D02*
Y-266225D01*
X58665Y-267210D02*
Y-267209D01*
X52366Y-267210D02*
Y-267209D01*
X58665Y-256776D02*
Y-255791D01*
X49610Y-258744D02*
X50536D01*
X60105Y-256776D02*
X60496D01*
X61421D01*
X52366Y-266225D02*
Y-264256D01*
X116700Y-300000D02*
X131200D01*
X116700D02*
Y-284000D01*
X131200D01*
Y-300000D02*
Y-284000D01*
D112*
X100500Y-273500D02*
D03*
D113*
X153815Y-276571D02*
G03*
X153815Y-276571I-750J0D01*
G01*
X82842Y-257760D02*
G03*
X82842Y-257760I-787J0D01*
G01*
X83342Y-237260D02*
G03*
X83342Y-237260I-787J0D01*
G01*
X98102Y-289004D02*
Y-283295D01*
X85898Y-289004D02*
Y-283295D01*
Y-289004D02*
X98102D01*
X85898Y-283295D02*
X98102D01*
X101398Y-292854D02*
Y-287146D01*
X113602Y-292854D02*
Y-287146D01*
X101398D02*
X113602D01*
X101398Y-292854D02*
X113602D01*
X138854Y-289102D02*
Y-276898D01*
X133146Y-289102D02*
Y-276898D01*
X138854D01*
X133146Y-289102D02*
X138854D01*
X125646Y-289102D02*
Y-276898D01*
X131354Y-289102D02*
Y-276898D01*
X125646Y-289102D02*
X131354D01*
X125646Y-276898D02*
X131354D01*
X143398Y-295354D02*
X155602D01*
X143398Y-289646D02*
X155602D01*
Y-295354D02*
Y-289646D01*
X143398Y-295354D02*
Y-289646D01*
X155354Y-309453D02*
Y-297248D01*
X149646Y-309453D02*
Y-297248D01*
X155354D01*
X149646Y-309453D02*
X155354D01*
X162354D02*
Y-297248D01*
X156646Y-309453D02*
Y-297248D01*
X162354D01*
X156646Y-309453D02*
X162354D01*
X169354D02*
Y-297248D01*
X163646Y-309453D02*
Y-297248D01*
X169354D01*
X163646Y-309453D02*
X169354D01*
X147547Y-264646D02*
X159752D01*
X147547Y-270354D02*
X159752D01*
X147547D02*
Y-264646D01*
X159752Y-270354D02*
Y-264646D01*
X147547Y-257646D02*
X159752D01*
X147547Y-263354D02*
X159752D01*
X147547D02*
Y-257646D01*
X159752Y-263354D02*
Y-257646D01*
X170079Y-180665D02*
X179921D01*
X170079Y-176335D02*
X179921D01*
Y-180665D02*
Y-176335D01*
X170079Y-180665D02*
Y-176335D01*
X48047Y-121354D02*
X60252D01*
X48047Y-115646D02*
X60252D01*
Y-121354D02*
Y-115646D01*
X48047Y-121354D02*
Y-115646D01*
X142299Y-287102D02*
X142398Y-287201D01*
X142299Y-287102D02*
Y-274799D01*
X154701D01*
Y-287201D02*
Y-274799D01*
X142299Y-287201D02*
X154701D01*
X159232Y-272732D02*
X175768D01*
X159232Y-289268D02*
X175768D01*
Y-272732D01*
X159232Y-289268D02*
Y-272732D01*
X80382Y-266618D02*
X90618D01*
Y-256382D01*
X80382D02*
X90618D01*
X80382Y-266618D02*
Y-256382D01*
X114898Y-237854D02*
X127102D01*
X114898Y-232146D02*
X127102D01*
Y-237854D02*
Y-232146D01*
X114898Y-237854D02*
Y-232146D01*
X114748Y-229854D02*
X126953D01*
X114748Y-224146D02*
X126953D01*
Y-229854D02*
Y-224146D01*
X114748Y-229854D02*
Y-224146D01*
X80882Y-246118D02*
X91118D01*
Y-235882D01*
X80882D02*
X91118D01*
X80882Y-246118D02*
Y-235882D01*
X163665Y-226386D02*
X184335D01*
X163665Y-249614D02*
Y-226386D01*
X184335Y-249614D02*
Y-226386D01*
X163665Y-249614D02*
X184335D01*
X133146Y-298602D02*
Y-286398D01*
X138854Y-298602D02*
Y-286398D01*
X133146D02*
X138854D01*
X133146Y-298602D02*
X138854D01*
X133146Y-334102D02*
Y-321898D01*
X138854Y-334102D02*
Y-321898D01*
X133146D02*
X138854D01*
X133146Y-334102D02*
X138854D01*
X104646Y-329102D02*
Y-316898D01*
X110354Y-329102D02*
Y-316898D01*
X104646D02*
X110354D01*
X104646Y-329102D02*
X110354D01*
X88957Y-273807D02*
X96043D01*
X88957Y-287193D02*
X96043D01*
Y-273807D01*
X88957Y-287193D02*
Y-273807D01*
X79646Y-289102D02*
Y-276898D01*
X85354Y-289102D02*
Y-276898D01*
X79646D02*
X85354D01*
X79646Y-289102D02*
X85354D01*
X168398Y-205646D02*
X180602D01*
X168398Y-211354D02*
X180602D01*
Y-205646D01*
X168398Y-211354D02*
Y-205646D01*
X168303Y-196646D02*
X180508D01*
X168303Y-202354D02*
X180508D01*
Y-196646D01*
X168303Y-202354D02*
Y-196646D01*
X170079Y-182335D02*
X179921D01*
X170079Y-186665D02*
X179921D01*
X170079D02*
Y-182335D01*
X179921Y-186665D02*
Y-182335D01*
X48398Y-87646D02*
X60602D01*
X48398Y-93354D02*
X60602D01*
X48398D02*
Y-87646D01*
X60602Y-93354D02*
Y-87646D01*
X47898Y-94646D02*
X60102D01*
X47898Y-100354D02*
X60102D01*
X47898D02*
Y-94646D01*
X60102Y-100354D02*
Y-94646D01*
X47898Y-101646D02*
X60102D01*
X47898Y-107354D02*
X60102D01*
X47898D02*
Y-101646D01*
X60102Y-107354D02*
Y-101646D01*
X48047Y-114354D02*
X60252D01*
X48047Y-108646D02*
X60252D01*
Y-114354D02*
Y-108646D01*
X48047Y-114354D02*
Y-108646D01*
D114*
X107453Y-253516D02*
G03*
X107453Y-253516I-394J0D01*
G01*
Y-259016D02*
G03*
X107453Y-259016I-394J0D01*
G01*
X107500Y-242516D02*
G03*
X107500Y-242516I-394J0D01*
G01*
X107453Y-248016D02*
G03*
X107453Y-248016I-394J0D01*
G01*
D115*
X178500Y-106000D02*
Y-86000D01*
X168500D02*
X178500D01*
X168500Y-106000D02*
Y-86000D01*
Y-106000D02*
X178500D01*
X12000Y-69000D02*
Y-49000D01*
Y-69000D02*
X22000D01*
Y-49000D01*
X12000D02*
X22000D01*
X60500Y-79000D02*
X80500D01*
Y-69000D01*
X60500D02*
X80500D01*
X60500Y-79000D02*
Y-69000D01*
X157500D02*
X177500D01*
X157500Y-79000D02*
Y-69000D01*
Y-79000D02*
X177500D01*
Y-69000D01*
X43000Y-233000D02*
X65000Y-255000D01*
X43000Y-233000D02*
Y-177000D01*
X65000Y-155000D01*
X121000D01*
X137000Y-171000D01*
X143000Y-177000D01*
Y-233000D02*
Y-177000D01*
X121000Y-255000D02*
X143000Y-233000D01*
X65000Y-255000D02*
X121000D01*
D116*
X2500Y-272500D02*
X22500D01*
Y-302500D02*
Y-272500D01*
X2500Y-302500D02*
X22500D01*
X2500D02*
Y-272500D01*
X192500D02*
X212500D01*
Y-302500D02*
Y-272500D01*
X192500Y-302500D02*
X212500D01*
X192500D02*
Y-272500D01*
X82000Y-242501D02*
Y-244167D01*
X82333Y-244500D01*
X83000D01*
X83333Y-244167D01*
Y-242501D01*
X83999Y-242834D02*
X84333Y-242501D01*
X84999D01*
X85332Y-242834D01*
Y-243167D01*
X84999Y-243500D01*
X84666D01*
X84999D01*
X85332Y-243834D01*
Y-244167D01*
X84999Y-244500D01*
X84333D01*
X83999Y-244167D01*
X117260Y-308985D02*
Y-310651D01*
X117593Y-310984D01*
X118260D01*
X118593Y-310651D01*
Y-308985D01*
X119259Y-309318D02*
X119592Y-308985D01*
X120259D01*
X120592Y-309318D01*
Y-309651D01*
X120259Y-309985D01*
X119926D01*
X120259D01*
X120592Y-310318D01*
Y-310651D01*
X120259Y-310984D01*
X119592D01*
X119259Y-310651D01*
X121258Y-309318D02*
X121592Y-308985D01*
X122258D01*
X122591Y-309318D01*
Y-310651D01*
X122258Y-310984D01*
X121592D01*
X121258Y-310651D01*
Y-309318D01*
X123258Y-310984D02*
X123924D01*
X123591D01*
Y-308985D01*
X123258Y-309318D01*
D117*
X101154Y-256272D02*
Y-252728D01*
Y-256272D02*
X107846D01*
Y-252728D01*
X101154D02*
X107846D01*
X101154Y-256272D02*
Y-252728D01*
Y-256272D02*
X107846D01*
Y-252728D01*
X101154D02*
X107846D01*
X101154Y-261772D02*
Y-258228D01*
Y-261772D02*
X107846D01*
Y-258228D01*
X101154D02*
X107846D01*
X101154Y-261772D02*
Y-258228D01*
Y-261772D02*
X107846D01*
Y-258228D01*
X101154D02*
X107846D01*
X101201Y-245272D02*
Y-241728D01*
Y-245272D02*
X107894D01*
Y-241728D01*
X101201D02*
X107894D01*
X101201Y-245272D02*
Y-241728D01*
Y-245272D02*
X107894D01*
Y-241728D01*
X101201D02*
X107894D01*
X101154Y-250772D02*
Y-247228D01*
Y-250772D02*
X107846D01*
Y-247228D01*
X101154D02*
X107846D01*
X101154Y-250772D02*
Y-247228D01*
Y-250772D02*
X107846D01*
Y-247228D01*
X101154D02*
X107846D01*
D118*
X107256Y-278976D02*
Y-276713D01*
Y-279272D02*
Y-278976D01*
X101744Y-279272D02*
Y-278976D01*
Y-276024D02*
Y-275728D01*
Y-279272D02*
X107256D01*
X101744Y-275728D02*
X107256D01*
X108043Y-278976D02*
Y-276024D01*
X100957Y-278976D02*
Y-276024D01*
X101744D01*
X100957Y-278976D02*
X101744D01*
X107256D02*
X108043D01*
X107256Y-276024D02*
X108043D01*
X106272Y-275728D02*
X107256D01*
X106272D02*
X107256Y-276713D01*
Y-275728D01*
Y-284976D02*
Y-282713D01*
Y-285272D02*
Y-284976D01*
X101744Y-285272D02*
Y-284976D01*
Y-282024D02*
Y-281728D01*
Y-285272D02*
X107256D01*
X101744Y-281728D02*
X107256D01*
X108043Y-284976D02*
Y-282024D01*
X100957Y-284976D02*
Y-282024D01*
X101744D01*
X100957Y-284976D02*
X101744D01*
X107256D02*
X108043D01*
X107256Y-282024D02*
X108043D01*
X106272Y-281728D02*
X107256D01*
X106272D02*
X107256Y-282713D01*
Y-281728D01*
Y-272976D02*
Y-270713D01*
Y-273272D02*
Y-272976D01*
X101744Y-273272D02*
Y-272976D01*
Y-270024D02*
Y-269728D01*
Y-273272D02*
X107256D01*
X101744Y-269728D02*
X107256D01*
X108043Y-272976D02*
Y-270024D01*
X100957Y-272976D02*
Y-270024D01*
X101744D01*
X100957Y-272976D02*
X101744D01*
X107256D02*
X108043D01*
X107256Y-270024D02*
X108043D01*
X106272Y-269728D02*
X107256D01*
X106272D02*
X107256Y-270713D01*
Y-269728D01*
Y-266976D02*
Y-264713D01*
Y-267272D02*
Y-266976D01*
X101744Y-267272D02*
Y-266976D01*
Y-264024D02*
Y-263728D01*
Y-267272D02*
X107256D01*
X101744Y-263728D02*
X107256D01*
X108043Y-266976D02*
Y-264024D01*
X100957Y-266976D02*
Y-264024D01*
X101744D01*
X100957Y-266976D02*
X101744D01*
X107256D02*
X108043D01*
X107256Y-264024D02*
X108043D01*
X106272Y-263728D02*
X107256D01*
X106272D02*
X107256Y-264713D01*
Y-263728D01*
D119*
X7500Y-277500D02*
D03*
X197500D02*
D03*
Y-77500D02*
D03*
X7500D02*
D03*
D120*
X109814Y-254497D02*
D03*
Y-259997D02*
D03*
X109860Y-243500D02*
D03*
X109813Y-249000D02*
D03*
M02*
