%FSLAX25Y25*%
%MOIN*%
G70*
G01*
G75*
G04 Layer_Physical_Order=3*
G04 Layer_Color=16440176*
%ADD10R,0.03937X0.03740*%
%ADD11O,0.06299X0.02362*%
%ADD12O,0.02362X0.06299*%
%ADD13R,0.03150X0.02362*%
%ADD14R,0.08661X0.03937*%
%ADD15R,0.04724X0.03937*%
%ADD16O,0.02362X0.00984*%
%ADD17R,0.04724X0.07874*%
%ADD18R,0.03150X0.03150*%
%ADD19R,0.06300X0.05000*%
%ADD20R,0.05906X0.07480*%
%ADD21O,0.00945X0.02362*%
%ADD22R,0.08465X0.06693*%
%ADD23R,0.03740X0.03937*%
%ADD24R,0.02362X0.05906*%
%ADD25C,0.04500*%
%ADD26C,0.03500*%
%ADD27C,0.02000*%
%ADD28C,0.01000*%
%ADD29C,0.06300*%
%ADD30C,0.04000*%
%ADD31C,0.06500*%
%ADD32C,0.06000*%
%ADD33C,0.02200*%
%ADD34R,0.01732X0.00787*%
%ADD35C,0.06000*%
%ADD36O,0.16929X0.06693*%
%ADD37O,0.05906X0.14961*%
%ADD38O,0.14961X0.05906*%
%ADD39C,0.05906*%
%ADD40R,0.05906X0.05906*%
%ADD41C,0.08700*%
%ADD42C,0.06496*%
%ADD43R,0.06496X0.06496*%
%ADD44R,0.05906X0.05906*%
%ADD45C,0.05000*%
%ADD46C,0.02000*%
%ADD47C,0.01969*%
G36*
X82500Y-80000D02*
X152500D01*
Y-22500D01*
X215000D01*
Y-340000D01*
X0D01*
Y0D01*
X82500D01*
Y-80000D01*
D02*
G37*
%LPC*%
G36*
X51000Y-251369D02*
X50376Y-251493D01*
X49847Y-251847D01*
X49493Y-252376D01*
X49369Y-253000D01*
X49493Y-253624D01*
X49847Y-254153D01*
X50376Y-254507D01*
X51000Y-254631D01*
X51624Y-254507D01*
X52153Y-254153D01*
X52507Y-253624D01*
X52631Y-253000D01*
X52507Y-252376D01*
X52153Y-251847D01*
X51624Y-251493D01*
X51000Y-251369D01*
D02*
G37*
G36*
X155549Y-251430D02*
X155034Y-251644D01*
X154303Y-252205D01*
X153742Y-252936D01*
X153529Y-253451D01*
X155549D01*
Y-251430D01*
D02*
G37*
G36*
X158049D02*
Y-253451D01*
X160070D01*
X159856Y-252936D01*
X159295Y-252205D01*
X158564Y-251644D01*
X158049Y-251430D01*
D02*
G37*
G36*
X160070Y-255951D02*
X158049D01*
Y-257971D01*
X158564Y-257758D01*
X159295Y-257197D01*
X159856Y-256466D01*
X160070Y-255951D01*
D02*
G37*
G36*
X84250Y-258399D02*
X84069Y-258519D01*
X83949Y-258700D01*
X84250D01*
Y-258399D01*
D02*
G37*
G36*
X86750D02*
Y-258700D01*
X87051D01*
X86931Y-258519D01*
X86750Y-258399D01*
D02*
G37*
G36*
X155549Y-255951D02*
X153529D01*
X153742Y-256466D01*
X154303Y-257197D01*
X155034Y-257758D01*
X155549Y-257971D01*
Y-255951D01*
D02*
G37*
G36*
X7500Y-243619D02*
X6496Y-243751D01*
X5559Y-244139D01*
X4756Y-244756D01*
X4139Y-245559D01*
X3751Y-246496D01*
X3619Y-247500D01*
X3751Y-248504D01*
X4139Y-249441D01*
X4756Y-250244D01*
X5559Y-250861D01*
X6496Y-251249D01*
X7500Y-251381D01*
X8505Y-251249D01*
X9441Y-250861D01*
X10244Y-250244D01*
X10861Y-249441D01*
X11249Y-248504D01*
X11381Y-247500D01*
X11249Y-246496D01*
X10861Y-245559D01*
X10244Y-244756D01*
X9441Y-244139D01*
X8505Y-243751D01*
X7500Y-243619D01*
D02*
G37*
G36*
X70000Y-240373D02*
X69191Y-240480D01*
X68437Y-240792D01*
X67789Y-241289D01*
X67292Y-241937D01*
X66980Y-242691D01*
X66873Y-243500D01*
X66980Y-244309D01*
X67292Y-245063D01*
X67789Y-245711D01*
X68437Y-246208D01*
X69191Y-246520D01*
X70000Y-246627D01*
X70809Y-246520D01*
X71563Y-246208D01*
X72211Y-245711D01*
X72708Y-245063D01*
X73020Y-244309D01*
X73127Y-243500D01*
X73020Y-242691D01*
X72708Y-241937D01*
X72211Y-241289D01*
X71563Y-240792D01*
X70809Y-240480D01*
X70000Y-240373D01*
D02*
G37*
G36*
X84750Y-243800D02*
X84449D01*
X84569Y-243981D01*
X84750Y-244101D01*
Y-243800D01*
D02*
G37*
G36*
X87551D02*
X87250D01*
Y-244101D01*
X87431Y-243981D01*
X87551Y-243800D01*
D02*
G37*
G36*
X128500Y-240873D02*
X127691Y-240980D01*
X126937Y-241292D01*
X126289Y-241789D01*
X125792Y-242437D01*
X125480Y-243191D01*
X125373Y-244000D01*
X125480Y-244809D01*
X125792Y-245563D01*
X126289Y-246211D01*
X126937Y-246708D01*
X127691Y-247020D01*
X128500Y-247127D01*
X129309Y-247020D01*
X130063Y-246708D01*
X130711Y-246211D01*
X131208Y-245563D01*
X131520Y-244809D01*
X131627Y-244000D01*
X131520Y-243191D01*
X131208Y-242437D01*
X130711Y-241789D01*
X130063Y-241292D01*
X129309Y-240980D01*
X128500Y-240873D01*
D02*
G37*
G36*
X17500Y-243619D02*
X16496Y-243751D01*
X15559Y-244139D01*
X14756Y-244756D01*
X14139Y-245559D01*
X13751Y-246496D01*
X13619Y-247500D01*
X13751Y-248504D01*
X14139Y-249441D01*
X14756Y-250244D01*
X15559Y-250861D01*
X16496Y-251249D01*
X17500Y-251381D01*
X18505Y-251249D01*
X19441Y-250861D01*
X20244Y-250244D01*
X20861Y-249441D01*
X21249Y-248504D01*
X21381Y-247500D01*
X21249Y-246496D01*
X20861Y-245559D01*
X20244Y-244756D01*
X19441Y-244139D01*
X18505Y-243751D01*
X17500Y-243619D01*
D02*
G37*
G36*
X197500D02*
X196495Y-243751D01*
X195559Y-244139D01*
X194756Y-244756D01*
X194139Y-245559D01*
X193751Y-246496D01*
X193619Y-247500D01*
X193751Y-248504D01*
X194139Y-249441D01*
X194756Y-250244D01*
X195559Y-250861D01*
X196495Y-251249D01*
X197500Y-251381D01*
X198504Y-251249D01*
X199441Y-250861D01*
X200244Y-250244D01*
X200861Y-249441D01*
X201249Y-248504D01*
X201381Y-247500D01*
X201249Y-246496D01*
X200861Y-245559D01*
X200244Y-244756D01*
X199441Y-244139D01*
X198504Y-243751D01*
X197500Y-243619D01*
D02*
G37*
G36*
X207500D02*
X206495Y-243751D01*
X205559Y-244139D01*
X204756Y-244756D01*
X204139Y-245559D01*
X203751Y-246496D01*
X203619Y-247500D01*
X203751Y-248504D01*
X204139Y-249441D01*
X204756Y-250244D01*
X205559Y-250861D01*
X206495Y-251249D01*
X207500Y-251381D01*
X208505Y-251249D01*
X209441Y-250861D01*
X210244Y-250244D01*
X210861Y-249441D01*
X211249Y-248504D01*
X211381Y-247500D01*
X211249Y-246496D01*
X210861Y-245559D01*
X210244Y-244756D01*
X209441Y-244139D01*
X208505Y-243751D01*
X207500Y-243619D01*
D02*
G37*
G36*
X87051Y-264300D02*
X86750D01*
Y-264601D01*
X86931Y-264481D01*
X87051Y-264300D01*
D02*
G37*
G36*
X114250Y-262250D02*
X112229D01*
X112443Y-262765D01*
X113004Y-263496D01*
X113735Y-264057D01*
X114250Y-264271D01*
Y-262250D01*
D02*
G37*
G36*
X118771D02*
X116750D01*
Y-264271D01*
X117265Y-264057D01*
X117996Y-263496D01*
X118557Y-262765D01*
X118771Y-262250D01*
D02*
G37*
G36*
X84250Y-264300D02*
X83949D01*
X84069Y-264481D01*
X84250Y-264601D01*
Y-264300D01*
D02*
G37*
G36*
X134000Y-262873D02*
X133191Y-262980D01*
X132437Y-263292D01*
X131789Y-263789D01*
X131292Y-264437D01*
X130980Y-265191D01*
X130873Y-266000D01*
X130980Y-266809D01*
X131292Y-267563D01*
X131789Y-268211D01*
X132437Y-268708D01*
X133191Y-269020D01*
X134000Y-269127D01*
X134809Y-269020D01*
X135563Y-268708D01*
X136211Y-268211D01*
X136708Y-267563D01*
X137020Y-266809D01*
X137127Y-266000D01*
X137020Y-265191D01*
X136708Y-264437D01*
X136211Y-263789D01*
X135563Y-263292D01*
X134809Y-262980D01*
X134000Y-262873D01*
D02*
G37*
G36*
X143000Y-261373D02*
X142191Y-261480D01*
X141437Y-261792D01*
X140789Y-262289D01*
X140292Y-262937D01*
X139980Y-263691D01*
X139873Y-264500D01*
X139980Y-265309D01*
X140292Y-266063D01*
X140789Y-266711D01*
X141437Y-267208D01*
X142191Y-267520D01*
X143000Y-267627D01*
X143809Y-267520D01*
X144563Y-267208D01*
X145211Y-266711D01*
X145708Y-266063D01*
X146020Y-265309D01*
X146127Y-264500D01*
X146020Y-263691D01*
X145708Y-262937D01*
X145211Y-262289D01*
X144563Y-261792D01*
X143809Y-261480D01*
X143000Y-261373D01*
D02*
G37*
G36*
X34000Y-258873D02*
X33191Y-258980D01*
X32437Y-259292D01*
X31789Y-259789D01*
X31292Y-260437D01*
X30980Y-261191D01*
X30873Y-262000D01*
X30980Y-262809D01*
X31292Y-263563D01*
X31789Y-264211D01*
X32437Y-264708D01*
X33191Y-265020D01*
X34000Y-265127D01*
X34809Y-265020D01*
X35563Y-264708D01*
X36211Y-264211D01*
X36708Y-263563D01*
X37020Y-262809D01*
X37127Y-262000D01*
X37020Y-261191D01*
X36708Y-260437D01*
X36211Y-259789D01*
X35563Y-259292D01*
X34809Y-258980D01*
X34000Y-258873D01*
D02*
G37*
G36*
X87051Y-261200D02*
X83949D01*
X84069Y-261381D01*
Y-261619D01*
X83949Y-261800D01*
X87051D01*
X86931Y-261619D01*
Y-261381D01*
X87051Y-261200D01*
D02*
G37*
G36*
X94500Y-256869D02*
X93876Y-256993D01*
X93347Y-257347D01*
X92993Y-257876D01*
X92869Y-258500D01*
X92993Y-259124D01*
X93347Y-259653D01*
X93876Y-260007D01*
X94500Y-260131D01*
X95124Y-260007D01*
X95653Y-259653D01*
X96007Y-259124D01*
X96131Y-258500D01*
X96007Y-257876D01*
X95653Y-257347D01*
X95124Y-256993D01*
X94500Y-256869D01*
D02*
G37*
G36*
X114250Y-257729D02*
X113735Y-257943D01*
X113004Y-258504D01*
X112443Y-259235D01*
X112229Y-259750D01*
X114250D01*
Y-257729D01*
D02*
G37*
G36*
X116750D02*
Y-259750D01*
X118771D01*
X118557Y-259235D01*
X117996Y-258504D01*
X117265Y-257943D01*
X116750Y-257729D01*
D02*
G37*
G36*
X207500Y-253619D02*
X206495Y-253751D01*
X205559Y-254139D01*
X204756Y-254756D01*
X204139Y-255559D01*
X203751Y-256495D01*
X203619Y-257500D01*
X203751Y-258505D01*
X204139Y-259441D01*
X204756Y-260244D01*
X205559Y-260861D01*
X206495Y-261249D01*
X207500Y-261381D01*
X208505Y-261249D01*
X209441Y-260861D01*
X210244Y-260244D01*
X210861Y-259441D01*
X211249Y-258505D01*
X211381Y-257500D01*
X211249Y-256495D01*
X210861Y-255559D01*
X210244Y-254756D01*
X209441Y-254139D01*
X208505Y-253751D01*
X207500Y-253619D01*
D02*
G37*
G36*
X7500D02*
X6496Y-253751D01*
X5559Y-254139D01*
X4756Y-254756D01*
X4139Y-255559D01*
X3751Y-256495D01*
X3619Y-257500D01*
X3751Y-258505D01*
X4139Y-259441D01*
X4756Y-260244D01*
X5559Y-260861D01*
X6496Y-261249D01*
X7500Y-261381D01*
X8505Y-261249D01*
X9441Y-260861D01*
X10244Y-260244D01*
X10861Y-259441D01*
X11249Y-258505D01*
X11381Y-257500D01*
X11249Y-256495D01*
X10861Y-255559D01*
X10244Y-254756D01*
X9441Y-254139D01*
X8505Y-253751D01*
X7500Y-253619D01*
D02*
G37*
G36*
X17500D02*
X16496Y-253751D01*
X15559Y-254139D01*
X14756Y-254756D01*
X14139Y-255559D01*
X13751Y-256495D01*
X13619Y-257500D01*
X13751Y-258505D01*
X14139Y-259441D01*
X14756Y-260244D01*
X15559Y-260861D01*
X16496Y-261249D01*
X17500Y-261381D01*
X18505Y-261249D01*
X19441Y-260861D01*
X20244Y-260244D01*
X20861Y-259441D01*
X21249Y-258505D01*
X21381Y-257500D01*
X21249Y-256495D01*
X20861Y-255559D01*
X20244Y-254756D01*
X19441Y-254139D01*
X18505Y-253751D01*
X17500Y-253619D01*
D02*
G37*
G36*
X197500D02*
X196495Y-253751D01*
X195559Y-254139D01*
X194756Y-254756D01*
X194139Y-255559D01*
X193751Y-256495D01*
X193619Y-257500D01*
X193751Y-258505D01*
X194139Y-259441D01*
X194756Y-260244D01*
X195559Y-260861D01*
X196495Y-261249D01*
X197500Y-261381D01*
X198504Y-261249D01*
X199441Y-260861D01*
X200244Y-260244D01*
X200861Y-259441D01*
X201249Y-258505D01*
X201381Y-257500D01*
X201249Y-256495D01*
X200861Y-255559D01*
X200244Y-254756D01*
X199441Y-254139D01*
X198504Y-253751D01*
X197500Y-253619D01*
D02*
G37*
G36*
X16250Y-238750D02*
X13420D01*
X13789Y-239642D01*
X14470Y-240530D01*
X15358Y-241211D01*
X16250Y-241580D01*
Y-238750D01*
D02*
G37*
G36*
X207500Y-223619D02*
X206495Y-223751D01*
X205559Y-224139D01*
X204756Y-224756D01*
X204139Y-225559D01*
X203751Y-226496D01*
X203619Y-227500D01*
X203751Y-228504D01*
X204139Y-229441D01*
X204756Y-230244D01*
X205559Y-230861D01*
X206495Y-231249D01*
X207500Y-231381D01*
X208505Y-231249D01*
X209441Y-230861D01*
X210244Y-230244D01*
X210861Y-229441D01*
X211249Y-228504D01*
X211381Y-227500D01*
X211249Y-226496D01*
X210861Y-225559D01*
X210244Y-224756D01*
X209441Y-224139D01*
X208505Y-223751D01*
X207500Y-223619D01*
D02*
G37*
G36*
X92000Y-223373D02*
X91191Y-223480D01*
X90437Y-223792D01*
X89789Y-224289D01*
X89292Y-224937D01*
X88980Y-225691D01*
X88873Y-226500D01*
X88980Y-227309D01*
X89292Y-228063D01*
X89789Y-228711D01*
X90437Y-229208D01*
X91191Y-229520D01*
X92000Y-229627D01*
X92809Y-229520D01*
X93563Y-229208D01*
X94211Y-228711D01*
X94708Y-228063D01*
X95020Y-227309D01*
X95127Y-226500D01*
X95020Y-225691D01*
X94708Y-224937D01*
X94211Y-224289D01*
X93563Y-223792D01*
X92809Y-223480D01*
X92000Y-223373D01*
D02*
G37*
G36*
X70000Y-218873D02*
X69191Y-218980D01*
X68437Y-219292D01*
X67789Y-219789D01*
X67292Y-220437D01*
X66980Y-221191D01*
X66873Y-222000D01*
X66980Y-222809D01*
X67292Y-223563D01*
X67789Y-224211D01*
X68437Y-224708D01*
X69191Y-225020D01*
X70000Y-225127D01*
X70809Y-225020D01*
X71563Y-224708D01*
X72211Y-224211D01*
X72708Y-223563D01*
X73020Y-222809D01*
X73127Y-222000D01*
X73020Y-221191D01*
X72708Y-220437D01*
X72211Y-219789D01*
X71563Y-219292D01*
X70809Y-218980D01*
X70000Y-218873D01*
D02*
G37*
G36*
X197500Y-223619D02*
X196495Y-223751D01*
X195559Y-224139D01*
X194756Y-224756D01*
X194139Y-225559D01*
X193751Y-226496D01*
X193619Y-227500D01*
X193751Y-228504D01*
X194139Y-229441D01*
X194756Y-230244D01*
X195559Y-230861D01*
X196495Y-231249D01*
X197500Y-231381D01*
X198504Y-231249D01*
X199441Y-230861D01*
X200244Y-230244D01*
X200861Y-229441D01*
X201249Y-228504D01*
X201381Y-227500D01*
X201249Y-226496D01*
X200861Y-225559D01*
X200244Y-224756D01*
X199441Y-224139D01*
X198504Y-223751D01*
X197500Y-223619D01*
D02*
G37*
G36*
X53250Y-231729D02*
Y-233750D01*
X55271D01*
X55057Y-233235D01*
X54496Y-232504D01*
X53765Y-231943D01*
X53250Y-231729D01*
D02*
G37*
G36*
X7500Y-223619D02*
X6496Y-223751D01*
X5559Y-224139D01*
X4756Y-224756D01*
X4139Y-225559D01*
X3751Y-226496D01*
X3619Y-227500D01*
X3751Y-228504D01*
X4139Y-229441D01*
X4756Y-230244D01*
X5559Y-230861D01*
X6496Y-231249D01*
X7500Y-231381D01*
X8505Y-231249D01*
X9441Y-230861D01*
X10244Y-230244D01*
X10861Y-229441D01*
X11249Y-228504D01*
X11381Y-227500D01*
X11249Y-226496D01*
X10861Y-225559D01*
X10244Y-224756D01*
X9441Y-224139D01*
X8505Y-223751D01*
X7500Y-223619D01*
D02*
G37*
G36*
X17500D02*
X16496Y-223751D01*
X15559Y-224139D01*
X14756Y-224756D01*
X14139Y-225559D01*
X13751Y-226496D01*
X13619Y-227500D01*
X13751Y-228504D01*
X14139Y-229441D01*
X14756Y-230244D01*
X15559Y-230861D01*
X16496Y-231249D01*
X17500Y-231381D01*
X18505Y-231249D01*
X19441Y-230861D01*
X20244Y-230244D01*
X20861Y-229441D01*
X21249Y-228504D01*
X21381Y-227500D01*
X21249Y-226496D01*
X20861Y-225559D01*
X20244Y-224756D01*
X19441Y-224139D01*
X18505Y-223751D01*
X17500Y-223619D01*
D02*
G37*
G36*
X7500Y-213619D02*
X6496Y-213751D01*
X5559Y-214139D01*
X4756Y-214756D01*
X4139Y-215559D01*
X3751Y-216495D01*
X3619Y-217500D01*
X3751Y-218505D01*
X4139Y-219441D01*
X4756Y-220244D01*
X5559Y-220861D01*
X6496Y-221249D01*
X7500Y-221381D01*
X8505Y-221249D01*
X9441Y-220861D01*
X10244Y-220244D01*
X10861Y-219441D01*
X11249Y-218505D01*
X11381Y-217500D01*
X11249Y-216495D01*
X10861Y-215559D01*
X10244Y-214756D01*
X9441Y-214139D01*
X8505Y-213751D01*
X7500Y-213619D01*
D02*
G37*
G36*
X98589Y-210250D02*
X96569D01*
Y-212271D01*
X97084Y-212057D01*
X97815Y-211496D01*
X98376Y-210765D01*
X98589Y-210250D01*
D02*
G37*
G36*
X7500Y-203619D02*
X6496Y-203751D01*
X5559Y-204139D01*
X4756Y-204756D01*
X4139Y-205559D01*
X3751Y-206495D01*
X3619Y-207500D01*
X3751Y-208505D01*
X4139Y-209441D01*
X4756Y-210244D01*
X5559Y-210861D01*
X6496Y-211249D01*
X7500Y-211381D01*
X8505Y-211249D01*
X9441Y-210861D01*
X10244Y-210244D01*
X10861Y-209441D01*
X11249Y-208505D01*
X11381Y-207500D01*
X11249Y-206495D01*
X10861Y-205559D01*
X10244Y-204756D01*
X9441Y-204139D01*
X8505Y-203751D01*
X7500Y-203619D01*
D02*
G37*
G36*
X17500D02*
X16496Y-203751D01*
X15559Y-204139D01*
X14756Y-204756D01*
X14139Y-205559D01*
X13751Y-206495D01*
X13619Y-207500D01*
X13751Y-208505D01*
X14139Y-209441D01*
X14756Y-210244D01*
X15559Y-210861D01*
X16496Y-211249D01*
X17500Y-211381D01*
X18505Y-211249D01*
X19441Y-210861D01*
X20244Y-210244D01*
X20861Y-209441D01*
X21249Y-208505D01*
X21381Y-207500D01*
X21249Y-206495D01*
X20861Y-205559D01*
X20244Y-204756D01*
X19441Y-204139D01*
X18505Y-203751D01*
X17500Y-203619D01*
D02*
G37*
G36*
X94069Y-210250D02*
X92048D01*
X92262Y-210765D01*
X92823Y-211496D01*
X93554Y-212057D01*
X94069Y-212271D01*
Y-210250D01*
D02*
G37*
G36*
X17500Y-213619D02*
X16496Y-213751D01*
X15559Y-214139D01*
X14756Y-214756D01*
X14139Y-215559D01*
X13751Y-216495D01*
X13619Y-217500D01*
X13751Y-218505D01*
X14139Y-219441D01*
X14756Y-220244D01*
X15559Y-220861D01*
X16496Y-221249D01*
X17500Y-221381D01*
X18505Y-221249D01*
X19441Y-220861D01*
X20244Y-220244D01*
X20861Y-219441D01*
X21249Y-218505D01*
X21381Y-217500D01*
X21249Y-216495D01*
X20861Y-215559D01*
X20244Y-214756D01*
X19441Y-214139D01*
X18505Y-213751D01*
X17500Y-213619D01*
D02*
G37*
G36*
X197500D02*
X196495Y-213751D01*
X195559Y-214139D01*
X194756Y-214756D01*
X194139Y-215559D01*
X193751Y-216495D01*
X193619Y-217500D01*
X193751Y-218505D01*
X194139Y-219441D01*
X194756Y-220244D01*
X195559Y-220861D01*
X196495Y-221249D01*
X197500Y-221381D01*
X198504Y-221249D01*
X199441Y-220861D01*
X200244Y-220244D01*
X200861Y-219441D01*
X201249Y-218505D01*
X201381Y-217500D01*
X201249Y-216495D01*
X200861Y-215559D01*
X200244Y-214756D01*
X199441Y-214139D01*
X198504Y-213751D01*
X197500Y-213619D01*
D02*
G37*
G36*
X207500D02*
X206495Y-213751D01*
X205559Y-214139D01*
X204756Y-214756D01*
X204139Y-215559D01*
X203751Y-216495D01*
X203619Y-217500D01*
X203751Y-218505D01*
X204139Y-219441D01*
X204756Y-220244D01*
X205559Y-220861D01*
X206495Y-221249D01*
X207500Y-221381D01*
X208505Y-221249D01*
X209441Y-220861D01*
X210244Y-220244D01*
X210861Y-219441D01*
X211249Y-218505D01*
X211381Y-217500D01*
X211249Y-216495D01*
X210861Y-215559D01*
X210244Y-214756D01*
X209441Y-214139D01*
X208505Y-213751D01*
X207500Y-213619D01*
D02*
G37*
G36*
X87551Y-240700D02*
X84449D01*
X84569Y-240880D01*
Y-241120D01*
X84449Y-241300D01*
X87551D01*
X87431Y-241120D01*
Y-240880D01*
X87551Y-240700D01*
D02*
G37*
G36*
X76500Y-232373D02*
X75691Y-232480D01*
X74937Y-232792D01*
X74289Y-233289D01*
X73792Y-233937D01*
X73480Y-234691D01*
X73373Y-235500D01*
X73480Y-236309D01*
X73792Y-237063D01*
X74289Y-237711D01*
X74937Y-238208D01*
X75691Y-238520D01*
X76500Y-238627D01*
X77309Y-238520D01*
X78063Y-238208D01*
X78711Y-237711D01*
X79208Y-237063D01*
X79520Y-236309D01*
X79627Y-235500D01*
X79520Y-234691D01*
X79208Y-233937D01*
X78711Y-233289D01*
X78063Y-232792D01*
X77309Y-232480D01*
X76500Y-232373D01*
D02*
G37*
G36*
X50750Y-236250D02*
X48729D01*
X48943Y-236765D01*
X49504Y-237496D01*
X50235Y-238057D01*
X50750Y-238271D01*
Y-236250D01*
D02*
G37*
G36*
X207500Y-233619D02*
X206495Y-233751D01*
X205559Y-234139D01*
X204756Y-234756D01*
X204139Y-235559D01*
X203751Y-236495D01*
X203619Y-237500D01*
X203751Y-238505D01*
X204139Y-239441D01*
X204756Y-240244D01*
X205559Y-240861D01*
X206495Y-241249D01*
X207500Y-241381D01*
X208505Y-241249D01*
X209441Y-240861D01*
X210244Y-240244D01*
X210861Y-239441D01*
X211249Y-238505D01*
X211381Y-237500D01*
X211249Y-236495D01*
X210861Y-235559D01*
X210244Y-234756D01*
X209441Y-234139D01*
X208505Y-233751D01*
X207500Y-233619D01*
D02*
G37*
G36*
X21580Y-238750D02*
X18750D01*
Y-241580D01*
X19642Y-241211D01*
X20530Y-240530D01*
X21211Y-239642D01*
X21580Y-238750D01*
D02*
G37*
G36*
X7500Y-233619D02*
X6496Y-233751D01*
X5559Y-234139D01*
X4756Y-234756D01*
X4139Y-235559D01*
X3751Y-236495D01*
X3619Y-237500D01*
X3751Y-238505D01*
X4139Y-239441D01*
X4756Y-240244D01*
X5559Y-240861D01*
X6496Y-241249D01*
X7500Y-241381D01*
X8505Y-241249D01*
X9441Y-240861D01*
X10244Y-240244D01*
X10861Y-239441D01*
X11249Y-238505D01*
X11381Y-237500D01*
X11249Y-236495D01*
X10861Y-235559D01*
X10244Y-234756D01*
X9441Y-234139D01*
X8505Y-233751D01*
X7500Y-233619D01*
D02*
G37*
G36*
X197500D02*
X196495Y-233751D01*
X195559Y-234139D01*
X194756Y-234756D01*
X194139Y-235559D01*
X193751Y-236495D01*
X193619Y-237500D01*
X193751Y-238505D01*
X194139Y-239441D01*
X194756Y-240244D01*
X195559Y-240861D01*
X196495Y-241249D01*
X197500Y-241381D01*
X198504Y-241249D01*
X199441Y-240861D01*
X200244Y-240244D01*
X200861Y-239441D01*
X201249Y-238505D01*
X201381Y-237500D01*
X201249Y-236495D01*
X200861Y-235559D01*
X200244Y-234756D01*
X199441Y-234139D01*
X198504Y-233751D01*
X197500Y-233619D01*
D02*
G37*
G36*
X55271Y-236250D02*
X53250D01*
Y-238271D01*
X53765Y-238057D01*
X54496Y-237496D01*
X55057Y-236765D01*
X55271Y-236250D01*
D02*
G37*
G36*
X16250Y-233420D02*
X15358Y-233789D01*
X14470Y-234470D01*
X13789Y-235358D01*
X13420Y-236250D01*
X16250D01*
Y-233420D01*
D02*
G37*
G36*
X18750D02*
Y-236250D01*
X21580D01*
X21211Y-235358D01*
X20530Y-234470D01*
X19642Y-233789D01*
X18750Y-233420D01*
D02*
G37*
G36*
X50750Y-231729D02*
X50235Y-231943D01*
X49504Y-232504D01*
X48943Y-233235D01*
X48729Y-233750D01*
X50750D01*
Y-231729D01*
D02*
G37*
G36*
X96500Y-231873D02*
X95691Y-231980D01*
X94937Y-232292D01*
X94289Y-232789D01*
X93792Y-233437D01*
X93480Y-234191D01*
X93373Y-235000D01*
X93480Y-235809D01*
X93792Y-236563D01*
X94289Y-237211D01*
X94937Y-237708D01*
X95691Y-238020D01*
X96500Y-238127D01*
X97309Y-238020D01*
X98063Y-237708D01*
X98711Y-237211D01*
X99208Y-236563D01*
X99520Y-235809D01*
X99627Y-235000D01*
X99520Y-234191D01*
X99208Y-233437D01*
X98711Y-232789D01*
X98063Y-232292D01*
X97309Y-231980D01*
X96500Y-231873D01*
D02*
G37*
G36*
X84750Y-237899D02*
X84569Y-238019D01*
X84449Y-238200D01*
X84750D01*
Y-237899D01*
D02*
G37*
G36*
X87250D02*
Y-238200D01*
X87551D01*
X87431Y-238019D01*
X87250Y-237899D01*
D02*
G37*
G36*
X64500Y-231851D02*
X59500D01*
X59041Y-232041D01*
X58851Y-232500D01*
Y-237500D01*
X59041Y-237959D01*
X59500Y-238149D01*
X64500D01*
X64959Y-237959D01*
X65149Y-237500D01*
Y-232500D01*
X64959Y-232041D01*
X64500Y-231851D01*
D02*
G37*
G36*
X141250Y-268229D02*
Y-270250D01*
X143271D01*
X143057Y-269735D01*
X142496Y-269004D01*
X141765Y-268443D01*
X141250Y-268229D01*
D02*
G37*
G36*
X16250Y-298750D02*
X13420D01*
X13789Y-299642D01*
X14470Y-300530D01*
X15358Y-301211D01*
X16250Y-301580D01*
Y-298750D01*
D02*
G37*
G36*
X21580D02*
X18750D01*
Y-301580D01*
X19642Y-301211D01*
X20530Y-300530D01*
X21211Y-299642D01*
X21580Y-298750D01*
D02*
G37*
G36*
X197500Y-293619D02*
X196495Y-293751D01*
X195559Y-294139D01*
X194756Y-294756D01*
X194139Y-295559D01*
X193751Y-296496D01*
X193619Y-297500D01*
X193751Y-298504D01*
X194139Y-299441D01*
X194756Y-300244D01*
X195559Y-300861D01*
X196495Y-301249D01*
X197500Y-301381D01*
X198504Y-301249D01*
X199441Y-300861D01*
X200244Y-300244D01*
X200861Y-299441D01*
X201249Y-298504D01*
X201381Y-297500D01*
X201249Y-296496D01*
X200861Y-295559D01*
X200244Y-294756D01*
X199441Y-294139D01*
X198504Y-293751D01*
X197500Y-293619D01*
D02*
G37*
G36*
X11580Y-298750D02*
X8750D01*
Y-301580D01*
X9642Y-301211D01*
X10530Y-300530D01*
X11211Y-299642D01*
X11580Y-298750D01*
D02*
G37*
G36*
X122750Y-301750D02*
X122430D01*
X122558Y-301942D01*
X122750Y-302070D01*
Y-301750D01*
D02*
G37*
G36*
X125570D02*
X125250D01*
Y-302070D01*
X125442Y-301942D01*
X125570Y-301750D01*
D02*
G37*
G36*
X6250Y-298750D02*
X3420D01*
X3789Y-299642D01*
X4470Y-300530D01*
X5358Y-301211D01*
X6250Y-301580D01*
Y-298750D01*
D02*
G37*
G36*
X207500Y-293619D02*
X206495Y-293751D01*
X205559Y-294139D01*
X204756Y-294756D01*
X204139Y-295559D01*
X203751Y-296496D01*
X203619Y-297500D01*
X203751Y-298504D01*
X204139Y-299441D01*
X204756Y-300244D01*
X205559Y-300861D01*
X206495Y-301249D01*
X207500Y-301381D01*
X208505Y-301249D01*
X209441Y-300861D01*
X210244Y-300244D01*
X210861Y-299441D01*
X211249Y-298504D01*
X211381Y-297500D01*
X211249Y-296496D01*
X210861Y-295559D01*
X210244Y-294756D01*
X209441Y-294139D01*
X208505Y-293751D01*
X207500Y-293619D01*
D02*
G37*
G36*
X16250Y-293420D02*
X15358Y-293789D01*
X14470Y-294470D01*
X13789Y-295358D01*
X13420Y-296250D01*
X16250D01*
Y-293420D01*
D02*
G37*
G36*
X18750D02*
Y-296250D01*
X21580D01*
X21211Y-295358D01*
X20530Y-294470D01*
X19642Y-293789D01*
X18750Y-293420D01*
D02*
G37*
G36*
X31000Y-288373D02*
X30191Y-288480D01*
X29437Y-288792D01*
X28789Y-289289D01*
X28292Y-289937D01*
X27980Y-290691D01*
X27873Y-291500D01*
X27980Y-292309D01*
X28292Y-293063D01*
X28789Y-293711D01*
X29437Y-294208D01*
X30191Y-294520D01*
X31000Y-294627D01*
X31809Y-294520D01*
X32563Y-294208D01*
X33211Y-293711D01*
X33708Y-293063D01*
X34020Y-292309D01*
X34127Y-291500D01*
X34020Y-290691D01*
X33708Y-289937D01*
X33211Y-289289D01*
X32563Y-288792D01*
X31809Y-288480D01*
X31000Y-288373D01*
D02*
G37*
G36*
X8750Y-293420D02*
Y-296250D01*
X11580D01*
X11211Y-295358D01*
X10530Y-294470D01*
X9642Y-293789D01*
X8750Y-293420D01*
D02*
G37*
G36*
X122750Y-298930D02*
X122558Y-299058D01*
X122430Y-299250D01*
X122750D01*
Y-298930D01*
D02*
G37*
G36*
X125250D02*
Y-299250D01*
X125570D01*
X125442Y-299058D01*
X125250Y-298930D01*
D02*
G37*
G36*
X6250Y-293420D02*
X5358Y-293789D01*
X4470Y-294470D01*
X3789Y-295358D01*
X3420Y-296250D01*
X6250D01*
Y-293420D01*
D02*
G37*
G36*
X16750Y-314768D02*
X16603Y-314788D01*
X15302Y-315327D01*
X14184Y-316184D01*
X13327Y-317302D01*
X12788Y-318603D01*
X12768Y-318750D01*
X16750D01*
Y-314768D01*
D02*
G37*
G36*
X19250D02*
Y-318750D01*
X23232D01*
X23212Y-318603D01*
X22673Y-317302D01*
X21816Y-316184D01*
X20698Y-315327D01*
X19397Y-314788D01*
X19250Y-314768D01*
D02*
G37*
G36*
X158250Y-316250D02*
X156229D01*
X156443Y-316765D01*
X157004Y-317496D01*
X157735Y-318057D01*
X158250Y-318271D01*
Y-316250D01*
D02*
G37*
G36*
X23232Y-321250D02*
X19250D01*
Y-325232D01*
X19397Y-325212D01*
X20698Y-324673D01*
X21816Y-323816D01*
X22673Y-322698D01*
X23212Y-321397D01*
X23232Y-321250D01*
D02*
G37*
G36*
X187528Y-327917D02*
X178472D01*
X177545Y-328039D01*
X176681Y-328397D01*
X175939Y-328966D01*
X175369Y-329708D01*
X175011Y-330573D01*
X174889Y-331500D01*
X175011Y-332427D01*
X175369Y-333292D01*
X175939Y-334034D01*
X176681Y-334603D01*
X177545Y-334961D01*
X178472Y-335083D01*
X187528D01*
X188455Y-334961D01*
X189319Y-334603D01*
X190061Y-334034D01*
X190631Y-333292D01*
X190989Y-332427D01*
X191111Y-331500D01*
X190989Y-330573D01*
X190631Y-329708D01*
X190061Y-328966D01*
X189319Y-328397D01*
X188455Y-328039D01*
X187528Y-327917D01*
D02*
G37*
G36*
X201504Y-310589D02*
X200576Y-310711D01*
X199712Y-311069D01*
X198970Y-311639D01*
X198401Y-312381D01*
X198043Y-313245D01*
X197921Y-314172D01*
Y-323228D01*
X198043Y-324155D01*
X198401Y-325019D01*
X198970Y-325761D01*
X199712Y-326331D01*
X200576Y-326689D01*
X201504Y-326811D01*
X202431Y-326689D01*
X203296Y-326331D01*
X204038Y-325761D01*
X204607Y-325019D01*
X204965Y-324155D01*
X205087Y-323228D01*
Y-314172D01*
X204965Y-313245D01*
X204607Y-312381D01*
X204038Y-311639D01*
X203296Y-311069D01*
X202431Y-310711D01*
X201504Y-310589D01*
D02*
G37*
G36*
X16750Y-321250D02*
X12768D01*
X12788Y-321397D01*
X13327Y-322698D01*
X14184Y-323816D01*
X15302Y-324673D01*
X16603Y-325212D01*
X16750Y-325232D01*
Y-321250D01*
D02*
G37*
G36*
X162771Y-316250D02*
X160750D01*
Y-318271D01*
X161265Y-318057D01*
X161996Y-317496D01*
X162557Y-316765D01*
X162771Y-316250D01*
D02*
G37*
G36*
X74750Y-309729D02*
X74235Y-309943D01*
X73504Y-310504D01*
X72943Y-311235D01*
X72729Y-311750D01*
X74750D01*
Y-309729D01*
D02*
G37*
G36*
X77250D02*
Y-311750D01*
X79271D01*
X79057Y-311235D01*
X78496Y-310504D01*
X77765Y-309943D01*
X77250Y-309729D01*
D02*
G37*
G36*
X188118Y-302920D02*
X177882D01*
X176852Y-303055D01*
X175892Y-303453D01*
X175067Y-304085D01*
X174435Y-304910D01*
X174037Y-305870D01*
X173901Y-306900D01*
X174037Y-307930D01*
X174435Y-308890D01*
X175067Y-309715D01*
X175892Y-310347D01*
X176852Y-310745D01*
X177882Y-310880D01*
X188118D01*
X189148Y-310745D01*
X190108Y-310347D01*
X190933Y-309715D01*
X191565Y-308890D01*
X191963Y-307930D01*
X192099Y-306900D01*
X191963Y-305870D01*
X191565Y-304910D01*
X190933Y-304085D01*
X190108Y-303453D01*
X189148Y-303055D01*
X188118Y-302920D01*
D02*
G37*
G36*
X160750Y-311729D02*
Y-313750D01*
X162771D01*
X162557Y-313235D01*
X161996Y-312504D01*
X161265Y-311943D01*
X160750Y-311729D01*
D02*
G37*
G36*
X74750Y-314250D02*
X72729D01*
X72943Y-314765D01*
X73504Y-315496D01*
X74235Y-316057D01*
X74750Y-316271D01*
Y-314250D01*
D02*
G37*
G36*
X79271D02*
X77250D01*
Y-316271D01*
X77765Y-316057D01*
X78496Y-315496D01*
X79057Y-314765D01*
X79271Y-314250D01*
D02*
G37*
G36*
X158250Y-311729D02*
X157735Y-311943D01*
X157004Y-312504D01*
X156443Y-313235D01*
X156229Y-313750D01*
X158250D01*
Y-311729D01*
D02*
G37*
G36*
X6250Y-288750D02*
X3420D01*
X3789Y-289642D01*
X4470Y-290530D01*
X5358Y-291211D01*
X6250Y-291580D01*
Y-288750D01*
D02*
G37*
G36*
X152998Y-279449D02*
Y-279750D01*
X153299D01*
X153179Y-279569D01*
X152998Y-279449D01*
D02*
G37*
G36*
X74250Y-276729D02*
X73735Y-276943D01*
X73004Y-277504D01*
X72443Y-278235D01*
X72229Y-278750D01*
X74250D01*
Y-276729D01*
D02*
G37*
G36*
X76750D02*
Y-278750D01*
X78771D01*
X78557Y-278235D01*
X77996Y-277504D01*
X77265Y-276943D01*
X76750Y-276729D01*
D02*
G37*
G36*
X144002Y-279449D02*
X143821Y-279569D01*
X143701Y-279750D01*
X144002D01*
Y-279449D01*
D02*
G37*
G36*
X207500Y-273619D02*
X206495Y-273751D01*
X205559Y-274139D01*
X204756Y-274756D01*
X204139Y-275559D01*
X203751Y-276496D01*
X203619Y-277500D01*
X203751Y-278504D01*
X204139Y-279441D01*
X204756Y-280244D01*
X205559Y-280861D01*
X206495Y-281249D01*
X207500Y-281381D01*
X208505Y-281249D01*
X209441Y-280861D01*
X210244Y-280244D01*
X210861Y-279441D01*
X211249Y-278504D01*
X211381Y-277500D01*
X211249Y-276496D01*
X210861Y-275559D01*
X210244Y-274756D01*
X209441Y-274139D01*
X208505Y-273751D01*
X207500Y-273619D01*
D02*
G37*
G36*
X11348Y-273652D02*
X3652D01*
Y-281348D01*
X11348D01*
Y-273652D01*
D02*
G37*
G36*
X201348D02*
X193652D01*
Y-281348D01*
X201348D01*
Y-273652D01*
D02*
G37*
G36*
X149750Y-277087D02*
Y-278638D01*
X147250D01*
Y-277087D01*
X147069Y-277207D01*
X146631Y-277864D01*
X146502Y-278512D01*
Y-281000D01*
Y-283488D01*
X146631Y-284136D01*
X147069Y-284793D01*
X147250Y-284913D01*
Y-283362D01*
X149750D01*
Y-284913D01*
X149931Y-284793D01*
X150369Y-284136D01*
X150498Y-283488D01*
Y-281000D01*
Y-278512D01*
X150369Y-277864D01*
X149931Y-277207D01*
X149750Y-277087D01*
D02*
G37*
G36*
X197500Y-263619D02*
X196495Y-263751D01*
X195559Y-264139D01*
X194756Y-264756D01*
X194139Y-265559D01*
X193751Y-266495D01*
X193619Y-267500D01*
X193751Y-268505D01*
X194139Y-269441D01*
X194756Y-270244D01*
X195559Y-270861D01*
X196495Y-271249D01*
X197500Y-271381D01*
X198504Y-271249D01*
X199441Y-270861D01*
X200244Y-270244D01*
X200861Y-269441D01*
X201249Y-268505D01*
X201381Y-267500D01*
X201249Y-266495D01*
X200861Y-265559D01*
X200244Y-264756D01*
X199441Y-264139D01*
X198504Y-263751D01*
X197500Y-263619D01*
D02*
G37*
G36*
X207500D02*
X206495Y-263751D01*
X205559Y-264139D01*
X204756Y-264756D01*
X204139Y-265559D01*
X203751Y-266495D01*
X203619Y-267500D01*
X203751Y-268505D01*
X204139Y-269441D01*
X204756Y-270244D01*
X205559Y-270861D01*
X206495Y-271249D01*
X207500Y-271381D01*
X208505Y-271249D01*
X209441Y-270861D01*
X210244Y-270244D01*
X210861Y-269441D01*
X211249Y-268505D01*
X211381Y-267500D01*
X211249Y-266495D01*
X210861Y-265559D01*
X210244Y-264756D01*
X209441Y-264139D01*
X208505Y-263751D01*
X207500Y-263619D01*
D02*
G37*
G36*
X138750Y-268229D02*
X138235Y-268443D01*
X137504Y-269004D01*
X136943Y-269735D01*
X136729Y-270250D01*
X138750D01*
Y-268229D01*
D02*
G37*
G36*
X17500Y-263619D02*
X16496Y-263751D01*
X15559Y-264139D01*
X14756Y-264756D01*
X14139Y-265559D01*
X13751Y-266495D01*
X13619Y-267500D01*
X13751Y-268505D01*
X14139Y-269441D01*
X14756Y-270244D01*
X15559Y-270861D01*
X16496Y-271249D01*
X17500Y-271381D01*
X18505Y-271249D01*
X19441Y-270861D01*
X20244Y-270244D01*
X20861Y-269441D01*
X21249Y-268505D01*
X21381Y-267500D01*
X21249Y-266495D01*
X20861Y-265559D01*
X20244Y-264756D01*
X19441Y-264139D01*
X18505Y-263751D01*
X17500Y-263619D01*
D02*
G37*
G36*
X138750Y-272750D02*
X136729D01*
X136943Y-273265D01*
X137504Y-273996D01*
X138235Y-274557D01*
X138750Y-274771D01*
Y-272750D01*
D02*
G37*
G36*
X143271D02*
X141250D01*
Y-274771D01*
X141765Y-274557D01*
X142496Y-273996D01*
X143057Y-273265D01*
X143271Y-272750D01*
D02*
G37*
G36*
X7500Y-263619D02*
X6496Y-263751D01*
X5559Y-264139D01*
X4756Y-264756D01*
X4139Y-265559D01*
X3751Y-266495D01*
X3619Y-267500D01*
X3751Y-268505D01*
X4139Y-269441D01*
X4756Y-270244D01*
X5559Y-270861D01*
X6496Y-271249D01*
X7500Y-271381D01*
X8505Y-271249D01*
X9441Y-270861D01*
X10244Y-270244D01*
X10861Y-269441D01*
X11249Y-268505D01*
X11381Y-267500D01*
X11249Y-266495D01*
X10861Y-265559D01*
X10244Y-264756D01*
X9441Y-264139D01*
X8505Y-263751D01*
X7500Y-263619D01*
D02*
G37*
G36*
X207500Y-283619D02*
X206495Y-283751D01*
X205559Y-284139D01*
X204756Y-284756D01*
X204139Y-285559D01*
X203751Y-286495D01*
X203619Y-287500D01*
X203751Y-288505D01*
X204139Y-289441D01*
X204756Y-290244D01*
X205559Y-290861D01*
X206495Y-291249D01*
X207500Y-291381D01*
X208505Y-291249D01*
X209441Y-290861D01*
X210244Y-290244D01*
X210861Y-289441D01*
X211249Y-288505D01*
X211381Y-287500D01*
X211249Y-286495D01*
X210861Y-285559D01*
X210244Y-284756D01*
X209441Y-284139D01*
X208505Y-283751D01*
X207500Y-283619D01*
D02*
G37*
G36*
X6250Y-283420D02*
X5358Y-283789D01*
X4470Y-284470D01*
X3789Y-285358D01*
X3420Y-286250D01*
X6250D01*
Y-283420D01*
D02*
G37*
G36*
X8750D02*
Y-286250D01*
X11580D01*
X11211Y-285358D01*
X10530Y-284470D01*
X9642Y-283789D01*
X8750Y-283420D01*
D02*
G37*
G36*
X197500Y-283619D02*
X196495Y-283751D01*
X195559Y-284139D01*
X194756Y-284756D01*
X194139Y-285559D01*
X193751Y-286495D01*
X193619Y-287500D01*
X193751Y-288505D01*
X194139Y-289441D01*
X194756Y-290244D01*
X195559Y-290861D01*
X196495Y-291249D01*
X197500Y-291381D01*
X198504Y-291249D01*
X199441Y-290861D01*
X200244Y-290244D01*
X200861Y-289441D01*
X201249Y-288505D01*
X201381Y-287500D01*
X201249Y-286495D01*
X200861Y-285559D01*
X200244Y-284756D01*
X199441Y-284139D01*
X198504Y-283751D01*
X197500Y-283619D01*
D02*
G37*
G36*
X11580Y-288750D02*
X8750D01*
Y-291580D01*
X9642Y-291211D01*
X10530Y-290530D01*
X11211Y-289642D01*
X11580Y-288750D01*
D02*
G37*
G36*
X16250D02*
X13420D01*
X13789Y-289642D01*
X14470Y-290530D01*
X15358Y-291211D01*
X16250Y-291580D01*
Y-288750D01*
D02*
G37*
G36*
X21580D02*
X18750D01*
Y-291580D01*
X19642Y-291211D01*
X20530Y-290530D01*
X21211Y-289642D01*
X21580Y-288750D01*
D02*
G37*
G36*
X16250Y-283420D02*
X15358Y-283789D01*
X14470Y-284470D01*
X13789Y-285358D01*
X13420Y-286250D01*
X16250D01*
Y-283420D01*
D02*
G37*
G36*
X153299Y-282250D02*
X152998D01*
Y-282551D01*
X153179Y-282431D01*
X153299Y-282250D01*
D02*
G37*
G36*
X45500Y-272507D02*
X44208Y-272677D01*
X43004Y-273176D01*
X41970Y-273970D01*
X41176Y-275004D01*
X40677Y-276208D01*
X40507Y-277500D01*
X40677Y-278792D01*
X41176Y-279996D01*
X41970Y-281030D01*
X43004Y-281824D01*
X44208Y-282323D01*
X45500Y-282493D01*
X46792Y-282323D01*
X47996Y-281824D01*
X49030Y-281030D01*
X49824Y-279996D01*
X50323Y-278792D01*
X50493Y-277500D01*
X50323Y-276208D01*
X49824Y-275004D01*
X49030Y-273970D01*
X47996Y-273176D01*
X46792Y-272677D01*
X45500Y-272507D01*
D02*
G37*
G36*
X17500Y-273619D02*
X16496Y-273751D01*
X15559Y-274139D01*
X14756Y-274756D01*
X14139Y-275559D01*
X13751Y-276496D01*
X13619Y-277500D01*
X13751Y-278504D01*
X14139Y-279441D01*
X14756Y-280244D01*
X15559Y-280861D01*
X16496Y-281249D01*
X17500Y-281381D01*
X18505Y-281249D01*
X19441Y-280861D01*
X20244Y-280244D01*
X20861Y-279441D01*
X21249Y-278504D01*
X21381Y-277500D01*
X21249Y-276496D01*
X20861Y-275559D01*
X20244Y-274756D01*
X19441Y-274139D01*
X18505Y-273751D01*
X17500Y-273619D01*
D02*
G37*
G36*
X144002Y-282250D02*
X143701D01*
X143821Y-282431D01*
X144002Y-282551D01*
Y-282250D01*
D02*
G37*
G36*
X18750Y-283420D02*
Y-286250D01*
X21580D01*
X21211Y-285358D01*
X20530Y-284470D01*
X19642Y-283789D01*
X18750Y-283420D01*
D02*
G37*
G36*
X74250Y-281250D02*
X72229D01*
X72443Y-281765D01*
X73004Y-282496D01*
X73735Y-283057D01*
X74250Y-283271D01*
Y-281250D01*
D02*
G37*
G36*
X78771D02*
X76750D01*
Y-283271D01*
X77265Y-283057D01*
X77996Y-282496D01*
X78557Y-281765D01*
X78771Y-281250D01*
D02*
G37*
G36*
X197500Y-203619D02*
X196495Y-203751D01*
X195559Y-204139D01*
X194756Y-204756D01*
X194139Y-205559D01*
X193751Y-206495D01*
X193619Y-207500D01*
X193751Y-208505D01*
X194139Y-209441D01*
X194756Y-210244D01*
X195559Y-210861D01*
X196495Y-211249D01*
X197500Y-211381D01*
X198504Y-211249D01*
X199441Y-210861D01*
X200244Y-210244D01*
X200861Y-209441D01*
X201249Y-208505D01*
X201381Y-207500D01*
X201249Y-206495D01*
X200861Y-205559D01*
X200244Y-204756D01*
X199441Y-204139D01*
X198504Y-203751D01*
X197500Y-203619D01*
D02*
G37*
G36*
X207500Y-93619D02*
X206495Y-93751D01*
X205559Y-94139D01*
X204756Y-94756D01*
X204139Y-95559D01*
X203751Y-96495D01*
X203619Y-97500D01*
X203751Y-98505D01*
X204139Y-99441D01*
X204756Y-100244D01*
X205559Y-100861D01*
X206495Y-101249D01*
X207500Y-101381D01*
X208505Y-101249D01*
X209441Y-100861D01*
X210244Y-100244D01*
X210861Y-99441D01*
X211249Y-98505D01*
X211381Y-97500D01*
X211249Y-96495D01*
X210861Y-95559D01*
X210244Y-94756D01*
X209441Y-94139D01*
X208505Y-93751D01*
X207500Y-93619D01*
D02*
G37*
G36*
X132750Y-95250D02*
X130729D01*
X130943Y-95765D01*
X131504Y-96496D01*
X132235Y-97057D01*
X132750Y-97271D01*
Y-95250D01*
D02*
G37*
G36*
X137271D02*
X135250D01*
Y-97271D01*
X135765Y-97057D01*
X136496Y-96496D01*
X137057Y-95765D01*
X137271Y-95250D01*
D02*
G37*
G36*
X197500Y-93619D02*
X196495Y-93751D01*
X195559Y-94139D01*
X194756Y-94756D01*
X194139Y-95559D01*
X193751Y-96495D01*
X193619Y-97500D01*
X193751Y-98505D01*
X194139Y-99441D01*
X194756Y-100244D01*
X195559Y-100861D01*
X196495Y-101249D01*
X197500Y-101381D01*
X198504Y-101249D01*
X199441Y-100861D01*
X200244Y-100244D01*
X200861Y-99441D01*
X201249Y-98505D01*
X201381Y-97500D01*
X201249Y-96495D01*
X200861Y-95559D01*
X200244Y-94756D01*
X199441Y-94139D01*
X198504Y-93751D01*
X197500Y-93619D01*
D02*
G37*
G36*
X177053Y-97447D02*
X169947D01*
Y-104553D01*
X177053D01*
Y-97447D01*
D02*
G37*
G36*
X7500Y-93619D02*
X6496Y-93751D01*
X5559Y-94139D01*
X4756Y-94756D01*
X4139Y-95559D01*
X3751Y-96495D01*
X3619Y-97500D01*
X3751Y-98505D01*
X4139Y-99441D01*
X4756Y-100244D01*
X5559Y-100861D01*
X6496Y-101249D01*
X7500Y-101381D01*
X8505Y-101249D01*
X9441Y-100861D01*
X10244Y-100244D01*
X10861Y-99441D01*
X11249Y-98505D01*
X11381Y-97500D01*
X11249Y-96495D01*
X10861Y-95559D01*
X10244Y-94756D01*
X9441Y-94139D01*
X8505Y-93751D01*
X7500Y-93619D01*
D02*
G37*
G36*
X17500D02*
X16496Y-93751D01*
X15559Y-94139D01*
X14756Y-94756D01*
X14139Y-95559D01*
X13751Y-96495D01*
X13619Y-97500D01*
X13751Y-98505D01*
X14139Y-99441D01*
X14756Y-100244D01*
X15559Y-100861D01*
X16496Y-101249D01*
X17500Y-101381D01*
X18505Y-101249D01*
X19441Y-100861D01*
X20244Y-100244D01*
X20861Y-99441D01*
X21249Y-98505D01*
X21381Y-97500D01*
X21249Y-96495D01*
X20861Y-95559D01*
X20244Y-94756D01*
X19441Y-94139D01*
X18505Y-93751D01*
X17500Y-93619D01*
D02*
G37*
G36*
X48271Y-88750D02*
X41729D01*
X41943Y-89265D01*
X42504Y-89996D01*
X42515Y-90005D01*
X42257Y-90971D01*
X42191Y-90980D01*
X41437Y-91292D01*
X40789Y-91789D01*
X40292Y-92437D01*
X39980Y-93191D01*
X39873Y-94000D01*
X39980Y-94809D01*
X40292Y-95563D01*
X40789Y-96211D01*
X41437Y-96708D01*
X42191Y-97020D01*
X43000Y-97127D01*
X43809Y-97020D01*
X44563Y-96708D01*
X45211Y-96211D01*
X45708Y-95563D01*
X46020Y-94809D01*
X46127Y-94000D01*
X46020Y-93191D01*
X45708Y-92437D01*
X45272Y-91868D01*
X45414Y-91525D01*
X45882Y-90914D01*
X45914Y-90910D01*
X46765Y-90557D01*
X47496Y-89996D01*
X48057Y-89265D01*
X48271Y-88750D01*
D02*
G37*
G36*
X17500Y-83619D02*
X16496Y-83751D01*
X15559Y-84139D01*
X14756Y-84756D01*
X14139Y-85559D01*
X13751Y-86496D01*
X13619Y-87500D01*
X13751Y-88504D01*
X14139Y-89441D01*
X14756Y-90244D01*
X15559Y-90861D01*
X16496Y-91249D01*
X17500Y-91381D01*
X18505Y-91249D01*
X19441Y-90861D01*
X20244Y-90244D01*
X20861Y-89441D01*
X21249Y-88504D01*
X21381Y-87500D01*
X21249Y-86496D01*
X20861Y-85559D01*
X20244Y-84756D01*
X19441Y-84139D01*
X18505Y-83751D01*
X17500Y-83619D01*
D02*
G37*
G36*
X197500D02*
X196495Y-83751D01*
X195559Y-84139D01*
X194756Y-84756D01*
X194139Y-85559D01*
X193751Y-86496D01*
X193619Y-87500D01*
X193751Y-88504D01*
X194139Y-89441D01*
X194756Y-90244D01*
X195559Y-90861D01*
X196495Y-91249D01*
X197500Y-91381D01*
X198504Y-91249D01*
X199441Y-90861D01*
X200244Y-90244D01*
X200861Y-89441D01*
X201249Y-88504D01*
X201381Y-87500D01*
X201249Y-86496D01*
X200861Y-85559D01*
X200244Y-84756D01*
X199441Y-84139D01*
X198504Y-83751D01*
X197500Y-83619D01*
D02*
G37*
G36*
X207500D02*
X206495Y-83751D01*
X205559Y-84139D01*
X204756Y-84756D01*
X204139Y-85559D01*
X203751Y-86496D01*
X203619Y-87500D01*
X203751Y-88504D01*
X204139Y-89441D01*
X204756Y-90244D01*
X205559Y-90861D01*
X206495Y-91249D01*
X207500Y-91381D01*
X208505Y-91249D01*
X209441Y-90861D01*
X210244Y-90244D01*
X210861Y-89441D01*
X211249Y-88504D01*
X211381Y-87500D01*
X211249Y-86496D01*
X210861Y-85559D01*
X210244Y-84756D01*
X209441Y-84139D01*
X208505Y-83751D01*
X207500Y-83619D01*
D02*
G37*
G36*
X7500D02*
X6496Y-83751D01*
X5559Y-84139D01*
X4756Y-84756D01*
X4139Y-85559D01*
X3751Y-86496D01*
X3619Y-87500D01*
X3751Y-88504D01*
X4139Y-89441D01*
X4756Y-90244D01*
X5559Y-90861D01*
X6496Y-91249D01*
X7500Y-91381D01*
X8505Y-91249D01*
X9441Y-90861D01*
X10244Y-90244D01*
X10861Y-89441D01*
X11249Y-88504D01*
X11381Y-87500D01*
X11249Y-86496D01*
X10861Y-85559D01*
X10244Y-84756D01*
X9441Y-84139D01*
X8505Y-83751D01*
X7500Y-83619D01*
D02*
G37*
G36*
X173500Y-87417D02*
X172573Y-87539D01*
X171708Y-87897D01*
X170966Y-88466D01*
X170397Y-89208D01*
X170039Y-90073D01*
X169917Y-91000D01*
X170039Y-91927D01*
X170397Y-92792D01*
X170966Y-93534D01*
X171708Y-94103D01*
X172573Y-94461D01*
X173500Y-94583D01*
X174427Y-94461D01*
X175292Y-94103D01*
X176034Y-93534D01*
X176603Y-92792D01*
X176961Y-91927D01*
X177083Y-91000D01*
X176961Y-90073D01*
X176603Y-89208D01*
X176034Y-88466D01*
X175292Y-87897D01*
X174427Y-87539D01*
X173500Y-87417D01*
D02*
G37*
G36*
X132750Y-90729D02*
X132235Y-90943D01*
X131504Y-91504D01*
X130943Y-92235D01*
X130729Y-92750D01*
X132750D01*
Y-90729D01*
D02*
G37*
G36*
X135250D02*
Y-92750D01*
X137271D01*
X137057Y-92235D01*
X136496Y-91504D01*
X135765Y-90943D01*
X135250Y-90729D01*
D02*
G37*
G36*
X207500Y-103619D02*
X206495Y-103751D01*
X205559Y-104139D01*
X204756Y-104756D01*
X204139Y-105559D01*
X203751Y-106495D01*
X203619Y-107500D01*
X203751Y-108504D01*
X204139Y-109441D01*
X204756Y-110244D01*
X205559Y-110861D01*
X206495Y-111249D01*
X207500Y-111381D01*
X208505Y-111249D01*
X209441Y-110861D01*
X210244Y-110244D01*
X210861Y-109441D01*
X211249Y-108504D01*
X211381Y-107500D01*
X211249Y-106495D01*
X210861Y-105559D01*
X210244Y-104756D01*
X209441Y-104139D01*
X208505Y-103751D01*
X207500Y-103619D01*
D02*
G37*
G36*
X7500Y-123619D02*
X6496Y-123751D01*
X5559Y-124139D01*
X4756Y-124756D01*
X4139Y-125559D01*
X3751Y-126496D01*
X3619Y-127500D01*
X3751Y-128505D01*
X4139Y-129441D01*
X4756Y-130244D01*
X5559Y-130861D01*
X6496Y-131249D01*
X7500Y-131381D01*
X8505Y-131249D01*
X9441Y-130861D01*
X10244Y-130244D01*
X10861Y-129441D01*
X11249Y-128505D01*
X11381Y-127500D01*
X11249Y-126496D01*
X10861Y-125559D01*
X10244Y-124756D01*
X9441Y-124139D01*
X8505Y-123751D01*
X7500Y-123619D01*
D02*
G37*
G36*
X17500D02*
X16496Y-123751D01*
X15559Y-124139D01*
X14756Y-124756D01*
X14139Y-125559D01*
X13751Y-126496D01*
X13619Y-127500D01*
X13751Y-128505D01*
X14139Y-129441D01*
X14756Y-130244D01*
X15559Y-130861D01*
X16496Y-131249D01*
X17500Y-131381D01*
X18505Y-131249D01*
X19441Y-130861D01*
X20244Y-130244D01*
X20861Y-129441D01*
X21249Y-128505D01*
X21381Y-127500D01*
X21249Y-126496D01*
X20861Y-125559D01*
X20244Y-124756D01*
X19441Y-124139D01*
X18505Y-123751D01*
X17500Y-123619D01*
D02*
G37*
G36*
X197500D02*
X196495Y-123751D01*
X195559Y-124139D01*
X194756Y-124756D01*
X194139Y-125559D01*
X193751Y-126496D01*
X193619Y-127500D01*
X193751Y-128505D01*
X194139Y-129441D01*
X194756Y-130244D01*
X195559Y-130861D01*
X196495Y-131249D01*
X197500Y-131381D01*
X198504Y-131249D01*
X199441Y-130861D01*
X200244Y-130244D01*
X200861Y-129441D01*
X201249Y-128505D01*
X201381Y-127500D01*
X201249Y-126496D01*
X200861Y-125559D01*
X200244Y-124756D01*
X199441Y-124139D01*
X198504Y-123751D01*
X197500Y-123619D01*
D02*
G37*
G36*
X51000Y-126373D02*
X50191Y-126480D01*
X49437Y-126792D01*
X48789Y-127289D01*
X48292Y-127937D01*
X47980Y-128691D01*
X47873Y-129500D01*
X47980Y-130309D01*
X48292Y-131063D01*
X48789Y-131711D01*
X49437Y-132208D01*
X50191Y-132520D01*
X51000Y-132627D01*
X51809Y-132520D01*
X52563Y-132208D01*
X53211Y-131711D01*
X53708Y-131063D01*
X54020Y-130309D01*
X54127Y-129500D01*
X54020Y-128691D01*
X53708Y-127937D01*
X53211Y-127289D01*
X52563Y-126792D01*
X51809Y-126480D01*
X51000Y-126373D01*
D02*
G37*
G36*
X94250Y-131229D02*
X93735Y-131443D01*
X93004Y-132004D01*
X92443Y-132735D01*
X92229Y-133250D01*
X94250D01*
Y-131229D01*
D02*
G37*
G36*
X96750D02*
Y-133250D01*
X98771D01*
X98557Y-132735D01*
X97996Y-132004D01*
X97265Y-131443D01*
X96750Y-131229D01*
D02*
G37*
G36*
X37500Y-126373D02*
X36691Y-126480D01*
X35937Y-126792D01*
X35289Y-127289D01*
X34792Y-127937D01*
X34480Y-128691D01*
X34373Y-129500D01*
X34480Y-130309D01*
X34792Y-131063D01*
X35289Y-131711D01*
X35937Y-132208D01*
X36691Y-132520D01*
X37500Y-132627D01*
X38309Y-132520D01*
X39063Y-132208D01*
X39711Y-131711D01*
X40208Y-131063D01*
X40520Y-130309D01*
X40627Y-129500D01*
X40520Y-128691D01*
X40208Y-127937D01*
X39711Y-127289D01*
X39063Y-126792D01*
X38309Y-126480D01*
X37500Y-126373D01*
D02*
G37*
G36*
X207500Y-123619D02*
X206495Y-123751D01*
X205559Y-124139D01*
X204756Y-124756D01*
X204139Y-125559D01*
X203751Y-126496D01*
X203619Y-127500D01*
X203751Y-128505D01*
X204139Y-129441D01*
X204756Y-130244D01*
X205559Y-130861D01*
X206495Y-131249D01*
X207500Y-131381D01*
X208505Y-131249D01*
X209441Y-130861D01*
X210244Y-130244D01*
X210861Y-129441D01*
X211249Y-128505D01*
X211381Y-127500D01*
X211249Y-126496D01*
X210861Y-125559D01*
X210244Y-124756D01*
X209441Y-124139D01*
X208505Y-123751D01*
X207500Y-123619D01*
D02*
G37*
G36*
X7500Y-103619D02*
X6496Y-103751D01*
X5559Y-104139D01*
X4756Y-104756D01*
X4139Y-105559D01*
X3751Y-106495D01*
X3619Y-107500D01*
X3751Y-108504D01*
X4139Y-109441D01*
X4756Y-110244D01*
X5559Y-110861D01*
X6496Y-111249D01*
X7500Y-111381D01*
X8505Y-111249D01*
X9441Y-110861D01*
X10244Y-110244D01*
X10861Y-109441D01*
X11249Y-108504D01*
X11381Y-107500D01*
X11249Y-106495D01*
X10861Y-105559D01*
X10244Y-104756D01*
X9441Y-104139D01*
X8505Y-103751D01*
X7500Y-103619D01*
D02*
G37*
G36*
X17500D02*
X16496Y-103751D01*
X15559Y-104139D01*
X14756Y-104756D01*
X14139Y-105559D01*
X13751Y-106495D01*
X13619Y-107500D01*
X13751Y-108504D01*
X14139Y-109441D01*
X14756Y-110244D01*
X15559Y-110861D01*
X16496Y-111249D01*
X17500Y-111381D01*
X18505Y-111249D01*
X19441Y-110861D01*
X20244Y-110244D01*
X20861Y-109441D01*
X21249Y-108504D01*
X21381Y-107500D01*
X21249Y-106495D01*
X20861Y-105559D01*
X20244Y-104756D01*
X19441Y-104139D01*
X18505Y-103751D01*
X17500Y-103619D01*
D02*
G37*
G36*
X197500D02*
X196495Y-103751D01*
X195559Y-104139D01*
X194756Y-104756D01*
X194139Y-105559D01*
X193751Y-106495D01*
X193619Y-107500D01*
X193751Y-108504D01*
X194139Y-109441D01*
X194756Y-110244D01*
X195559Y-110861D01*
X196495Y-111249D01*
X197500Y-111381D01*
X198504Y-111249D01*
X199441Y-110861D01*
X200244Y-110244D01*
X200861Y-109441D01*
X201249Y-108504D01*
X201381Y-107500D01*
X201249Y-106495D01*
X200861Y-105559D01*
X200244Y-104756D01*
X199441Y-104139D01*
X198504Y-103751D01*
X197500Y-103619D01*
D02*
G37*
G36*
X207500Y-113619D02*
X206495Y-113751D01*
X205559Y-114139D01*
X204756Y-114756D01*
X204139Y-115559D01*
X203751Y-116496D01*
X203619Y-117500D01*
X203751Y-118505D01*
X204139Y-119441D01*
X204756Y-120244D01*
X205559Y-120861D01*
X206495Y-121249D01*
X207500Y-121381D01*
X208505Y-121249D01*
X209441Y-120861D01*
X210244Y-120244D01*
X210861Y-119441D01*
X211249Y-118505D01*
X211381Y-117500D01*
X211249Y-116496D01*
X210861Y-115559D01*
X210244Y-114756D01*
X209441Y-114139D01*
X208505Y-113751D01*
X207500Y-113619D01*
D02*
G37*
G36*
X7500D02*
X6496Y-113751D01*
X5559Y-114139D01*
X4756Y-114756D01*
X4139Y-115559D01*
X3751Y-116496D01*
X3619Y-117500D01*
X3751Y-118505D01*
X4139Y-119441D01*
X4756Y-120244D01*
X5559Y-120861D01*
X6496Y-121249D01*
X7500Y-121381D01*
X8505Y-121249D01*
X9441Y-120861D01*
X10244Y-120244D01*
X10861Y-119441D01*
X11249Y-118505D01*
X11381Y-117500D01*
X11249Y-116496D01*
X10861Y-115559D01*
X10244Y-114756D01*
X9441Y-114139D01*
X8505Y-113751D01*
X7500Y-113619D01*
D02*
G37*
G36*
X17500D02*
X16496Y-113751D01*
X15559Y-114139D01*
X14756Y-114756D01*
X14139Y-115559D01*
X13751Y-116496D01*
X13619Y-117500D01*
X13751Y-118505D01*
X14139Y-119441D01*
X14756Y-120244D01*
X15559Y-120861D01*
X16496Y-121249D01*
X17500Y-121381D01*
X18505Y-121249D01*
X19441Y-120861D01*
X20244Y-120244D01*
X20861Y-119441D01*
X21249Y-118505D01*
X21381Y-117500D01*
X21249Y-116496D01*
X20861Y-115559D01*
X20244Y-114756D01*
X19441Y-114139D01*
X18505Y-113751D01*
X17500Y-113619D01*
D02*
G37*
G36*
X197500D02*
X196495Y-113751D01*
X195559Y-114139D01*
X194756Y-114756D01*
X194139Y-115559D01*
X193751Y-116496D01*
X193619Y-117500D01*
X193751Y-118505D01*
X194139Y-119441D01*
X194756Y-120244D01*
X195559Y-120861D01*
X196495Y-121249D01*
X197500Y-121381D01*
X198504Y-121249D01*
X199441Y-120861D01*
X200244Y-120244D01*
X200861Y-119441D01*
X201249Y-118505D01*
X201381Y-117500D01*
X201249Y-116496D01*
X200861Y-115559D01*
X200244Y-114756D01*
X199441Y-114139D01*
X198504Y-113751D01*
X197500Y-113619D01*
D02*
G37*
G36*
X201748Y-73252D02*
X198750D01*
Y-76250D01*
X201748D01*
Y-73252D01*
D02*
G37*
G36*
X206250Y-73420D02*
X205358Y-73789D01*
X204470Y-74470D01*
X203789Y-75358D01*
X203420Y-76250D01*
X206250D01*
Y-73420D01*
D02*
G37*
G36*
X208750D02*
Y-76250D01*
X211580D01*
X211211Y-75358D01*
X210530Y-74470D01*
X209642Y-73789D01*
X208750Y-73420D01*
D02*
G37*
G36*
X196250Y-73252D02*
X193252D01*
Y-76250D01*
X196250D01*
Y-73252D01*
D02*
G37*
G36*
X11748D02*
X8750D01*
Y-76250D01*
X11748D01*
Y-73252D01*
D02*
G37*
G36*
X16250Y-73420D02*
X15358Y-73789D01*
X14470Y-74470D01*
X13789Y-75358D01*
X13420Y-76250D01*
X16250D01*
Y-73420D01*
D02*
G37*
G36*
X18750D02*
Y-76250D01*
X21580D01*
X21211Y-75358D01*
X20530Y-74470D01*
X19642Y-73789D01*
X18750Y-73420D01*
D02*
G37*
G36*
X53500Y-66569D02*
X52560Y-66693D01*
X51684Y-67055D01*
X50933Y-67632D01*
X50355Y-68384D01*
X49993Y-69260D01*
X49869Y-70200D01*
X49993Y-71140D01*
X50355Y-72016D01*
X50933Y-72768D01*
X51684Y-73345D01*
X52560Y-73707D01*
X53500Y-73831D01*
X54440Y-73707D01*
X55316Y-73345D01*
X56068Y-72768D01*
X56645Y-72016D01*
X57007Y-71140D01*
X57131Y-70200D01*
X57007Y-69260D01*
X56645Y-68384D01*
X56068Y-67632D01*
X55316Y-67055D01*
X54440Y-66693D01*
X53500Y-66569D01*
D02*
G37*
G36*
X57312Y-9050D02*
X54750D01*
Y-11612D01*
X55517Y-11294D01*
X56353Y-10653D01*
X56994Y-9817D01*
X57312Y-9050D01*
D02*
G37*
G36*
X52250Y-3988D02*
X51483Y-4306D01*
X50647Y-4947D01*
X50006Y-5783D01*
X49688Y-6550D01*
X52250D01*
Y-3988D01*
D02*
G37*
G36*
X54750D02*
Y-6550D01*
X57312D01*
X56994Y-5783D01*
X56353Y-4947D01*
X55517Y-4306D01*
X54750Y-3988D01*
D02*
G37*
G36*
X52250Y-9050D02*
X49688D01*
X50006Y-9817D01*
X50647Y-10653D01*
X51483Y-11294D01*
X52250Y-11612D01*
Y-9050D01*
D02*
G37*
G36*
X17000Y-60417D02*
X16073Y-60539D01*
X15208Y-60897D01*
X14466Y-61466D01*
X13897Y-62208D01*
X13539Y-63073D01*
X13417Y-64000D01*
X13539Y-64927D01*
X13897Y-65792D01*
X14466Y-66534D01*
X15208Y-67103D01*
X16073Y-67461D01*
X17000Y-67583D01*
X17927Y-67461D01*
X18792Y-67103D01*
X19534Y-66534D01*
X20103Y-65792D01*
X20461Y-64927D01*
X20583Y-64000D01*
X20461Y-63073D01*
X20103Y-62208D01*
X19534Y-61466D01*
X18792Y-60897D01*
X17927Y-60539D01*
X17000Y-60417D01*
D02*
G37*
G36*
X20553Y-50447D02*
X13447D01*
Y-57553D01*
X20553D01*
Y-50447D01*
D02*
G37*
G36*
X25500Y-19507D02*
X24208Y-19677D01*
X23004Y-20176D01*
X21970Y-20970D01*
X21176Y-22004D01*
X20677Y-23208D01*
X20507Y-24500D01*
X20677Y-25792D01*
X21176Y-26996D01*
X21970Y-28030D01*
X23004Y-28824D01*
X24208Y-29323D01*
X25500Y-29493D01*
X26792Y-29323D01*
X27996Y-28824D01*
X29030Y-28030D01*
X29824Y-26996D01*
X30323Y-25792D01*
X30493Y-24500D01*
X30323Y-23208D01*
X29824Y-22004D01*
X29030Y-20970D01*
X27996Y-20176D01*
X26792Y-19677D01*
X25500Y-19507D01*
D02*
G37*
G36*
X6250Y-73252D02*
X3252D01*
Y-76250D01*
X6250D01*
Y-73252D01*
D02*
G37*
G36*
X196250Y-78750D02*
X193252D01*
Y-81748D01*
X196250D01*
Y-78750D01*
D02*
G37*
G36*
X201748D02*
X198750D01*
Y-81748D01*
X201748D01*
Y-78750D01*
D02*
G37*
G36*
X48000Y-75373D02*
X47191Y-75480D01*
X46437Y-75792D01*
X45789Y-76289D01*
X45292Y-76937D01*
X44980Y-77691D01*
X44873Y-78500D01*
X44980Y-79309D01*
X45292Y-80063D01*
X45789Y-80711D01*
X46437Y-81208D01*
X47191Y-81520D01*
X48000Y-81627D01*
X48809Y-81520D01*
X49563Y-81208D01*
X50211Y-80711D01*
X50708Y-80063D01*
X51020Y-79309D01*
X51127Y-78500D01*
X51020Y-77691D01*
X50708Y-76937D01*
X50211Y-76289D01*
X49563Y-75792D01*
X48809Y-75480D01*
X48000Y-75373D01*
D02*
G37*
G36*
X11748Y-78750D02*
X8750D01*
Y-81748D01*
X11748D01*
Y-78750D01*
D02*
G37*
G36*
X43750Y-84229D02*
X43235Y-84443D01*
X42504Y-85004D01*
X41943Y-85735D01*
X41729Y-86250D01*
X43750D01*
Y-84229D01*
D02*
G37*
G36*
X46250D02*
Y-86250D01*
X48271D01*
X48057Y-85735D01*
X47496Y-85004D01*
X46765Y-84443D01*
X46250Y-84229D01*
D02*
G37*
G36*
X6250Y-78750D02*
X3252D01*
Y-81748D01*
X6250D01*
Y-78750D01*
D02*
G37*
G36*
X16250D02*
X13420D01*
X13789Y-79642D01*
X14470Y-80530D01*
X15358Y-81211D01*
X16250Y-81580D01*
Y-78750D01*
D02*
G37*
G36*
X162500Y-70417D02*
X161573Y-70539D01*
X160708Y-70897D01*
X159966Y-71466D01*
X159397Y-72208D01*
X159039Y-73073D01*
X158917Y-74000D01*
X159039Y-74927D01*
X159397Y-75792D01*
X159966Y-76534D01*
X160708Y-77103D01*
X161573Y-77461D01*
X162500Y-77583D01*
X163427Y-77461D01*
X164292Y-77103D01*
X165034Y-76534D01*
X165603Y-75792D01*
X165961Y-74927D01*
X166083Y-74000D01*
X165961Y-73073D01*
X165603Y-72208D01*
X165034Y-71466D01*
X164292Y-70897D01*
X163427Y-70539D01*
X162500Y-70417D01*
D02*
G37*
G36*
X69053Y-70447D02*
X61947D01*
Y-77553D01*
X69053D01*
Y-70447D01*
D02*
G37*
G36*
X176053D02*
X168947D01*
Y-77553D01*
X176053D01*
Y-70447D01*
D02*
G37*
G36*
X75500Y-70417D02*
X74573Y-70539D01*
X73708Y-70897D01*
X72966Y-71466D01*
X72397Y-72208D01*
X72039Y-73073D01*
X71917Y-74000D01*
X72039Y-74927D01*
X72397Y-75792D01*
X72966Y-76534D01*
X73708Y-77103D01*
X74573Y-77461D01*
X75500Y-77583D01*
X76427Y-77461D01*
X77292Y-77103D01*
X78034Y-76534D01*
X78603Y-75792D01*
X78961Y-74927D01*
X79083Y-74000D01*
X78961Y-73073D01*
X78603Y-72208D01*
X78034Y-71466D01*
X77292Y-70897D01*
X76427Y-70539D01*
X75500Y-70417D01*
D02*
G37*
G36*
X21580Y-78750D02*
X18750D01*
Y-81580D01*
X19642Y-81211D01*
X20530Y-80530D01*
X21211Y-79642D01*
X21580Y-78750D01*
D02*
G37*
G36*
X206250D02*
X203420D01*
X203789Y-79642D01*
X204470Y-80530D01*
X205358Y-81211D01*
X206250Y-81580D01*
Y-78750D01*
D02*
G37*
G36*
X211580D02*
X208750D01*
Y-81580D01*
X209642Y-81211D01*
X210530Y-80530D01*
X211211Y-79642D01*
X211580Y-78750D01*
D02*
G37*
G36*
X7500Y-183619D02*
X6496Y-183751D01*
X5559Y-184139D01*
X4756Y-184756D01*
X4139Y-185559D01*
X3751Y-186495D01*
X3619Y-187500D01*
X3751Y-188505D01*
X4139Y-189441D01*
X4756Y-190244D01*
X5559Y-190861D01*
X6496Y-191249D01*
X7500Y-191381D01*
X8505Y-191249D01*
X9441Y-190861D01*
X10244Y-190244D01*
X10861Y-189441D01*
X11249Y-188505D01*
X11381Y-187500D01*
X11249Y-186495D01*
X10861Y-185559D01*
X10244Y-184756D01*
X9441Y-184139D01*
X8505Y-183751D01*
X7500Y-183619D01*
D02*
G37*
G36*
X17500D02*
X16496Y-183751D01*
X15559Y-184139D01*
X14756Y-184756D01*
X14139Y-185559D01*
X13751Y-186495D01*
X13619Y-187500D01*
X13751Y-188505D01*
X14139Y-189441D01*
X14756Y-190244D01*
X15559Y-190861D01*
X16496Y-191249D01*
X17500Y-191381D01*
X18505Y-191249D01*
X19441Y-190861D01*
X20244Y-190244D01*
X20861Y-189441D01*
X21249Y-188505D01*
X21381Y-187500D01*
X21249Y-186495D01*
X20861Y-185559D01*
X20244Y-184756D01*
X19441Y-184139D01*
X18505Y-183751D01*
X17500Y-183619D01*
D02*
G37*
G36*
X197500D02*
X196495Y-183751D01*
X195559Y-184139D01*
X194756Y-184756D01*
X194139Y-185559D01*
X193751Y-186495D01*
X193619Y-187500D01*
X193751Y-188505D01*
X194139Y-189441D01*
X194756Y-190244D01*
X195559Y-190861D01*
X196495Y-191249D01*
X197500Y-191381D01*
X198504Y-191249D01*
X199441Y-190861D01*
X200244Y-190244D01*
X200861Y-189441D01*
X201249Y-188505D01*
X201381Y-187500D01*
X201249Y-186495D01*
X200861Y-185559D01*
X200244Y-184756D01*
X199441Y-184139D01*
X198504Y-183751D01*
X197500Y-183619D01*
D02*
G37*
G36*
X207500Y-193619D02*
X206495Y-193751D01*
X205559Y-194139D01*
X204756Y-194756D01*
X204139Y-195559D01*
X203751Y-196495D01*
X203619Y-197500D01*
X203751Y-198504D01*
X204139Y-199441D01*
X204756Y-200244D01*
X205559Y-200861D01*
X206495Y-201249D01*
X207500Y-201381D01*
X208505Y-201249D01*
X209441Y-200861D01*
X210244Y-200244D01*
X210861Y-199441D01*
X211249Y-198504D01*
X211381Y-197500D01*
X211249Y-196495D01*
X210861Y-195559D01*
X210244Y-194756D01*
X209441Y-194139D01*
X208505Y-193751D01*
X207500Y-193619D01*
D02*
G37*
G36*
X7500D02*
X6496Y-193751D01*
X5559Y-194139D01*
X4756Y-194756D01*
X4139Y-195559D01*
X3751Y-196495D01*
X3619Y-197500D01*
X3751Y-198504D01*
X4139Y-199441D01*
X4756Y-200244D01*
X5559Y-200861D01*
X6496Y-201249D01*
X7500Y-201381D01*
X8505Y-201249D01*
X9441Y-200861D01*
X10244Y-200244D01*
X10861Y-199441D01*
X11249Y-198504D01*
X11381Y-197500D01*
X11249Y-196495D01*
X10861Y-195559D01*
X10244Y-194756D01*
X9441Y-194139D01*
X8505Y-193751D01*
X7500Y-193619D01*
D02*
G37*
G36*
X17500D02*
X16496Y-193751D01*
X15559Y-194139D01*
X14756Y-194756D01*
X14139Y-195559D01*
X13751Y-196495D01*
X13619Y-197500D01*
X13751Y-198504D01*
X14139Y-199441D01*
X14756Y-200244D01*
X15559Y-200861D01*
X16496Y-201249D01*
X17500Y-201381D01*
X18505Y-201249D01*
X19441Y-200861D01*
X20244Y-200244D01*
X20861Y-199441D01*
X21249Y-198504D01*
X21381Y-197500D01*
X21249Y-196495D01*
X20861Y-195559D01*
X20244Y-194756D01*
X19441Y-194139D01*
X18505Y-193751D01*
X17500Y-193619D01*
D02*
G37*
G36*
X197500D02*
X196495Y-193751D01*
X195559Y-194139D01*
X194756Y-194756D01*
X194139Y-195559D01*
X193751Y-196495D01*
X193619Y-197500D01*
X193751Y-198504D01*
X194139Y-199441D01*
X194756Y-200244D01*
X195559Y-200861D01*
X196495Y-201249D01*
X197500Y-201381D01*
X198504Y-201249D01*
X199441Y-200861D01*
X200244Y-200244D01*
X200861Y-199441D01*
X201249Y-198504D01*
X201381Y-197500D01*
X201249Y-196495D01*
X200861Y-195559D01*
X200244Y-194756D01*
X199441Y-194139D01*
X198504Y-193751D01*
X197500Y-193619D01*
D02*
G37*
G36*
X207500Y-183619D02*
X206495Y-183751D01*
X205559Y-184139D01*
X204756Y-184756D01*
X204139Y-185559D01*
X203751Y-186495D01*
X203619Y-187500D01*
X203751Y-188505D01*
X204139Y-189441D01*
X204756Y-190244D01*
X205559Y-190861D01*
X206495Y-191249D01*
X207500Y-191381D01*
X208505Y-191249D01*
X209441Y-190861D01*
X210244Y-190244D01*
X210861Y-189441D01*
X211249Y-188505D01*
X211381Y-187500D01*
X211249Y-186495D01*
X210861Y-185559D01*
X210244Y-184756D01*
X209441Y-184139D01*
X208505Y-183751D01*
X207500Y-183619D01*
D02*
G37*
G36*
X197500Y-173619D02*
X196495Y-173751D01*
X195559Y-174139D01*
X194756Y-174756D01*
X194139Y-175559D01*
X193751Y-176496D01*
X193619Y-177500D01*
X193751Y-178505D01*
X194139Y-179441D01*
X194756Y-180244D01*
X195559Y-180861D01*
X196495Y-181249D01*
X197500Y-181381D01*
X198504Y-181249D01*
X199441Y-180861D01*
X200244Y-180244D01*
X200861Y-179441D01*
X201249Y-178505D01*
X201381Y-177500D01*
X201249Y-176496D01*
X200861Y-175559D01*
X200244Y-174756D01*
X199441Y-174139D01*
X198504Y-173751D01*
X197500Y-173619D01*
D02*
G37*
G36*
X207500D02*
X206495Y-173751D01*
X205559Y-174139D01*
X204756Y-174756D01*
X204139Y-175559D01*
X203751Y-176496D01*
X203619Y-177500D01*
X203751Y-178505D01*
X204139Y-179441D01*
X204756Y-180244D01*
X205559Y-180861D01*
X206495Y-181249D01*
X207500Y-181381D01*
X208505Y-181249D01*
X209441Y-180861D01*
X210244Y-180244D01*
X210861Y-179441D01*
X211249Y-178505D01*
X211381Y-177500D01*
X211249Y-176496D01*
X210861Y-175559D01*
X210244Y-174756D01*
X209441Y-174139D01*
X208505Y-173751D01*
X207500Y-173619D01*
D02*
G37*
G36*
X68250Y-176729D02*
X67735Y-176943D01*
X67004Y-177504D01*
X66443Y-178235D01*
X66229Y-178750D01*
X68250D01*
Y-176729D01*
D02*
G37*
G36*
X17500Y-173619D02*
X16496Y-173751D01*
X15559Y-174139D01*
X14756Y-174756D01*
X14139Y-175559D01*
X13751Y-176496D01*
X13619Y-177500D01*
X13751Y-178505D01*
X14139Y-179441D01*
X14756Y-180244D01*
X15559Y-180861D01*
X16496Y-181249D01*
X17500Y-181381D01*
X18505Y-181249D01*
X19441Y-180861D01*
X20244Y-180244D01*
X20861Y-179441D01*
X21249Y-178505D01*
X21381Y-177500D01*
X21249Y-176496D01*
X20861Y-175559D01*
X20244Y-174756D01*
X19441Y-174139D01*
X18505Y-173751D01*
X17500Y-173619D01*
D02*
G37*
G36*
X68250Y-181250D02*
X66229D01*
X66443Y-181765D01*
X67004Y-182496D01*
X67735Y-183057D01*
X68250Y-183271D01*
Y-181250D01*
D02*
G37*
G36*
X72771D02*
X70750D01*
Y-183271D01*
X71265Y-183057D01*
X71996Y-182496D01*
X72557Y-181765D01*
X72771Y-181250D01*
D02*
G37*
G36*
X7500Y-173619D02*
X6496Y-173751D01*
X5559Y-174139D01*
X4756Y-174756D01*
X4139Y-175559D01*
X3751Y-176496D01*
X3619Y-177500D01*
X3751Y-178505D01*
X4139Y-179441D01*
X4756Y-180244D01*
X5559Y-180861D01*
X6496Y-181249D01*
X7500Y-181381D01*
X8505Y-181249D01*
X9441Y-180861D01*
X10244Y-180244D01*
X10861Y-179441D01*
X11249Y-178505D01*
X11381Y-177500D01*
X11249Y-176496D01*
X10861Y-175559D01*
X10244Y-174756D01*
X9441Y-174139D01*
X8505Y-173751D01*
X7500Y-173619D01*
D02*
G37*
G36*
X187250Y-200729D02*
Y-202750D01*
X189271D01*
X189057Y-202235D01*
X188496Y-201504D01*
X187765Y-200943D01*
X187250Y-200729D01*
D02*
G37*
G36*
X85271Y-206750D02*
X83250D01*
Y-208771D01*
X83765Y-208557D01*
X84496Y-207996D01*
X85057Y-207265D01*
X85271Y-206750D01*
D02*
G37*
G36*
X94069Y-205729D02*
X93554Y-205943D01*
X92823Y-206504D01*
X92262Y-207235D01*
X92048Y-207750D01*
X94069D01*
Y-205729D01*
D02*
G37*
G36*
X96569D02*
Y-207750D01*
X98589D01*
X98376Y-207235D01*
X97815Y-206504D01*
X97084Y-205943D01*
X96569Y-205729D01*
D02*
G37*
G36*
X80750Y-206750D02*
X78729D01*
X78943Y-207265D01*
X79504Y-207996D01*
X80235Y-208557D01*
X80750Y-208771D01*
Y-206750D01*
D02*
G37*
G36*
X207500Y-203619D02*
X206495Y-203751D01*
X205559Y-204139D01*
X204756Y-204756D01*
X204139Y-205559D01*
X203751Y-206495D01*
X203619Y-207500D01*
X203751Y-208505D01*
X204139Y-209441D01*
X204756Y-210244D01*
X205559Y-210861D01*
X206495Y-211249D01*
X207500Y-211381D01*
X208505Y-211249D01*
X209441Y-210861D01*
X210244Y-210244D01*
X210861Y-209441D01*
X211249Y-208505D01*
X211381Y-207500D01*
X211249Y-206495D01*
X210861Y-205559D01*
X210244Y-204756D01*
X209441Y-204139D01*
X208505Y-203751D01*
X207500Y-203619D01*
D02*
G37*
G36*
X116250Y-208750D02*
X114229D01*
X114443Y-209265D01*
X115004Y-209996D01*
X115735Y-210557D01*
X116250Y-210771D01*
Y-208750D01*
D02*
G37*
G36*
X128271D02*
X126250D01*
Y-210771D01*
X126765Y-210557D01*
X127496Y-209996D01*
X128057Y-209265D01*
X128271Y-208750D01*
D02*
G37*
G36*
X184750Y-205250D02*
X182729D01*
X182943Y-205765D01*
X183504Y-206496D01*
X184235Y-207057D01*
X184750Y-207271D01*
Y-205250D01*
D02*
G37*
G36*
X80750Y-202229D02*
X80235Y-202443D01*
X79504Y-203004D01*
X78943Y-203735D01*
X78729Y-204250D01*
X80750D01*
Y-202229D01*
D02*
G37*
G36*
X83250D02*
Y-204250D01*
X85271D01*
X85057Y-203735D01*
X84496Y-203004D01*
X83765Y-202443D01*
X83250Y-202229D01*
D02*
G37*
G36*
X184750Y-200729D02*
X184235Y-200943D01*
X183504Y-201504D01*
X182943Y-202235D01*
X182729Y-202750D01*
X184750D01*
Y-200729D01*
D02*
G37*
G36*
X123750Y-204229D02*
X123235Y-204443D01*
X122504Y-205004D01*
X121943Y-205735D01*
X121750Y-206200D01*
X120750D01*
X120557Y-205735D01*
X119996Y-205004D01*
X119265Y-204443D01*
X118750Y-204229D01*
Y-207500D01*
Y-210771D01*
X119265Y-210557D01*
X119996Y-209996D01*
X120557Y-209265D01*
X120750Y-208800D01*
X121750D01*
X121943Y-209265D01*
X122504Y-209996D01*
X123235Y-210557D01*
X123750Y-210771D01*
Y-207500D01*
Y-204229D01*
D02*
G37*
G36*
X189271Y-205250D02*
X187250D01*
Y-207271D01*
X187765Y-207057D01*
X188496Y-206496D01*
X189057Y-205765D01*
X189271Y-205250D01*
D02*
G37*
G36*
X116250Y-204229D02*
X115735Y-204443D01*
X115004Y-205004D01*
X114443Y-205735D01*
X114229Y-206250D01*
X116250D01*
Y-204229D01*
D02*
G37*
G36*
X126250D02*
Y-206250D01*
X128271D01*
X128057Y-205735D01*
X127496Y-205004D01*
X126765Y-204443D01*
X126250Y-204229D01*
D02*
G37*
G36*
X207500Y-143619D02*
X206495Y-143751D01*
X205559Y-144139D01*
X204756Y-144756D01*
X204139Y-145559D01*
X203751Y-146495D01*
X203619Y-147500D01*
X203751Y-148504D01*
X204139Y-149441D01*
X204756Y-150244D01*
X205559Y-150861D01*
X206495Y-151249D01*
X207500Y-151381D01*
X208505Y-151249D01*
X209441Y-150861D01*
X210244Y-150244D01*
X210861Y-149441D01*
X211249Y-148504D01*
X211381Y-147500D01*
X211249Y-146495D01*
X210861Y-145559D01*
X210244Y-144756D01*
X209441Y-144139D01*
X208505Y-143751D01*
X207500Y-143619D01*
D02*
G37*
G36*
X137750Y-139750D02*
X135729D01*
X135943Y-140265D01*
X136504Y-140996D01*
X137235Y-141557D01*
X137750Y-141771D01*
Y-139750D01*
D02*
G37*
G36*
X142271D02*
X140250D01*
Y-141771D01*
X140765Y-141557D01*
X141496Y-140996D01*
X142057Y-140265D01*
X142271Y-139750D01*
D02*
G37*
G36*
X197500Y-143619D02*
X196495Y-143751D01*
X195559Y-144139D01*
X194756Y-144756D01*
X194139Y-145559D01*
X193751Y-146495D01*
X193619Y-147500D01*
X193751Y-148504D01*
X194139Y-149441D01*
X194756Y-150244D01*
X195559Y-150861D01*
X196495Y-151249D01*
X197500Y-151381D01*
X198504Y-151249D01*
X199441Y-150861D01*
X200244Y-150244D01*
X200861Y-149441D01*
X201249Y-148504D01*
X201381Y-147500D01*
X201249Y-146495D01*
X200861Y-145559D01*
X200244Y-144756D01*
X199441Y-144139D01*
X198504Y-143751D01*
X197500Y-143619D01*
D02*
G37*
G36*
X75250Y-151229D02*
Y-153250D01*
X77271D01*
X77057Y-152735D01*
X76496Y-152004D01*
X75765Y-151443D01*
X75250Y-151229D01*
D02*
G37*
G36*
X7500Y-143619D02*
X6496Y-143751D01*
X5559Y-144139D01*
X4756Y-144756D01*
X4139Y-145559D01*
X3751Y-146495D01*
X3619Y-147500D01*
X3751Y-148504D01*
X4139Y-149441D01*
X4756Y-150244D01*
X5559Y-150861D01*
X6496Y-151249D01*
X7500Y-151381D01*
X8505Y-151249D01*
X9441Y-150861D01*
X10244Y-150244D01*
X10861Y-149441D01*
X11249Y-148504D01*
X11381Y-147500D01*
X11249Y-146495D01*
X10861Y-145559D01*
X10244Y-144756D01*
X9441Y-144139D01*
X8505Y-143751D01*
X7500Y-143619D01*
D02*
G37*
G36*
X17500D02*
X16496Y-143751D01*
X15559Y-144139D01*
X14756Y-144756D01*
X14139Y-145559D01*
X13751Y-146495D01*
X13619Y-147500D01*
X13751Y-148504D01*
X14139Y-149441D01*
X14756Y-150244D01*
X15559Y-150861D01*
X16496Y-151249D01*
X17500Y-151381D01*
X18505Y-151249D01*
X19441Y-150861D01*
X20244Y-150244D01*
X20861Y-149441D01*
X21249Y-148504D01*
X21381Y-147500D01*
X21249Y-146495D01*
X20861Y-145559D01*
X20244Y-144756D01*
X19441Y-144139D01*
X18505Y-143751D01*
X17500Y-143619D01*
D02*
G37*
G36*
X7500Y-133619D02*
X6496Y-133751D01*
X5559Y-134139D01*
X4756Y-134756D01*
X4139Y-135559D01*
X3751Y-136495D01*
X3619Y-137500D01*
X3751Y-138505D01*
X4139Y-139441D01*
X4756Y-140244D01*
X5559Y-140861D01*
X6496Y-141249D01*
X7500Y-141381D01*
X8505Y-141249D01*
X9441Y-140861D01*
X10244Y-140244D01*
X10861Y-139441D01*
X11249Y-138505D01*
X11381Y-137500D01*
X11249Y-136495D01*
X10861Y-135559D01*
X10244Y-134756D01*
X9441Y-134139D01*
X8505Y-133751D01*
X7500Y-133619D01*
D02*
G37*
G36*
X98771Y-135750D02*
X96750D01*
Y-137771D01*
X97265Y-137557D01*
X97996Y-136996D01*
X98557Y-136265D01*
X98771Y-135750D01*
D02*
G37*
G36*
X137750Y-135229D02*
X137235Y-135443D01*
X136504Y-136004D01*
X135943Y-136735D01*
X135729Y-137250D01*
X137750D01*
Y-135229D01*
D02*
G37*
G36*
X140250D02*
Y-137250D01*
X142271D01*
X142057Y-136735D01*
X141496Y-136004D01*
X140765Y-135443D01*
X140250Y-135229D01*
D02*
G37*
G36*
X94250Y-135750D02*
X92229D01*
X92443Y-136265D01*
X93004Y-136996D01*
X93735Y-137557D01*
X94250Y-137771D01*
Y-135750D01*
D02*
G37*
G36*
X17500Y-133619D02*
X16496Y-133751D01*
X15559Y-134139D01*
X14756Y-134756D01*
X14139Y-135559D01*
X13751Y-136495D01*
X13619Y-137500D01*
X13751Y-138505D01*
X14139Y-139441D01*
X14756Y-140244D01*
X15559Y-140861D01*
X16496Y-141249D01*
X17500Y-141381D01*
X18505Y-141249D01*
X19441Y-140861D01*
X20244Y-140244D01*
X20861Y-139441D01*
X21249Y-138505D01*
X21381Y-137500D01*
X21249Y-136495D01*
X20861Y-135559D01*
X20244Y-134756D01*
X19441Y-134139D01*
X18505Y-133751D01*
X17500Y-133619D01*
D02*
G37*
G36*
X197500D02*
X196495Y-133751D01*
X195559Y-134139D01*
X194756Y-134756D01*
X194139Y-135559D01*
X193751Y-136495D01*
X193619Y-137500D01*
X193751Y-138505D01*
X194139Y-139441D01*
X194756Y-140244D01*
X195559Y-140861D01*
X196495Y-141249D01*
X197500Y-141381D01*
X198504Y-141249D01*
X199441Y-140861D01*
X200244Y-140244D01*
X200861Y-139441D01*
X201249Y-138505D01*
X201381Y-137500D01*
X201249Y-136495D01*
X200861Y-135559D01*
X200244Y-134756D01*
X199441Y-134139D01*
X198504Y-133751D01*
X197500Y-133619D01*
D02*
G37*
G36*
X207500D02*
X206495Y-133751D01*
X205559Y-134139D01*
X204756Y-134756D01*
X204139Y-135559D01*
X203751Y-136495D01*
X203619Y-137500D01*
X203751Y-138505D01*
X204139Y-139441D01*
X204756Y-140244D01*
X205559Y-140861D01*
X206495Y-141249D01*
X207500Y-141381D01*
X208505Y-141249D01*
X209441Y-140861D01*
X210244Y-140244D01*
X210861Y-139441D01*
X211249Y-138505D01*
X211381Y-137500D01*
X211249Y-136495D01*
X210861Y-135559D01*
X210244Y-134756D01*
X209441Y-134139D01*
X208505Y-133751D01*
X207500Y-133619D01*
D02*
G37*
G36*
X72750Y-151229D02*
X72235Y-151443D01*
X71504Y-152004D01*
X70943Y-152735D01*
X70729Y-153250D01*
X72750D01*
Y-151229D01*
D02*
G37*
G36*
X166250Y-170229D02*
Y-172250D01*
X168271D01*
X168057Y-171735D01*
X167496Y-171004D01*
X166765Y-170443D01*
X166250Y-170229D01*
D02*
G37*
G36*
X7500Y-163619D02*
X6496Y-163751D01*
X5559Y-164139D01*
X4756Y-164756D01*
X4139Y-165559D01*
X3751Y-166496D01*
X3619Y-167500D01*
X3751Y-168505D01*
X4139Y-169441D01*
X4756Y-170244D01*
X5559Y-170861D01*
X6496Y-171249D01*
X7500Y-171381D01*
X8505Y-171249D01*
X9441Y-170861D01*
X10244Y-170244D01*
X10861Y-169441D01*
X11249Y-168505D01*
X11381Y-167500D01*
X11249Y-166496D01*
X10861Y-165559D01*
X10244Y-164756D01*
X9441Y-164139D01*
X8505Y-163751D01*
X7500Y-163619D01*
D02*
G37*
G36*
X17500D02*
X16496Y-163751D01*
X15559Y-164139D01*
X14756Y-164756D01*
X14139Y-165559D01*
X13751Y-166496D01*
X13619Y-167500D01*
X13751Y-168505D01*
X14139Y-169441D01*
X14756Y-170244D01*
X15559Y-170861D01*
X16496Y-171249D01*
X17500Y-171381D01*
X18505Y-171249D01*
X19441Y-170861D01*
X20244Y-170244D01*
X20861Y-169441D01*
X21249Y-168505D01*
X21381Y-167500D01*
X21249Y-166496D01*
X20861Y-165559D01*
X20244Y-164756D01*
X19441Y-164139D01*
X18505Y-163751D01*
X17500Y-163619D01*
D02*
G37*
G36*
X163750Y-170229D02*
X163235Y-170443D01*
X162504Y-171004D01*
X161943Y-171735D01*
X161729Y-172250D01*
X163750D01*
Y-170229D01*
D02*
G37*
G36*
X70750Y-176729D02*
Y-178750D01*
X72771D01*
X72557Y-178235D01*
X71996Y-177504D01*
X71265Y-176943D01*
X70750Y-176729D01*
D02*
G37*
G36*
X163750Y-174750D02*
X161729D01*
X161943Y-175265D01*
X162504Y-175996D01*
X163235Y-176557D01*
X163750Y-176771D01*
Y-174750D01*
D02*
G37*
G36*
X168271D02*
X166250D01*
Y-176771D01*
X166765Y-176557D01*
X167496Y-175996D01*
X168057Y-175265D01*
X168271Y-174750D01*
D02*
G37*
G36*
X197500Y-163619D02*
X196495Y-163751D01*
X195559Y-164139D01*
X194756Y-164756D01*
X194139Y-165559D01*
X193751Y-166496D01*
X193619Y-167500D01*
X193751Y-168505D01*
X194139Y-169441D01*
X194756Y-170244D01*
X195559Y-170861D01*
X196495Y-171249D01*
X197500Y-171381D01*
X198504Y-171249D01*
X199441Y-170861D01*
X200244Y-170244D01*
X200861Y-169441D01*
X201249Y-168505D01*
X201381Y-167500D01*
X201249Y-166496D01*
X200861Y-165559D01*
X200244Y-164756D01*
X199441Y-164139D01*
X198504Y-163751D01*
X197500Y-163619D01*
D02*
G37*
G36*
X207500Y-153619D02*
X206495Y-153751D01*
X205559Y-154139D01*
X204756Y-154756D01*
X204139Y-155559D01*
X203751Y-156495D01*
X203619Y-157500D01*
X203751Y-158504D01*
X204139Y-159441D01*
X204756Y-160244D01*
X205559Y-160861D01*
X206495Y-161249D01*
X207500Y-161381D01*
X208505Y-161249D01*
X209441Y-160861D01*
X210244Y-160244D01*
X210861Y-159441D01*
X211249Y-158504D01*
X211381Y-157500D01*
X211249Y-156495D01*
X210861Y-155559D01*
X210244Y-154756D01*
X209441Y-154139D01*
X208505Y-153751D01*
X207500Y-153619D01*
D02*
G37*
G36*
X72750Y-155750D02*
X70729D01*
X70943Y-156265D01*
X71504Y-156996D01*
X72235Y-157557D01*
X72750Y-157771D01*
Y-155750D01*
D02*
G37*
G36*
X77271D02*
X75250D01*
Y-157771D01*
X75765Y-157557D01*
X76496Y-156996D01*
X77057Y-156265D01*
X77271Y-155750D01*
D02*
G37*
G36*
X197500Y-153619D02*
X196495Y-153751D01*
X195559Y-154139D01*
X194756Y-154756D01*
X194139Y-155559D01*
X193751Y-156495D01*
X193619Y-157500D01*
X193751Y-158504D01*
X194139Y-159441D01*
X194756Y-160244D01*
X195559Y-160861D01*
X196495Y-161249D01*
X197500Y-161381D01*
X198504Y-161249D01*
X199441Y-160861D01*
X200244Y-160244D01*
X200861Y-159441D01*
X201249Y-158504D01*
X201381Y-157500D01*
X201249Y-156495D01*
X200861Y-155559D01*
X200244Y-154756D01*
X199441Y-154139D01*
X198504Y-153751D01*
X197500Y-153619D01*
D02*
G37*
G36*
X207500Y-163619D02*
X206495Y-163751D01*
X205559Y-164139D01*
X204756Y-164756D01*
X204139Y-165559D01*
X203751Y-166496D01*
X203619Y-167500D01*
X203751Y-168505D01*
X204139Y-169441D01*
X204756Y-170244D01*
X205559Y-170861D01*
X206495Y-171249D01*
X207500Y-171381D01*
X208505Y-171249D01*
X209441Y-170861D01*
X210244Y-170244D01*
X210861Y-169441D01*
X211249Y-168505D01*
X211381Y-167500D01*
X211249Y-166496D01*
X210861Y-165559D01*
X210244Y-164756D01*
X209441Y-164139D01*
X208505Y-163751D01*
X207500Y-163619D01*
D02*
G37*
G36*
X7500Y-153619D02*
X6496Y-153751D01*
X5559Y-154139D01*
X4756Y-154756D01*
X4139Y-155559D01*
X3751Y-156495D01*
X3619Y-157500D01*
X3751Y-158504D01*
X4139Y-159441D01*
X4756Y-160244D01*
X5559Y-160861D01*
X6496Y-161249D01*
X7500Y-161381D01*
X8505Y-161249D01*
X9441Y-160861D01*
X10244Y-160244D01*
X10861Y-159441D01*
X11249Y-158504D01*
X11381Y-157500D01*
X11249Y-156495D01*
X10861Y-155559D01*
X10244Y-154756D01*
X9441Y-154139D01*
X8505Y-153751D01*
X7500Y-153619D01*
D02*
G37*
G36*
X17500D02*
X16496Y-153751D01*
X15559Y-154139D01*
X14756Y-154756D01*
X14139Y-155559D01*
X13751Y-156495D01*
X13619Y-157500D01*
X13751Y-158504D01*
X14139Y-159441D01*
X14756Y-160244D01*
X15559Y-160861D01*
X16496Y-161249D01*
X17500Y-161381D01*
X18505Y-161249D01*
X19441Y-160861D01*
X20244Y-160244D01*
X20861Y-159441D01*
X21249Y-158504D01*
X21381Y-157500D01*
X21249Y-156495D01*
X20861Y-155559D01*
X20244Y-154756D01*
X19441Y-154139D01*
X18505Y-153751D01*
X17500Y-153619D01*
D02*
G37*
%LPD*%
D35*
X53500Y-7800D02*
D03*
D41*
X18000Y-320000D02*
D03*
D42*
X17500Y-77500D02*
D03*
Y-237500D02*
D03*
X207500Y-77500D02*
D03*
X17500Y-297500D02*
D03*
X7500D02*
D03*
X17500Y-287500D02*
D03*
X7500D02*
D03*
D43*
Y-77500D02*
D03*
X197500D02*
D03*
D45*
X159500Y-315000D02*
D03*
X134000Y-94000D02*
D03*
X186000Y-204000D02*
D03*
X75500Y-280000D02*
D03*
X76000Y-313000D02*
D03*
X95319Y-209000D02*
D03*
X45000Y-87500D02*
D03*
X139000Y-138500D02*
D03*
X95500Y-134500D02*
D03*
X74000Y-154500D02*
D03*
X69500Y-180000D02*
D03*
X165000Y-173500D02*
D03*
X156799Y-254701D02*
D03*
X82000Y-205500D02*
D03*
X117500Y-207500D02*
D03*
X125000D02*
D03*
X52000Y-235000D02*
D03*
X115500Y-261000D02*
D03*
X140000Y-271500D02*
D03*
D46*
X124000Y-300500D02*
D03*
D47*
X86000Y-242550D02*
D03*
Y-239450D02*
D03*
X85500Y-263050D02*
D03*
Y-259950D02*
D03*
X148500Y-283362D02*
D03*
X145252Y-281000D02*
D03*
X148500Y-278638D02*
D03*
X151748Y-281000D02*
D03*
M02*
